<svg xmlns="http://www.w3.org/2000/svg">
<defs>
<font id="MetallophileSp8-Light" horiz-adv-x="245" >
  <font-face 
    font-family="Metallophile Sp8"
    font-weight="300"
    font-stretch="normal"
    units-per-em="1000"
    panose-1="2 11 3 2 3 4 2 6 3 3"
    ascent="800"
    descent="-200"
    x-height="383"
    cap-height="604"
    bbox="-154 -242 1031 905"
    underline-thickness="42"
    underline-position="-54"
    stemh="55"
    stemv="57"
    unicode-range="U+000D-FB04"
  />
<missing-glyph horiz-adv-x="703" 
d="M404 349c15 17 17 34 17 50c0 15 -5 40 -18 51l-6 4c-5 4 -10 7 -14 9c-5 3 -11 3 -18 3h-13c-25 -2 -49 -11 -56 -26c-2 -6 -5 -13 -6 -20l-3 -16c0 -5 -1 -8 -5 -13c-2 -2 -10 -6 -19 -6c-2 0 -3 1 -5 1h-12h-7c-9 0 -11 2 -11 5c0 2 1 5 1 9v6c0 18 7 55 27 77
c20 23 57 43 95 43c40 0 71 -16 90 -39c20 -24 35 -52 35 -77c0 -28 -12 -78 -30 -93c-13 -10 -34 -29 -52 -32c-14 -1 -19 -7 -20 -19c0 -3 0 -9 -1 -12c-2 -14 -4 -32 -4 -41c0 -17 -8 -22 -22 -22h-5c-11 0 -24 3 -25 25c-1 24 -1 79 -1 88c0 8 7 27 32 28h6
c19 1 37 3 50 17zM382 115c-4 -27 -17 -41 -38 -41c-23 0 -40 20 -40 43c3 24 13 40 40 40c24 0 39 -13 39 -34c0 -2 -1 -6 -1 -8zM408 -11c-49 0 -279 0 -293 -2c-3 0 -4 -1 -8 -1c-11 0 -26 5 -26 30v3c3 41 10 143 10 177c0 24 1 105 1 167c0 31 0 57 -1 68v29v70
c0 21 0 40 -1 48c-1 3 -1 4 -1 7s1 7 1 10c1 14 17 16 25 16h13c35 0 105 -1 130 -3c8 0 63 1 120 1c58 0 118 -1 137 -1c17 0 36 -1 51 -1s26 0 32 2c3 0 6 1 8 1c13 0 23 -5 23 -17c0 -2 -1 -4 -1 -6c-7 -27 -8 -189 -8 -246c0 -29 -2 -95 -3 -155v-59c0 -36 0 -65 3 -74
c1 -7 4 -13 6 -21c1 -6 3 -13 3 -22c0 -10 -4 -16 -15 -17c-38 -2 -167 -4 -206 -4zM296 22c6 -1 27 -1 54 -1h95h78c6 -1 12 -1 17 -1c14 0 24 1 27 6c5 5 7 22 7 47c0 14 0 32 -2 52c-2 33 -3 87 -3 135c0 30 0 57 1 75c2 45 4 195 4 211c0 4 2 10 2 16v4
c-4 10 -17 13 -35 13c-40 0 -118 -1 -130 -3c-15 1 -183 2 -200 3c-14 1 -25 1 -35 1h-11c-26 -2 -44 -9 -44 -46c0 -28 3 -122 3 -174v-26c-3 -39 -4 -193 -6 -218c-2 -12 -3 -30 -3 -46c1 -19 5 -34 14 -40c10 -6 24 -9 39 -9h30c34 0 87 0 98 1z" />
    <glyph glyph-name="fi" unicode="fi" horiz-adv-x="500" 
d="M398 32c0 -11 -3 -17 -13 -19s-23 -4 -34 -4c-15 0 -27 4 -27 20v5c3 22 5 62 5 98c0 24 -1 46 -2 62c-1 6 -1 12 -1 19c0 17 1 37 3 56c1 11 1 21 1 31c0 13 -1 25 -4 31s-4 15 -4 25c0 15 3 30 4 37c2 6 14 11 24 11c2 0 4 -1 6 -1l16 -4c4 -2 8 -3 10 -5
c4 -3 7 -11 7 -26v-7c-3 -42 -3 -115 -3 -152s5 -107 8 -136l2 -22c2 -6 2 -13 2 -19zM386 504c-2 -11 -8 -18 -25 -18c-18 0 -42 14 -42 23v12c0 5 0 11 -1 17c-2 11 -6 23 -17 31c-8 7 -15 17 -22 25c-6 7 -13 12 -23 12c-4 0 -7 -1 -10 -2c-13 -4 -26 -7 -36 -10
s-20 -8 -22 -17c-1 -6 -2 -7 -6 -10l-17 -8c-14 -7 -14 -39 -16 -53c0 -7 -1 -11 -2 -14c-2 -5 -3 -11 -3 -17c0 -4 1 -7 1 -10c1 -10 1 -20 1 -29c0 -21 16 -33 38 -38c5 -2 12 -2 18 -2h22s16 -1 17 -8c0 -7 2 -17 2 -27v-4c0 -11 -2 -16 -7 -16h-3c-6 0 -12 1 -17 4
c-7 1 -15 4 -23 4h-4c-19 -3 -33 -15 -42 -37c-6 -14 -7 -26 -7 -38c0 -7 1 -13 1 -18c3 -16 5 -60 8 -81c1 -6 1 -13 1 -19c0 -15 -2 -29 -4 -40v-4c0 -6 2 -11 5 -16c3 -7 5 -12 6 -20c1 -9 3 -21 3 -32c0 -14 -3 -26 -10 -28c-9 -4 -27 -7 -40 -7c-9 0 -16 1 -19 5
c-5 7 -18 25 -18 39c0 4 1 8 3 11c7 10 13 19 13 27c0 5 -2 10 -5 14c-1 1 -2 2 -2 3c0 3 4 7 5 11c3 6 6 12 6 18c0 2 0 4 -1 6c-5 12 -5 92 -5 116c0 5 1 12 3 19l3 22c0 3 1 7 1 11c0 10 -3 19 -12 24c-11 6 -20 11 -32 11h-11c-14 0 -24 4 -24 27c0 13 3 18 8 22
c6 4 15 6 22 8c2 1 6 1 8 1h11c3 0 6 0 8 1c9 2 14 11 14 26c0 5 -1 10 -1 18c-1 10 -2 17 -2 23c0 12 1 23 3 32l2 21c1 6 2 11 2 15c0 15 12 57 32 75c21 18 67 48 120 48c17 0 34 -7 49 -12c5 -1 10 -3 15 -3c9 -2 12 -4 15 -7l4 -5l8 -8c7 -6 18 -14 28 -24
c11 -11 20 -21 23 -31c2 -14 4 -31 4 -45c0 -10 -1 -19 -2 -24z" />
    <glyph glyph-name="fl" unicode="fl" horiz-adv-x="500" 
d="M401 69c0 -6 1 -11 1 -16c0 -11 -1 -20 -6 -22l-18 -14c-5 -2 -9 -4 -17 -4c-13 0 -31 8 -31 28v4c1 13 4 37 6 61c0 10 1 21 1 30c0 10 -1 19 -3 23c-3 6 -3 10 -3 14l4 20v11c0 13 -1 34 -2 55v3c-2 30 -3 63 -3 80s2 54 2 89v46c0 19 -1 35 -3 45c-8 34 -29 71 -55 77
c-11 2 -27 4 -40 4c-18 0 -34 -3 -38 -12c-2 -7 -6 -12 -11 -16s-12 -9 -19 -14c-12 -10 -18 -33 -18 -55c0 -4 0 -7 1 -11c1 -5 1 -12 1 -19c-1 -8 -1 -15 -1 -24c0 -14 2 -30 12 -38c20 -13 47 -16 70 -16c18 0 23 -4 23 -12c0 -3 -1 -5 -1 -7v-12c0 -3 0 -6 -1 -8
c-1 -3 -4 -7 -21 -8h-15h-23c-9 0 -17 -1 -22 -10c-5 -6 -10 -15 -15 -24c-5 -8 -7 -17 -7 -27v-4l5 -28c1 -7 1 -12 1 -18v-7c-1 -3 -1 -8 -1 -13c0 -7 0 -15 1 -24c1 -14 2 -30 2 -44c0 -15 3 -30 5 -45c1 -11 4 -23 4 -34c0 -3 -1 -6 -1 -9s-1 -5 -1 -8c0 -5 1 -10 1 -14
c0 -3 1 -6 1 -9c0 -2 -1 -5 -1 -7c-1 -5 -4 -10 -20 -10h-7c-37 2 -47 12 -47 40c0 4 1 8 1 12c0 5 1 9 1 13c0 14 -2 25 -2 35c-1 5 -1 9 -1 13c0 5 1 9 2 13c6 13 5 38 6 54c0 5 1 9 2 11c3 8 4 27 4 44c0 19 -1 38 -1 46c0 14 -5 22 -15 30l-7 8c-11 11 -15 14 -40 14
c-15 0 -20 10 -20 19c0 3 0 4 1 7c2 8 18 21 42 28l15 5c5 3 9 5 12 11c5 7 7 18 7 37c0 6 -1 14 -1 21c-1 10 -1 20 -1 29c0 51 6 85 15 93c5 3 8 7 11 12c11 15 23 34 40 40c26 7 56 10 77 10c22 0 38 -4 51 -7l34 -12c20 -4 42 -26 49 -46c7 -18 17 -48 17 -78
c0 -6 0 -11 -1 -17c-3 -21 -4 -40 -4 -60c0 -6 1 -14 1 -22v-20c3 -37 3 -115 5 -136c2 -10 4 -22 5 -35c0 -13 0 -27 -5 -44c-1 -8 -2 -14 -2 -21s1 -13 2 -19c2 -8 5 -18 5 -26c0 -9 4 -29 5 -49z" />
    <glyph glyph-name="ff" unicode="ff" horiz-adv-x="559" 
d="M392 482c0 -6 -1 -11 -1 -17c-1 -7 -2 -14 -2 -21c0 -8 1 -17 2 -24c5 -26 19 -31 39 -31c3 0 8 1 12 1c3 0 6 1 9 1c5 0 12 1 18 1c7 0 14 -1 18 -6c8 -8 12 -19 12 -30c0 -7 -3 -15 -11 -20c-4 -2 -9 -3 -14 -3c-7 0 -14 2 -22 3c-6 0 -14 1 -21 1c-6 0 -13 -1 -18 -2
c-16 -7 -19 -39 -19 -66c0 -7 1 -13 1 -18v-12c0 -13 1 -27 2 -40s2 -25 2 -38v-23c0 -25 2 -49 5 -72c1 -6 2 -17 2 -25c0 -15 -3 -30 -12 -38c-7 -6 -21 -10 -33 -10c-10 0 -20 3 -26 9c-6 9 -6 29 -6 44v8c-1 4 -1 7 -1 12c0 16 3 34 4 50c2 15 4 35 4 50c0 13 3 25 5 39
c2 18 5 40 5 60c0 22 -5 46 -17 61c-8 10 -28 13 -45 13c-5 0 -10 -1 -14 -1c-3 0 -5 -1 -8 -1c-13 0 -18 -1 -26 -2c-9 -1 -17 -3 -25 -3c-5 0 -11 1 -16 2c-2 0 -4 1 -5 1c-5 1 -9 1 -14 1c-10 0 -20 -4 -28 -18s-11 -38 -11 -61c0 -6 1 -11 1 -16c0 -7 1 -14 1 -19
c0 -21 3 -41 7 -61c2 -19 5 -39 5 -56c0 -10 1 -21 3 -32c2 -12 3 -25 3 -36s-1 -22 -7 -30c-6 -6 -15 -9 -25 -9c-17 0 -36 8 -40 22c-5 13 -7 27 -7 44c0 13 2 30 3 44c0 13 1 26 1 38v9c0 14 1 31 3 44c1 14 3 26 3 40v25c0 33 -7 61 -52 68c-3 0 -5 1 -8 1
c-12 2 -20 3 -22 16c-1 2 -1 3 -1 6c0 13 9 32 21 36c6 2 13 2 20 2h6c13 0 26 1 33 10c1 3 1 8 1 15c0 13 -1 29 -3 43c-1 6 -2 10 -2 13v10c0 19 2 37 9 56c3 12 6 21 9 26c18 36 52 68 92 83c15 5 29 7 44 7c14 0 28 -2 43 -8c13 -6 27 -15 36 -22l8 -6c9 -6 17 -8 23 -8
c11 0 17 5 25 12c4 4 13 10 16 12c17 11 46 18 72 18c12 0 23 -2 33 -5c14 -5 16 -8 16 -23c0 -10 -2 -27 -9 -35c-6 -4 -16 -5 -25 -5h-12c-3 0 -8 1 -13 1c-4 0 -9 -1 -12 -1c-24 -5 -35 -24 -40 -46c-3 -14 -3 -30 -3 -43c0 -5 -1 -10 -1 -15zM176 571
c-27 -22 -28 -39 -28 -67v-5c0 -8 -2 -19 -4 -28c-2 -10 -3 -21 -3 -33c0 -9 0 -19 4 -27c9 -25 46 -30 79 -30c12 0 27 1 36 2c3 0 6 1 7 1c4 0 9 1 13 1c21 0 39 1 50 25c5 11 9 26 9 41c0 14 -3 30 -6 44c0 2 -1 4 -1 6c-1 20 -4 37 -15 53c-19 27 -46 40 -76 40
c-22 0 -44 -8 -65 -23z" />
    <glyph glyph-name="ffi" unicode="ffi" horiz-adv-x="711" 
d="M312 629c3 -2 8 -7 14 -13c10 -10 20 -19 34 -20c14 0 23 8 31 16l11 13c11 6 26 15 39 19s26 6 39 6c30 0 60 -9 83 -22c18 -10 38 -29 47 -51c5 -16 6 -16 6 -16c5 -14 10 -30 10 -42c0 -7 -3 -14 -8 -19c-6 -6 -16 -9 -24 -9c-13 0 -26 5 -31 18c-5 15 -4 16 -5 22
c-2 10 -4 20 -10 32c-11 21 -35 29 -59 29s-48 -7 -63 -18c-32 -23 -34 -50 -35 -84v-10c0 -4 0 -9 -1 -14c-2 -11 -4 -26 -4 -39c0 -11 2 -22 7 -31c9 -15 31 -15 48 -15h24c6 0 12 -1 16 -5c4 -5 6 -13 6 -20c0 -11 -5 -22 -14 -25c-3 -1 -6 -2 -9 -2c-6 0 -13 2 -19 3
c-8 2 -15 4 -23 4c-3 0 -6 0 -10 -1c-15 -5 -17 -16 -17 -28v-67c0 -55 1 -116 4 -171c0 -3 1 -7 1 -11c0 -7 1 -14 1 -22c0 -16 -3 -32 -16 -38c-4 -2 -14 -3 -23 -3c-13 0 -27 4 -31 15c-3 6 -4 15 -4 22c0 9 1 19 3 29l2 25c0 5 1 10 1 15c0 13 -1 26 -2 37v33
c0 13 0 26 3 41c0 2 1 5 1 7c2 13 5 34 5 52c0 27 -9 53 -29 62c-7 2 -13 3 -20 3c-9 0 -18 -1 -27 -3c-8 -1 -17 -2 -24 -2c-4 0 -9 0 -13 1l-14 4c-8 1 -17 4 -27 4c-6 0 -12 -1 -18 -4c-13 -5 -17 -24 -17 -43c0 -9 0 -19 1 -27c1 -5 1 -10 1 -15c0 -8 -1 -20 -1 -28
c-1 -7 -1 -15 -1 -23c0 -12 1 -24 2 -34c2 -16 2 -35 2 -52c0 -9 -1 -18 -1 -28c0 -4 1 -8 1 -12c0 -2 1 -4 1 -7c0 -9 1 -22 1 -35c0 -16 -1 -30 -6 -34c-3 -3 -9 -5 -15 -5c-16 0 -37 8 -43 19c-2 4 -2 15 -2 27s0 27 2 41c1 11 2 21 2 29c0 43 3 85 6 127c0 1 2 3 2 5
c2 10 3 23 3 35c0 22 -5 43 -21 50c-10 5 -20 6 -31 6c-13 0 -27 0 -34 11c-4 4 -4 10 -4 15c0 12 5 23 15 26c3 1 5 1 8 1c4 0 9 -1 14 -1c4 -1 9 -1 13 -1c8 0 15 1 22 6c13 9 16 22 16 35c0 7 -1 12 -1 19c-2 6 -2 12 -2 18c0 7 -1 15 -1 23c-1 6 -1 12 -1 18
c0 7 0 14 1 20c0 4 1 9 1 14c4 20 6 45 20 64c19 21 46 40 75 46c14 4 29 6 41 6c25 0 50 -7 75 -23zM151 466v-11c0 -3 0 -5 -1 -8l-3 -11c-2 -8 -5 -16 -5 -25c0 -7 3 -14 9 -19c6 -8 19 -10 30 -10c4 0 8 1 12 1s8 1 11 1c7 0 19 -1 25 -1c5 -1 12 -1 20 -1
c7 0 16 0 22 1h15c25 0 50 0 50 29c0 4 0 7 -1 11c-4 14 -4 29 -4 44c0 27 -1 58 -14 81c-17 28 -46 45 -76 45c-12 0 -25 -2 -37 -6c-35 -13 -55 -54 -56 -90v-6c0 -9 1 -18 3 -25zM573 379c2 0 3 1 3 1c7 2 14 3 19 3c21 0 33 -15 33 -37c0 -18 -1 -55 -1 -74
c-1 -25 -1 -50 -1 -76v-17c0 -29 0 -62 -2 -91v-12c0 -15 1 -30 4 -43l3 -8c0 -7 2 -13 2 -18s-1 -9 -4 -12c-5 -5 -14 -8 -23 -8c-16 0 -35 5 -40 14c-4 3 -5 9 -5 16s1 14 2 21c1 5 3 13 3 18c0 24 1 47 3 70l2 43v13c0 21 -1 41 -3 61c-1 12 -2 23 -2 34
c0 17 -2 34 -4 49c-1 10 -2 19 -2 26c0 11 2 21 13 27z" />
    <glyph glyph-name="ffl" unicode="ffl" horiz-adv-x="710" 
d="M543 645c54 -30 72 -74 84 -134c1 -7 2 -13 2 -20c0 -9 -1 -17 -3 -25c0 -3 -1 -7 -1 -10c-1 -5 -1 -13 -1 -21s0 -15 1 -21v-31c0 -7 -1 -15 -1 -22c0 -15 1 -30 1 -45v-34c0 -24 0 -48 -3 -71c0 -4 -1 -7 -1 -11c0 -18 4 -34 6 -49c3 -15 5 -35 5 -50c0 0 -1 -9 -2 -15
c-1 -4 -3 -4 -3 -14c0 -2 -1 -5 -1 -8c0 -8 1 -15 3 -23c1 -7 2 -15 2 -22c0 -19 -14 -28 -30 -28c-9 0 -16 2 -24 5c-5 2 -5 4 -6 6c0 2 0 5 -1 11c-4 9 -5 18 -5 28c0 5 1 11 1 16v19c0 25 0 49 2 74c0 18 3 56 3 86c2 48 5 95 5 143c0 21 -1 43 -2 62
c-3 50 -5 111 -53 145c-10 9 -33 14 -53 14c-11 0 -22 -2 -28 -4c-19 -10 -30 -31 -36 -50c-13 -36 -18 -77 -18 -119c0 -23 11 -36 35 -45c7 -2 17 -2 28 -2h7c11 0 21 -1 28 -8c3 -3 5 -8 5 -14c0 -9 -4 -20 -10 -24c-3 -2 -7 -2 -11 -2c-6 0 -12 1 -20 3
c-6 1 -12 1 -19 1c-8 0 -15 0 -23 -5c-12 -7 -15 -20 -15 -34v-12c0 -6 1 -11 1 -16c0 -15 1 -35 2 -50l2 -50c0 -9 -1 -18 -1 -27c0 -8 -1 -17 -1 -26c0 -4 1 -9 1 -13c0 -6 1 -16 2 -24c3 -15 5 -36 5 -51c0 -13 -2 -26 -7 -31s-14 -7 -23 -7c-15 0 -32 6 -38 18
c-3 6 -3 13 -3 18c0 10 1 20 4 31c0 1 1 2 1 3c3 9 5 21 5 31c1 10 1 25 1 35v26c0 4 1 11 1 15c1 10 1 23 1 35v14c0 8 1 16 1 25c0 8 1 16 1 25c0 35 -7 67 -50 73h-12c-9 0 -18 0 -28 -1c-5 -1 -11 -2 -16 -2h-26c-22 0 -48 -2 -56 -16c-3 -6 -4 -14 -4 -22
c0 -7 1 -15 2 -22c0 -5 1 -11 1 -15c0 -9 0 -22 1 -31c1 -10 2 -23 2 -34c0 -38 -1 -77 -2 -115c0 -7 0 -16 1 -25c1 -7 2 -15 2 -22c0 -8 -1 -14 -3 -18c-3 -10 -12 -13 -23 -13c-12 0 -24 4 -29 11c-7 7 -10 18 -10 32c0 12 2 26 4 38c1 8 2 17 2 28c0 19 2 37 2 63v12
c0 21 0 44 3 64l3 15c1 10 4 20 4 32c0 10 -2 19 -8 29c-7 11 -19 13 -33 13h-22c-12 0 -22 1 -22 16c0 4 1 9 2 15c4 11 15 14 28 14h8c26 1 38 25 38 55c0 11 -1 24 -2 39c-1 9 -2 17 -2 24c0 5 1 9 1 13c1 7 2 13 4 21c7 23 11 45 29 64c26 28 64 45 101 48
c10 1 22 2 31 2c24 0 44 -5 61 -28c12 -12 22 -17 33 -17c18 0 37 13 55 26c5 4 10 9 16 12c14 9 34 13 54 13s41 -4 57 -12zM153 502c-1 -4 -1 -8 -1 -14c0 -4 -1 -8 -1 -13v-28c0 -20 2 -43 15 -55c12 -10 30 -11 47 -11h26c4 0 7 1 11 1c7 0 16 -1 23 -2
c8 -2 15 -3 22 -3c10 0 20 3 29 13c10 12 14 31 14 51c0 15 -2 29 -4 42l-3 28v12c0 18 0 35 -17 52c-14 15 -39 22 -64 22c-32 0 -64 -14 -77 -38c-11 -19 -17 -38 -20 -57z" />
    <glyph glyph-name="f_j" unicode="fj" horiz-adv-x="500" 
d="M386 496c-2 -11 -8 -18 -25 -18c-18 0 -42 13 -42 23v12c0 5 0 11 -1 17c-2 11 -6 23 -17 31c-8 6 -15 16 -22 25c-6 6 -13 11 -23 11c-4 0 -7 -1 -10 -1c-13 -5 -26 -7 -36 -10c-10 -4 -20 -8 -22 -17c-1 -6 -2 -8 -6 -10l-17 -8c-14 -7 -14 -40 -16 -54
c0 -6 -1 -11 -2 -13c-2 -5 -3 -11 -3 -18c0 -3 1 -6 1 -10c1 -10 1 -20 1 -29c0 -21 16 -32 38 -37c5 -2 12 -3 18 -3c7 0 14 1 22 1c8 -1 16 -2 17 -8c0 -8 2 -18 2 -27v-4c0 -11 -2 -16 -7 -17h-3c-6 0 -12 2 -17 4c-7 2 -15 5 -23 5h-4c-19 -4 -33 -15 -42 -37
c-6 -14 -7 -27 -7 -38c0 -7 1 -13 1 -19c3 -16 5 -60 8 -81c1 -5 1 -12 1 -18c0 -15 -2 -29 -4 -40v-4c0 -7 2 -12 5 -17c3 -6 5 -11 6 -20c1 -8 3 -21 3 -31c0 -15 -3 -26 -10 -29c-9 -3 -27 -6 -40 -6c-9 0 -16 0 -19 5c-5 7 -18 25 -18 39c0 4 1 7 3 11c7 10 13 19 13 27
c0 4 -2 9 -5 13c-1 1 -2 3 -2 4c0 3 4 6 5 11c3 5 6 11 6 18c0 2 0 4 -1 6c-5 11 -5 91 -5 116c0 5 1 11 3 19l3 21c0 4 1 8 1 11c0 10 -3 19 -12 24c-11 7 -20 11 -32 11c-4 1 -7 1 -11 1c-14 0 -24 3 -24 27c0 12 3 17 8 21c6 5 15 7 22 9c2 1 6 1 8 1h11h8
c9 3 14 11 14 27c0 13 -3 26 -3 41c0 12 1 22 3 32l2 20c1 6 2 11 2 15c0 15 12 58 32 75c21 19 67 49 120 49c17 0 34 -7 49 -12c5 -2 10 -3 15 -3c9 -2 12 -4 15 -7l4 -6l8 -7c7 -6 18 -14 28 -24c11 -11 20 -21 23 -31c2 -14 4 -31 4 -45c0 -10 -1 -19 -2 -24zM387 352
c0 -41 -4 -181 -4 -237c0 -38 -1 -138 -1 -207c0 -34 0 -62 1 -69c0 -5 1 -9 1 -13c0 -12 -4 -17 -17 -17h-4c-27 2 -40 2 -40 22c0 4 0 7 1 11c2 20 4 74 4 131v146c0 61 -4 206 -4 239c0 28 7 37 28 37h4c27 -2 31 -5 31 -43z" />
    <glyph glyph-name=".notdef" horiz-adv-x="703" 
d="M404 349c15 17 17 34 17 50c0 15 -5 40 -18 51l-6 4c-5 4 -10 7 -14 9c-5 3 -11 3 -18 3h-13c-25 -2 -49 -11 -56 -26c-2 -6 -5 -13 -6 -20l-3 -16c0 -5 -1 -8 -5 -13c-2 -2 -10 -6 -19 -6c-2 0 -3 1 -5 1h-12h-7c-9 0 -11 2 -11 5c0 2 1 5 1 9v6c0 18 7 55 27 77
c20 23 57 43 95 43c40 0 71 -16 90 -39c20 -24 35 -52 35 -77c0 -28 -12 -78 -30 -93c-13 -10 -34 -29 -52 -32c-14 -1 -19 -7 -20 -19c0 -3 0 -9 -1 -12c-2 -14 -4 -32 -4 -41c0 -17 -8 -22 -22 -22h-5c-11 0 -24 3 -25 25c-1 24 -1 79 -1 88c0 8 7 27 32 28h6
c19 1 37 3 50 17zM382 115c-4 -27 -17 -41 -38 -41c-23 0 -40 20 -40 43c3 24 13 40 40 40c24 0 39 -13 39 -34c0 -2 -1 -6 -1 -8zM408 -11c-49 0 -279 0 -293 -2c-3 0 -4 -1 -8 -1c-11 0 -26 5 -26 30v3c3 41 10 143 10 177c0 24 1 105 1 167c0 31 0 57 -1 68v29v70
c0 21 0 40 -1 48c-1 3 -1 4 -1 7s1 7 1 10c1 14 17 16 25 16h13c35 0 105 -1 130 -3c8 0 63 1 120 1c58 0 118 -1 137 -1c17 0 36 -1 51 -1s26 0 32 2c3 0 6 1 8 1c13 0 23 -5 23 -17c0 -2 -1 -4 -1 -6c-7 -27 -8 -189 -8 -246c0 -29 -2 -95 -3 -155v-59c0 -36 0 -65 3 -74
c1 -7 4 -13 6 -21c1 -6 3 -13 3 -22c0 -10 -4 -16 -15 -17c-38 -2 -167 -4 -206 -4zM296 22c6 -1 27 -1 54 -1h95h78c6 -1 12 -1 17 -1c14 0 24 1 27 6c5 5 7 22 7 47c0 14 0 32 -2 52c-2 33 -3 87 -3 135c0 30 0 57 1 75c2 45 4 195 4 211c0 4 2 10 2 16v4
c-4 10 -17 13 -35 13c-40 0 -118 -1 -130 -3c-15 1 -183 2 -200 3c-14 1 -25 1 -35 1h-11c-26 -2 -44 -9 -44 -46c0 -28 3 -122 3 -174v-26c-3 -39 -4 -193 -6 -218c-2 -12 -3 -30 -3 -46c1 -19 5 -34 14 -40c10 -6 24 -9 39 -9h30c34 0 87 0 98 1z" />
    <glyph glyph-name="NULL" horiz-adv-x="0" 
 />
    <glyph glyph-name="NULL" horiz-adv-x="0" 
 />
    <glyph glyph-name="CR" unicode="&#xd;" horiz-adv-x="0" 
 />
    <glyph glyph-name="brokenbar" unicode="&#xa6;" horiz-adv-x="257" 
d="M105 340c2 45 3 108 3 161c0 46 -1 85 -1 96v114c1 8 14 15 23 15h3c13 -4 26 -6 26 -54c0 -6 0 -15 -1 -23c-2 -43 -3 -111 -3 -178c0 -43 2 -86 2 -132c0 -13 -6 -25 -26 -25c-13 0 -26 10 -26 26zM154 198c-2 -28 -2 -39 -2 -72c0 -71 1 -126 4 -161
c1 -31 6 -108 6 -137v-6c-1 -15 -3 -30 -23 -33c-4 -1 -9 -2 -14 -2s-9 1 -12 5c-4 5 -6 17 -6 49v20c0 46 1 100 1 155c0 59 -3 117 -3 177c0 12 10 23 27 23s22 -11 22 -18z" />
    <glyph glyph-name="minus" unicode="&#x2212;" horiz-adv-x="620" 
d="M588 301l-3 -9c-1 -2 -2 -4 -4 -6s-8 -5 -21 -5h-7c-36 0 -188 3 -231 3h-9c-25 -1 -221 -5 -236 -6h-8c-22 0 -33 3 -33 20v4c2 20 5 22 25 22c25 0 242 -4 258 -6c2 0 7 -1 11 -1c41 0 151 9 219 9h21c11 0 19 -7 19 -19c0 -1 0 -4 -1 -6z" />
    <glyph glyph-name="multiply" unicode="&#xd7;" horiz-adv-x="620" 
d="M503 495c2 -3 3 -6 3 -9c2 -2 3 -4 3 -6c0 -4 -3 -9 -12 -19c-7 -10 -103 -101 -151 -147c-4 -4 -8 -8 -8 -13c0 -3 1 -7 6 -11l36 -37c31 -32 54 -52 70 -66c15 -11 55 -43 65 -54c3 -3 6 -7 6 -12s-3 -11 -9 -19c-5 -5 -11 -16 -21 -16c-6 0 -14 5 -32 24
c-39 41 -106 111 -145 151c-3 2 -5 5 -9 5c-3 0 -6 -1 -11 -6l-136 -143c-12 -13 -22 -21 -31 -21c-6 0 -11 2 -16 9s-9 11 -9 16s4 10 13 18l149 143c4 4 7 9 7 13s-2 8 -7 13c-42 41 -102 101 -113 112c-15 15 -44 42 -49 48c-1 1 -1 2 -1 3c0 5 7 16 14 21c5 4 11 9 17 9
c8 0 19 -6 33 -24c31 -38 96 -105 133 -141c4 -5 8 -6 11 -6c4 0 8 3 11 6c38 40 112 125 152 163c5 4 10 7 15 7c6 0 12 -4 16 -11z" />
    <glyph glyph-name="space" unicode=" " horiz-adv-x="250" 
 />
    <glyph glyph-name="exclam" unicode="!" horiz-adv-x="266" 
d="M165 566v-11c-4 -55 -6 -119 -9 -188v-81v-130c0 -20 -2 -23 -20 -23h-4c-16 0 -29 1 -29 24v4c2 31 4 124 4 180v28c-2 47 -4 152 -8 188c-1 8 -2 14 -2 20c0 17 5 24 25 24h11l16 -2c4 -1 7 -2 9 -4c3 -4 7 -10 7 -29zM178 41c0 -34 -18 -53 -46 -53
c-29 0 -49 20 -51 48v4c0 23 13 39 47 41h3c32 0 47 -10 47 -40z" />
    <glyph glyph-name="quotedbl" unicode="&#x22;" horiz-adv-x="406" 
d="M354 576c-18 -30 -41 -66 -55 -95c-7 -15 -17 -31 -26 -45l-12 -20c-4 -6 -7 -12 -9 -16c-5 -10 -16 -20 -31 -20c-8 1 -19 2 -19 14c0 4 2 10 6 18c23 40 58 129 65 156c7 23 18 39 42 39h6c20 -2 37 -5 37 -17c0 -4 -2 -9 -4 -14zM195 576c-18 -30 -41 -66 -55 -95
c-7 -15 -17 -31 -26 -45l-13 -20l-8 -16c-5 -10 -17 -20 -31 -20c-8 1 -19 2 -19 14c0 4 2 10 6 18c22 40 57 129 65 156c7 23 18 39 42 39h6c20 -2 37 -5 37 -17c0 -4 -2 -9 -4 -14z" />
    <glyph glyph-name="numbersign" unicode="#" horiz-adv-x="626" 
d="M591 390v-4c-2 -12 -4 -23 -29 -23c-4 0 -8 0 -13 1c-23 2 -57 3 -91 5h-4c-16 0 -20 -5 -26 -18l-40 -100c-1 -2 -2 -4 -2 -6c0 -5 3 -9 9 -9h84c9 0 23 1 35 1s23 -1 27 -1c6 0 8 -15 8 -22c-2 -12 -3 -23 -31 -23c-3 0 -7 0 -12 1c-38 4 -77 6 -118 6
c-19 0 -25 -8 -30 -22c-14 -36 -23 -66 -27 -76c-6 -23 -25 -81 -32 -97c-4 -8 -9 -16 -20 -16c-3 0 -5 0 -8 1c-5 2 -16 3 -20 11v4c0 7 3 19 15 43c12 25 29 64 46 105l14 30c0 3 1 5 1 8c0 7 -6 11 -14 11h-82c-21 0 -25 -7 -31 -21c-14 -38 -24 -69 -28 -79
c-6 -23 -25 -82 -32 -97c-4 -9 -9 -16 -19 -16c-3 0 -6 0 -9 1c-6 1 -16 3 -19 10c-1 2 -1 3 -1 6c0 7 4 20 14 42c16 30 39 82 60 133c1 3 2 7 2 9c0 7 -7 9 -14 9l-19 -2c-17 -2 -59 -6 -74 -6h-4c-8 1 -16 3 -18 20c-1 3 -1 7 -1 12c0 4 0 8 3 11c2 4 8 6 21 6
c4 0 9 0 16 -1c21 -2 51 -3 83 -4h5c17 0 23 4 30 20c9 22 16 41 20 53l19 47c1 3 1 7 1 9c0 7 -6 9 -15 9l-45 -5c-15 -2 -55 -5 -72 -5h-4c-9 0 -17 2 -19 20c0 3 -1 8 -1 12s1 8 3 10c3 3 8 6 21 6c5 0 10 0 17 -1c26 -2 71 -4 115 -4h4c12 0 15 3 17 15l79 192
c1 4 5 5 11 5c4 0 9 -1 13 -3c6 -4 12 -8 12 -19c0 -8 -3 -21 -13 -41c-16 -32 -39 -85 -61 -135c-2 -3 -2 -7 -2 -9c0 -4 2 -6 9 -6c12 0 22 1 30 1c14 0 36 1 61 1c15 0 20 6 23 19l76 187c1 4 6 5 11 5s10 -1 13 -3c7 -4 12 -7 12 -18c0 -9 -4 -21 -13 -41
c-15 -32 -38 -83 -59 -131c-2 -3 -2 -6 -2 -8c0 -7 6 -9 14 -9c22 0 40 1 50 2c6 1 15 1 23 1c17 0 35 -1 39 -1s8 -10 8 -18zM376 306l16 43c2 5 3 9 3 12c0 6 -4 10 -14 10h-18h-67c-15 0 -20 -5 -25 -17l-42 -103c-2 -4 -3 -6 -3 -9c0 -7 6 -10 15 -10c22 0 40 0 51 1h34
c15 1 24 7 29 20c0 1 1 2 1 3c9 21 15 38 20 50z" />
    <glyph glyph-name="dollar" unicode="$" horiz-adv-x="495" 
d="M438 165v-7c-2 -49 -17 -83 -52 -111c-36 -29 -54 -36 -73 -37c-26 -3 -43 -20 -43 -49v-65c0 -9 -4 -13 -11 -13c-11 0 -27 0 -27 28v4c1 20 7 40 8 56v6c0 15 -6 29 -28 31c-34 2 -63 11 -81 27c-9 9 -23 21 -35 32c-13 13 -23 23 -28 29c-3 5 -6 10 -6 15
c0 7 4 15 14 22c11 8 21 17 30 17c5 0 9 -4 12 -11c13 -29 32 -46 48 -60c10 -8 28 -18 45 -18c15 0 29 9 29 36c0 45 0 74 2 113c0 10 1 19 1 28c0 4 1 9 1 14c0 20 -5 41 -26 52c-14 7 -37 17 -59 27c-23 11 -40 22 -45 30l-12 18c-3 6 -7 12 -11 19c-6 14 -11 32 -11 54
c0 47 24 89 52 107c15 9 29 15 43 18c12 4 24 6 31 9c17 3 30 19 30 37v9c-2 7 -5 17 -5 27c0 12 5 23 20 23c14 0 19 -2 19 -38c0 -8 0 -16 -1 -23c0 -6 0 -12 1 -18c2 -13 11 -20 26 -24c2 0 4 -1 5 -1c25 -6 44 -11 66 -28c24 -19 35 -34 40 -51c2 -5 3 -8 4 -12
c1 -3 1 -4 1 -4c0 -3 -4 -4 -11 -7c-11 -7 -20 -10 -26 -10c-32 0 -24 56 -70 61c-5 0 -11 1 -16 1c-6 0 -11 -1 -15 -3c-11 -7 -16 -21 -16 -43v-67c0 -20 0 -39 3 -47c4 -12 13 -37 45 -50c15 -6 30 -9 45 -17c15 -6 29 -17 44 -39l20 -29c6 -7 11 -15 14 -22
c6 -13 9 -25 9 -46zM241 404v9c0 13 -1 27 -1 43v29c0 20 -2 46 -30 46c-13 0 -30 -9 -43 -20c-11 -9 -30 -25 -30 -50v-15c0 -5 0 -10 1 -15c2 -11 6 -20 15 -30c8 -9 14 -19 23 -25c7 -5 15 -8 23 -8c5 0 10 1 15 3c18 5 25 18 27 33zM386 166c0 22 -6 46 -21 65
c-15 20 -40 27 -59 30c-6 1 -11 3 -16 3c-8 0 -14 -3 -18 -11c-7 -12 -10 -37 -10 -87c0 -51 4 -77 10 -91c6 -10 14 -15 24 -15h8c12 0 19 2 27 9c6 5 13 12 25 22c26 22 30 52 30 75z" />
    <glyph glyph-name="percent" unicode="%" horiz-adv-x="750" 
d="M710 115c-2 -49 -8 -61 -37 -94c-29 -30 -62 -35 -103 -37h-7c-37 0 -67 13 -87 32c-21 19 -47 60 -47 104c0 43 15 73 36 93c20 20 47 47 108 47h3c39 -1 71 -19 91 -40c27 -29 42 -64 43 -105zM595 633c6 -5 11 -10 11 -18c-1 -10 -6 -25 -25 -50
c-40 -56 -119 -175 -158 -238l-87 -138c-31 -50 -54 -94 -61 -108c-12 -25 -46 -88 -57 -105c-6 -8 -12 -15 -22 -15c-4 0 -8 1 -13 4c-7 3 -18 6 -20 16c0 0 -1 1 -1 3c0 7 6 21 27 49c48 65 147 223 176 278l201 325c1 3 5 4 10 4c6 0 14 -3 19 -7zM325 464
c-2 -48 -8 -61 -37 -93c-29 -31 -45 -36 -87 -38h-3c-40 0 -87 13 -107 32c-21 19 -47 61 -47 104s15 74 35 94s47 46 109 46h3c39 -1 71 -18 91 -39c27 -29 42 -64 43 -106zM658 122c0 12 -2 20 -6 28c-3 7 -8 14 -14 24c-13 22 -35 30 -64 30c-19 0 -38 -3 -61 -19
c-23 -18 -27 -40 -27 -64s5 -39 22 -59c17 -19 31 -25 59 -29c3 0 5 -1 8 -1c17 0 34 8 49 18c4 3 8 6 12 8c14 11 22 42 22 64zM273 471c0 12 -2 20 -6 29l-15 24c-12 21 -34 30 -63 30c-19 0 -38 -3 -61 -20c-23 -18 -27 -40 -27 -63c0 -25 5 -40 22 -59
c17 -20 31 -26 59 -29c3 0 5 -1 8 -1c17 0 34 8 48 18c5 3 9 6 12 8c15 11 23 42 23 63z" />
    <glyph glyph-name="ampersand" unicode="&#x26;" horiz-adv-x="609" 
d="M595 5c-1 -6 -5 -21 -40 -21c-39 0 -68 8 -79 32c-7 15 -12 30 -18 40c-5 10 -12 22 -25 22c-16 0 -40 -9 -55 -29c-12 -16 -52 -40 -69 -48c-8 -4 -19 -9 -32 -12c-12 -4 -26 -7 -43 -7c-33 0 -87 17 -121 38c-31 19 -66 82 -66 130v3c2 49 19 92 44 113l53 47
c6 5 13 9 19 14c7 6 13 14 13 28c0 22 -15 46 -34 64c-12 12 -20 39 -20 65c0 4 0 9 1 14c4 30 25 78 46 94c6 4 12 9 19 14c22 16 44 25 70 25c5 0 9 -1 14 -1c54 -6 84 -19 106 -48c20 -27 28 -46 28 -72v-9c-2 -31 -15 -66 -34 -90c-10 -13 -15 -23 -21 -31
s-13 -14 -26 -19c-9 -5 -14 -7 -19 -10s-10 -7 -13 -14c-1 -1 -1 -4 -1 -6c0 -10 9 -21 20 -35c29 -33 59 -62 74 -78c9 -8 15 -18 25 -24c5 -3 10 -4 14 -4c8 0 16 5 23 16c9 14 17 28 23 41c5 13 10 24 13 30c3 7 10 14 18 14c5 0 10 -3 15 -8c5 -7 11 -11 17 -15l14 -10
c5 -4 8 -7 8 -12c0 -1 -1 -2 -1 -4c-8 -21 -24 -44 -39 -56c-8 -8 -26 -21 -27 -22c-7 -7 -15 -15 -15 -28c2 -17 22 -33 37 -44l32 -27c13 -11 27 -22 38 -27c10 -4 15 -17 15 -27c0 -2 -1 -5 -1 -6zM334 494v7c-3 35 -38 51 -64 54h-5c-19 0 -32 -9 -47 -19l-4 -2
c-17 -11 -23 -38 -23 -61c0 -8 0 -16 2 -22c5 -22 20 -64 51 -64c21 0 32 9 45 22l13 12c20 17 32 45 32 73zM379 134c0 11 -7 18 -13 24l-9 8c-2 3 -6 5 -7 7c-5 5 -12 13 -19 22c-9 9 -18 19 -27 27c-17 15 -38 42 -49 58c-4 4 -6 8 -10 11c-5 5 -12 6 -22 8h-3
c-19 0 -30 -12 -42 -23l-2 -3c-15 -14 -38 -42 -49 -58c-7 -12 -13 -31 -13 -54c0 -10 2 -21 5 -33c11 -37 37 -60 84 -72c13 -4 23 -5 32 -5c8 0 16 1 22 3c12 2 20 7 28 9c17 5 56 27 70 39c6 6 12 9 16 12c5 5 8 11 8 20z" />
    <glyph glyph-name="quotesingle" unicode="'" horiz-adv-x="247" 
d="M195 576c-18 -30 -41 -66 -55 -95c-7 -15 -17 -31 -26 -45l-13 -20c-4 -6 -6 -12 -8 -16c-5 -10 -17 -20 -31 -20c-8 1 -19 2 -19 14c0 4 2 10 6 18c22 40 57 129 65 156c7 23 18 39 42 39h6c19 -2 37 -5 37 -18c0 -3 -2 -8 -4 -13z" />
    <glyph glyph-name="parenleft" unicode="(" horiz-adv-x="320" 
d="M265 -128c0 0 -2 -1 -4 -1c-6 0 -15 3 -22 15c-14 22 -64 117 -72 143c-4 14 -11 42 -19 80c-7 38 -15 87 -16 141v16c0 97 14 144 25 174c12 33 37 89 49 112c11 24 25 49 30 59c5 6 14 10 20 10c1 0 3 0 4 -1c2 -3 4 -7 4 -12c0 -7 -3 -15 -8 -24
c-4 -5 -20 -30 -25 -38c-10 -17 -21 -40 -31 -74c-19 -65 -29 -120 -29 -197c0 -76 1 -132 20 -201c17 -69 62 -166 73 -181c3 -4 4 -8 4 -12s-2 -7 -3 -9z" />
    <glyph glyph-name="parenright" unicode=")" horiz-adv-x="320" 
d="M214 257c0 -48 -12 -131 -29 -185c-17 -53 -87 -177 -98 -190c-6 -6 -10 -10 -12 -10c-4 0 -5 3 -9 6c-5 6 -7 13 -7 20c0 5 1 10 4 14c5 8 17 24 31 46c13 23 28 51 40 82c22 58 37 142 37 204v10c-3 60 -9 132 -25 178c-8 23 -17 50 -28 76c-10 25 -22 49 -37 62
c-12 11 -17 26 -17 37c0 9 3 18 7 22c1 2 4 3 6 3c10 0 23 -13 34 -28c16 -23 50 -93 72 -165c22 -73 31 -134 31 -182z" />
    <glyph glyph-name="asterisk" unicode="*" horiz-adv-x="456" 
d="M391 507c1 -5 2 -9 2 -12c0 -15 -8 -24 -22 -24h-4h-21c-30 0 -65 -5 -68 -23c0 -2 -1 -3 -1 -5c0 -21 25 -45 44 -59c10 -8 36 -27 36 -43c0 -7 -3 -13 -11 -18c-11 -7 -20 -12 -26 -12c-12 0 -19 12 -30 35c-9 20 -14 37 -20 50s-14 26 -30 26c-29 0 -42 -28 -51 -55
l-8 -25c-3 -8 -6 -16 -10 -22c-4 -4 -7 -8 -12 -8c-4 0 -11 4 -21 14c-14 13 -17 22 -17 28c0 3 0 6 2 7c3 4 8 8 14 12l10 6c4 2 7 4 9 7c11 8 24 16 33 26c7 7 12 14 12 24c0 5 -2 10 -5 15c-13 20 -30 22 -51 22h-21c-23 0 -59 1 -59 25c0 3 0 5 1 8c4 15 14 23 28 23
c11 0 23 -4 37 -13c26 -17 49 -26 65 -26c6 0 12 1 17 5c8 5 10 13 10 21c0 5 -1 10 -2 14c-1 12 -5 27 -9 43c-1 7 -1 13 -1 18c0 12 3 33 22 33c19 -2 33 -7 33 -25c0 -4 0 -8 -1 -13c-5 -19 -12 -40 -16 -59c-2 -7 -3 -15 -3 -21c0 -12 3 -20 9 -24c1 -1 3 -1 6 -1
c9 0 23 6 39 16c17 12 35 24 54 32c8 3 14 4 19 4c13 0 15 -10 18 -26z" />
    <glyph glyph-name="plus" unicode="+" horiz-adv-x="620" 
d="M588 301c-1 -2 -2 -5 -3 -8c-1 -2 -2 -4 -4 -6s-8 -5 -21 -6h-9c-67 0 -135 4 -205 4c-8 0 -15 -1 -15 -15v-52c0 -42 0 -75 2 -96c3 -18 8 -63 8 -81v-3c-1 -9 -4 -18 -24 -20c-4 -1 -10 -2 -15 -2c-4 0 -8 1 -11 4c-4 2 -5 10 -5 28v13c0 57 3 154 3 209v3
c0 5 -1 11 -15 11c-65 -2 -185 -5 -197 -5h-8c-22 0 -33 3 -33 20v4c2 20 5 22 25 22c18 0 138 -3 208 -4c11 0 18 4 18 18c-1 58 -1 143 -1 159v68c0 5 12 9 21 9h4c14 -2 26 -4 26 -32c0 -4 0 -9 -1 -14c-5 -49 -5 -143 -5 -195c0 -14 9 -15 15 -15c50 2 146 7 205 7h19
c11 0 19 -6 19 -18c0 -2 0 -4 -1 -7z" />
    <glyph glyph-name="comma" unicode="," horiz-adv-x="229" 
d="M175 53c-31 -43 -39 -64 -57 -92c-17 -27 -36 -57 -42 -71c-3 -8 -6 -14 -22 -14c-3 0 -6 0 -10 1c-3 0 -19 1 -21 3c-1 1 -2 2 -2 4c0 4 3 9 6 19c6 18 14 36 22 54c8 19 16 39 20 59c3 17 8 29 13 37l8 12l6 11c5 12 35 17 49 17c16 0 38 -4 38 -19c0 -6 -2 -13 -8 -21
z" />
    <glyph glyph-name="hyphen" unicode="-" horiz-adv-x="260" 
d="M234 189l-3 -13c-1 -5 -2 -8 -4 -10c-3 -5 -9 -9 -24 -10c-17 0 -44 -3 -72 -4c-10 0 -20 -1 -30 -1c-15 0 -30 1 -41 3c-24 4 -34 8 -34 20c0 4 1 10 4 17c8 30 19 36 42 36c27 0 49 -1 66 -3c33 -4 77 -6 88 -6c2 0 9 -7 9 -20c0 -2 0 -6 -1 -9z" />
    <glyph glyph-name="period" unicode="." horiz-adv-x="266" 
d="M198 51c-2 -42 -38 -72 -61 -72c-30 0 -66 33 -67 65c1 32 23 61 76 61c30 0 51 -23 52 -54z" />
    <glyph glyph-name="slash" unicode="/" horiz-adv-x="344" 
d="M324 663c7 -5 14 -9 14 -22c0 -10 -4 -25 -15 -47c-31 -63 -87 -193 -114 -262l-62 -151c-22 -55 -37 -103 -41 -117c-9 -27 -30 -95 -39 -113c-4 -10 -10 -19 -22 -19c-3 0 -6 1 -9 2c-8 2 -20 3 -24 12c-1 1 -1 3 -1 8c0 7 5 22 18 47c36 73 106 246 123 306l142 350
c3 8 9 9 15 9s12 0 15 -3z" />
    <glyph glyph-name="zero" unicode="0" horiz-adv-x="496" 
d="M459 291c0 -33 -8 -83 -18 -130c-9 -45 -34 -99 -52 -116c-4 -5 -11 -12 -18 -19c-35 -29 -73 -44 -119 -44c-76 0 -115 43 -144 78c-27 32 -60 163 -62 194c-1 9 -1 22 -1 36c0 34 1 80 8 114c10 49 35 119 59 145c25 27 66 65 139 67h5c62 0 100 -25 130 -69
c33 -46 60 -113 63 -144c4 -33 10 -80 10 -112zM388 310v15c0 100 -31 151 -47 177c-17 28 -59 49 -90 49c-48 0 -78 -29 -110 -80c-15 -27 -24 -54 -29 -80c-4 -25 -5 -49 -6 -70c-1 -5 -1 -11 -1 -16c0 -19 2 -38 6 -59l22 -100c16 -73 66 -91 111 -91c6 0 11 0 17 1
c25 2 43 11 56 23s23 25 34 38c23 29 33 86 37 193z" />
    <glyph glyph-name="one" unicode="1" horiz-adv-x="496" 
d="M302 572v-8c-4 -43 -11 -174 -11 -245c0 -70 4 -275 4 -293c0 -7 0 -16 -4 -23c-5 -6 -12 -12 -33 -12c-31 0 -38 10 -38 25c0 4 1 8 1 13c5 27 10 207 10 292v42v106v26v8c0 26 -8 33 -47 35c-28 2 -35 3 -35 23v8c2 25 7 37 32 37c6 0 12 -1 20 -2c21 -3 65 -8 79 -8
c5 0 12 0 16 -3c3 -2 6 -7 6 -21z" />
    <glyph glyph-name="two" unicode="2" horiz-adv-x="496" 
d="M437 24c0 -20 -1 -25 -37 -29c-8 -1 -18 -1 -29 -1c-43 0 -110 3 -152 3h-16c-47 -2 -96 -4 -146 -4c-7 0 -14 6 -14 13c0 5 3 10 8 14c12 11 38 31 64 56c26 23 53 50 69 70c16 19 39 44 62 67l55 55c20 21 69 79 69 134v7c-4 54 -17 80 -42 105c-17 17 -34 24 -57 27
l-19 1h-10c-24 0 -50 -6 -70 -26c-23 -22 -41 -57 -44 -87v-22c0 -7 -1 -15 -2 -21c-4 -9 -12 -18 -40 -18s-32 9 -33 18v3c0 4 1 10 2 16c1 8 4 16 4 22c2 25 23 91 42 110c21 21 70 66 135 66h6c60 -2 104 -28 122 -44c4 -4 12 -10 19 -18c31 -31 46 -68 46 -112v-10
c-3 -85 -45 -134 -78 -173s-99 -109 -115 -125c-8 -7 -17 -14 -25 -21c-5 -7 -11 -14 -11 -24c0 -4 1 -6 1 -10c4 -12 9 -18 23 -19h4c10 0 25 2 49 2c59 0 126 4 141 4c7 0 19 -7 19 -29z" />
    <glyph glyph-name="three" unicode="3" horiz-adv-x="496" 
d="M435 167c0 -62 -15 -93 -54 -126c-40 -35 -71 -57 -115 -57h-8c-18 0 -53 2 -77 7c-27 5 -55 15 -76 34c-44 39 -56 95 -56 116c0 16 13 24 37 24h9c7 0 15 -1 21 -4c8 -3 15 -10 18 -29c5 -26 17 -46 40 -60c5 -3 10 -6 16 -8c17 -8 36 -15 62 -15c4 0 9 0 14 1
c33 1 70 18 88 44c14 21 20 43 20 66c0 5 -1 9 -1 14c-2 26 -14 66 -40 85c-23 17 -54 26 -79 26h-13c-15 0 -23 7 -26 28v4c0 18 13 31 29 31c7 0 14 -1 21 -1c3 0 6 1 10 1c11 2 23 5 37 13c27 15 44 41 44 77v18c-6 41 -9 55 -44 72c-16 8 -29 13 -41 15
c-10 2 -21 3 -35 3h-7c-26 0 -58 -11 -72 -28c-14 -16 -25 -37 -25 -56c0 -13 -1 -27 -24 -27c-2 0 -5 1 -7 1c-33 2 -45 11 -45 33c0 3 0 7 1 10c4 32 29 73 58 98c26 24 77 37 117 37c58 0 93 -9 124 -32c31 -22 63 -78 63 -110c0 -36 -6 -77 -19 -92c-4 -4 -8 -8 -14 -11
c-15 -12 -39 -25 -39 -48c0 -28 24 -40 44 -54c20 -11 44 -38 44 -100z" />
    <glyph glyph-name="four" unicode="4" horiz-adv-x="496" 
d="M474 176c-4 -20 -8 -28 -27 -28h-16c-7 0 -15 -1 -21 -3c-14 -6 -20 -19 -20 -43c0 -42 4 -81 4 -90c0 -2 1 -5 1 -9c-1 -1 -6 -3 -25 -3h-9c-26 1 -35 5 -37 7c-1 1 -2 3 -2 5v10c0 8 3 24 4 40c0 10 1 22 1 32c0 6 0 12 -1 16v2c-2 9 -4 19 -9 26c-6 8 -15 10 -28 10
h-5c-8 -1 -15 -1 -23 -1c-20 0 -41 1 -63 1h-19c-37 -2 -89 -2 -117 -2c-14 0 -23 5 -23 15c0 5 2 12 7 19c8 13 30 39 54 65c23 26 46 51 55 63c17 24 78 113 99 141c11 13 28 35 45 57c16 20 31 42 37 56c10 26 37 55 50 55c9 0 10 -2 10 -13v-24c-2 -42 -5 -157 -6 -212
c-1 -18 -1 -37 -1 -55c0 -35 1 -67 1 -80c0 -24 25 -27 49 -27c13 0 35 -11 35 -30zM342 362c0 14 0 29 -1 41c-2 12 -8 26 -22 26c-17 -1 -33 -19 -45 -37c-13 -17 -24 -37 -33 -51c-5 -5 -10 -12 -15 -19c-19 -21 -39 -42 -55 -66c-7 -10 -11 -20 -11 -28c0 -4 1 -8 4 -12
c7 -8 18 -10 27 -12c10 -3 24 -3 40 -3h60c22 0 36 5 42 17c3 6 3 12 3 17v16c2 23 6 84 6 111z" />
    <glyph glyph-name="five" unicode="5" horiz-adv-x="496" 
d="M441 573l-2 -22c-1 -5 -2 -9 -3 -11c-3 -4 -7 -9 -23 -9c-32 0 -107 5 -128 5s-49 0 -58 -34c-2 -13 -6 -26 -8 -36c-3 -12 -5 -22 -5 -30s-1 -13 -2 -16c0 -2 -1 -4 -1 -5c0 -4 2 -7 4 -9c1 -2 5 -5 14 -5c4 0 11 1 21 1c27 0 97 -21 115 -39l20 -21
c29 -32 54 -73 54 -123c0 -70 -11 -135 -58 -173c-50 -40 -97 -60 -157 -61h-3c-40 0 -72 16 -103 38c-9 7 -17 13 -23 18c-27 21 -55 65 -63 83c-1 2 -1 5 -1 7c0 9 7 16 29 28c11 6 18 9 24 9c7 0 13 -6 19 -19c7 -16 13 -30 20 -43c7 -11 15 -22 27 -29
c20 -12 45 -23 81 -23c37 0 73 8 102 33c30 26 40 58 43 109c1 6 1 12 1 17c0 18 -3 31 -8 43c-7 14 -18 25 -28 36c-21 27 -43 46 -89 50c-6 0 -11 1 -16 1c-39 0 -75 -12 -90 -24c-5 -3 -12 -6 -20 -6c-7 0 -13 3 -13 13c0 2 0 5 2 10c13 42 39 113 45 135l16 55
c6 21 12 44 13 53c2 13 16 26 29 26c18 0 92 -1 145 -1c18 0 37 1 58 1c10 0 20 -10 20 -32z" />
    <glyph glyph-name="six" unicode="6" horiz-adv-x="496" 
d="M450 198v-10c-6 -63 -12 -114 -56 -151c-43 -36 -83 -55 -134 -55h-7c-56 3 -106 14 -141 45c-36 32 -69 102 -69 144c0 43 33 127 57 157c12 16 29 41 45 64c7 13 15 24 22 34s13 19 19 25c21 25 72 94 85 112c8 9 15 18 25 25s25 13 45 13c16 0 33 -3 33 -13
c0 -4 -3 -10 -8 -17c-15 -17 -27 -34 -40 -48c-12 -15 -23 -27 -35 -39c-21 -18 -64 -61 -70 -91c2 -20 16 -24 30 -25h5c8 0 16 1 25 1c4 0 8 -1 12 -1c30 -3 79 -22 97 -41c18 -18 60 -74 60 -129zM391 174v16c0 24 -7 46 -27 76c-26 38 -85 60 -117 60
c-37 0 -54 -14 -82 -32c-29 -19 -59 -61 -61 -103v-5c0 -38 15 -66 31 -93c17 -32 61 -45 106 -45c47 0 84 16 109 33c26 18 36 67 41 93z" />
    <glyph glyph-name="seven" unicode="7" horiz-adv-x="496" 
d="M471 565c-24 -30 -110 -192 -140 -249c-29 -60 -81 -140 -100 -175c-8 -17 -21 -41 -35 -64c-12 -22 -24 -44 -29 -57l-6 -16c-1 -4 -2 -6 -4 -7s-7 -4 -21 -4c-4 0 -9 0 -14 1c-26 1 -37 5 -37 16c0 6 3 14 11 26c24 37 70 123 88 155c17 30 76 143 87 160
c12 19 77 113 85 126l6 8c10 9 11 10 11 10c4 5 10 12 10 21c0 2 -1 5 -2 7c-4 12 -16 17 -39 17c-6 0 -11 0 -18 -1c-34 -4 -72 -4 -114 -4h-140c-9 0 -19 12 -19 28c0 3 0 6 1 8c4 17 9 25 39 27c10 1 21 1 35 1c35 0 80 -2 122 -2c13 0 25 1 37 1h28c24 0 48 0 71 -1
c12 -1 25 -1 36 -1c16 0 29 1 37 2h5c10 0 19 -4 19 -13c0 -5 -4 -13 -10 -20z" />
    <glyph glyph-name="eight" unicode="8" horiz-adv-x="496" 
d="M447 179v-7c-1 -35 -9 -88 -41 -119c-35 -32 -92 -68 -141 -68c-51 0 -111 25 -139 54c-28 30 -56 98 -56 139s19 85 36 101c10 8 21 14 32 21c9 6 22 16 22 30s-9 22 -19 31c-9 6 -17 13 -25 21c-15 19 -27 46 -27 82v7c2 38 21 80 55 104c33 23 74 36 107 36h7
c58 -3 108 -23 131 -52c24 -30 35 -63 35 -93c0 -29 -17 -67 -31 -84c-7 -8 -16 -16 -22 -22c-6 -7 -13 -16 -13 -26c0 -8 8 -18 22 -28c11 -9 23 -17 32 -28c19 -22 35 -67 35 -99zM365 441v6c0 18 -7 44 -24 66c-19 26 -38 33 -78 36h-5c-23 0 -53 -16 -69 -27
c-18 -13 -34 -44 -38 -74c-1 -3 -1 -6 -1 -8c0 -29 19 -49 33 -62c18 -16 56 -21 82 -21c27 0 58 14 71 28c14 13 26 40 29 56zM388 178c0 26 -2 52 -26 78c-24 25 -72 42 -99 43h-12c-43 0 -65 -13 -80 -32c-18 -19 -36 -60 -36 -97c0 -38 15 -65 32 -80s46 -34 101 -36h6
c24 0 41 5 54 13s21 18 31 29c19 21 29 55 29 82z" />
    <glyph glyph-name="nine" unicode="9" horiz-adv-x="496" 
d="M449 446v-9c-1 -16 -1 -30 -3 -44c0 -13 -2 -26 -5 -39c-7 -26 -19 -54 -45 -94s-61 -91 -90 -136c-30 -43 -55 -82 -61 -96c-4 -8 -9 -20 -17 -27c-7 -5 -18 -9 -42 -9c-29 0 -44 2 -44 11c0 3 1 7 4 12c8 11 20 27 35 45c15 16 30 35 43 51c12 17 27 35 39 50
c13 16 22 31 22 40c0 19 -19 27 -36 27c-5 0 -10 -1 -14 -2h-10c-23 0 -64 10 -89 23c-29 14 -90 89 -90 157v9c5 72 48 138 82 160c34 21 78 36 119 36h7c44 -3 70 -9 87 -17c18 -8 29 -18 43 -31c26 -22 65 -62 65 -117zM389 419c0 4 0 9 -1 15c-2 11 -9 26 -25 54
c-16 29 -31 43 -48 48c-9 3 -17 3 -24 4c-9 0 -17 0 -25 1h-14c-20 0 -48 -5 -85 -20c-51 -22 -54 -79 -56 -123v-4c0 -22 7 -38 17 -51c10 -12 23 -22 35 -33c25 -23 64 -38 93 -38c30 0 49 3 84 32c36 29 48 72 48 100c0 6 0 11 1 15z" />
    <glyph glyph-name="colon" unicode=":" horiz-adv-x="266" 
d="M184 243c-2 -23 -25 -58 -51 -61c-29 4 -64 27 -65 60c2 37 25 56 54 56h4c26 -1 57 -26 58 -55zM181 51c0 -31 -19 -62 -49 -62c-33 0 -58 19 -58 52v4c2 36 30 52 54 52c23 0 53 -19 53 -46z" />
    <glyph glyph-name="semicolon" unicode=";" horiz-adv-x="266" 
d="M191 243c-4 -27 -15 -52 -48 -53c-35 1 -55 27 -55 51c0 25 25 50 52 51c23 -1 51 -22 51 -49zM181 81c0 -1 3 -3 3 -6c0 -4 -3 -11 -9 -22c-28 -43 -42 -74 -52 -94c-9 -20 -23 -49 -31 -67c-5 -11 -10 -16 -26 -16c-2 0 -5 1 -9 1c-17 2 -25 5 -25 13c0 3 2 6 4 11
l36 96c6 16 20 61 24 73c2 5 21 17 42 17h4c9 -1 17 -1 24 -2s12 -3 15 -4z" />
    <glyph glyph-name="less" unicode="&#x3c;" horiz-adv-x="620" 
d="M565 491c1 -5 2 -9 2 -13c0 -10 -7 -19 -36 -27c-49 -12 -128 -43 -178 -61l-108 -39c-40 -15 -70 -27 -89 -36c-8 -4 -12 -9 -12 -14c0 -4 3 -9 12 -12l161 -73c27 -15 172 -63 234 -91c6 -4 11 -10 11 -18c0 -3 -1 -8 -5 -12l-5 -7c-2 -2 -4 -3 -6 -4
c-1 -1 -3 -1 -5 -1c-4 0 -10 1 -17 4c-14 5 -203 90 -226 99l-219 87c-27 10 -33 15 -33 36c0 17 9 21 35 30c65 22 180 62 221 77l182 72c17 7 48 23 65 23c5 0 14 -12 16 -20z" />
    <glyph glyph-name="equal" unicode="=" horiz-adv-x="620" 
d="M590 404v-4c-2 -14 -4 -26 -32 -26c-4 0 -9 0 -14 1c-49 5 -143 6 -195 6h-116c-42 0 -75 -1 -96 -3c-18 -2 -63 -7 -81 -7h-3c-9 0 -18 3 -20 23c-1 4 -2 9 -2 14s1 9 4 12c2 4 10 6 28 6h13c55 -1 144 -4 200 -4c14 0 25 0 35 1c44 1 181 3 202 3h68c5 -1 9 -13 9 -22z
M588 196c-1 -2 -2 -5 -3 -8c-1 -2 -2 -4 -4 -6s-8 -5 -21 -6h-7c-36 0 -188 4 -231 4h-9c-25 -1 -221 -5 -236 -6h-8c-22 0 -33 3 -33 20v4c2 20 5 22 25 22c25 0 242 -4 258 -6c2 0 7 -1 11 -1c41 0 151 8 219 8h21c11 0 19 -6 19 -18c0 -2 0 -4 -1 -7z" />
    <glyph glyph-name="greater" unicode="&#x3e;" horiz-adv-x="620" 
d="M567 286c0 -16 -8 -20 -35 -30c-65 -22 -180 -60 -221 -77s-162 -64 -182 -72c-18 -7 -58 -23 -64 -23c-5 0 -14 12 -17 22c-1 4 -2 7 -2 11c0 10 7 19 37 27c48 12 128 43 177 62l109 40c39 14 70 25 89 35c7 3 11 8 11 13c0 4 -3 9 -11 12l-162 74
c-26 14 -171 62 -234 91c-6 4 -11 10 -11 17c0 4 1 8 5 13l5 7c2 2 4 3 6 3c2 1 4 1 7 1s8 -1 16 -3c14 -6 202 -91 225 -99l220 -88c26 -10 32 -15 32 -36z" />
    <glyph glyph-name="question" unicode="?" horiz-adv-x="456" 
d="M382 455c0 -38 -16 -108 -36 -125c-19 -15 -50 -44 -74 -47c-28 -4 -40 -15 -42 -41c-2 -21 -6 -56 -6 -78c0 -16 -8 -20 -22 -22c-2 0 -5 -1 -7 -1c-11 0 -22 4 -23 27c-1 37 -1 117 -1 130c0 9 7 28 36 29h9c31 1 60 3 81 30c24 30 28 55 28 82c0 25 -6 67 -31 85
c-11 7 -22 16 -33 21c-10 4 -21 6 -35 6h-16c-41 -4 -81 -20 -93 -46c-5 -12 -8 -23 -11 -33c-3 -24 -3 -25 -3 -26c-1 -4 -2 -8 -5 -11c-2 -2 -6 -4 -16 -4h-7c-9 1 -16 1 -22 1h-7c-3 0 -5 2 -5 5v12c0 24 10 74 37 106c28 31 78 59 133 59s96 -18 122 -51
c28 -35 49 -74 49 -108zM243 40c-5 -34 -21 -52 -44 -52c-24 0 -47 20 -47 47v3c3 30 15 49 47 49c28 0 45 -14 45 -38c0 -3 0 -6 -1 -9z" />
    <glyph glyph-name="at" unicode="@" horiz-adv-x="777" 
d="M730 365c0 -26 -14 -49 -19 -74l-3 -11c-7 -38 -15 -74 -36 -107c-16 -24 -38 -37 -56 -52c-24 -20 -48 -29 -76 -29c-32 0 -54 9 -69 32c-8 10 -13 14 -19 14c-9 0 -19 -10 -36 -25c-19 -17 -42 -23 -64 -23c-33 0 -65 9 -87 36c-24 27 -29 66 -29 111c0 28 1 54 10 79
c10 30 25 57 46 84c15 19 28 38 44 50c25 18 55 18 83 18h17c14 0 28 -1 38 -11c7 -8 15 -11 22 -11s15 4 23 10c17 14 32 25 46 25c9 0 17 -5 24 -18c5 -10 7 -17 7 -23c0 -23 -23 -34 -32 -68c-10 -36 -22 -70 -29 -102c-13 -51 -16 -84 -16 -97c0 -7 6 -13 10 -22
c7 -15 13 -21 28 -21c29 0 58 21 89 68c14 22 23 47 30 73c9 30 16 63 16 98c0 34 -3 66 -12 93c-13 39 -37 71 -68 97c-18 15 -39 22 -58 32c-38 20 -74 30 -116 30c-10 0 -19 1 -28 1c-7 0 -14 -1 -19 -1c-31 -5 -60 -19 -87 -35c-28 -15 -51 -36 -76 -61
c-15 -16 -37 -26 -49 -44c-23 -34 -34 -75 -44 -115c-6 -25 -7 -50 -7 -78v-33c0 -19 1 -36 4 -53c5 -31 14 -59 27 -86c13 -26 31 -49 52 -70c25 -25 50 -43 79 -56c37 -18 76 -24 122 -24c28 0 54 6 88 15c19 5 38 10 55 18c29 13 56 19 79 39c16 -3 19 -7 20 -23
c-15 -11 -33 -21 -47 -29c-26 -16 -52 -24 -77 -31c-2 0 -3 -1 -4 -1c-40 -11 -81 -20 -127 -20c-27 0 -52 2 -77 8l-8 2c-28 5 -56 11 -81 24c-27 14 -48 39 -72 62c-20 19 -36 39 -50 61c-17 26 -28 55 -36 84c-9 30 -12 61 -12 93v22c0 21 0 42 4 62c7 30 14 61 28 89
c17 36 50 63 81 95c18 19 33 39 54 53c26 17 51 33 81 43c38 14 79 22 123 22c35 0 65 -13 96 -23l11 -3c35 -11 71 -22 100 -49c10 -11 21 -23 30 -33c20 -25 23 -59 32 -88c10 -30 27 -59 27 -93zM488 376c0 18 -15 30 -24 40l-2 3c-7 9 -16 18 -30 18
c-29 0 -57 -29 -83 -83c-11 -22 -21 -43 -27 -64c-9 -31 -17 -61 -17 -90c0 -22 11 -38 22 -54c9 -13 21 -13 38 -13c19 0 34 5 49 26c12 17 23 38 33 69c9 26 15 49 20 69c9 34 21 59 21 79z" />
    <glyph glyph-name="A" unicode="A" horiz-adv-x="613" 
d="M588 10c0 -5 -2 -10 -21 -12c-7 -1 -15 -2 -21 -2c-27 0 -39 13 -52 59c-9 29 -15 61 -25 87c-9 24 -24 46 -53 47c-32 -2 -99 -3 -141 -3c-18 0 -31 0 -36 1c-7 1 -14 2 -21 2c-6 0 -12 -1 -17 -2c-15 -3 -30 -13 -35 -36c-5 -18 -16 -46 -27 -72
c-10 -26 -19 -52 -21 -63c-1 -14 -15 -28 -44 -28c-8 0 -41 1 -41 16c0 11 17 46 44 99c28 53 62 118 89 182c26 64 65 149 93 219c14 35 22 66 31 87c9 23 16 30 28 30s18 -20 26 -41c0 -1 1 -2 1 -3c9 -27 16 -57 22 -71c12 -28 84 -188 99 -223c16 -35 61 -142 67 -159
c6 -19 29 -66 42 -86c4 -7 12 -20 13 -28zM406 270v5c0 8 -9 27 -18 46l-13 26c-4 9 -7 16 -8 21c-3 13 -4 33 -9 52c-6 18 -17 39 -42 39c-16 0 -32 -24 -39 -45l-47 -123c-3 -6 -4 -12 -4 -17c0 -27 38 -31 98 -31c38 0 59 2 70 8c8 3 12 10 12 19z" />
    <glyph glyph-name="Aacute" unicode="&#xc1;" horiz-adv-x="613" 
d="M588 10c0 -5 -2 -10 -21 -12c-7 -1 -15 -2 -21 -2c-27 0 -39 13 -52 59c-9 29 -15 61 -25 87c-9 24 -24 46 -53 47c-32 -2 -99 -3 -141 -3c-18 0 -31 0 -36 1c-7 1 -14 2 -21 2c-6 0 -12 -1 -17 -2c-15 -3 -30 -13 -35 -36c-5 -18 -16 -46 -27 -72
c-10 -26 -19 -52 -21 -63c-1 -14 -15 -28 -44 -28c-8 0 -41 1 -41 16c0 11 17 46 44 99c28 53 62 118 89 182c26 64 65 149 93 219c14 35 22 66 31 87c9 23 16 30 28 30s18 -20 26 -41c0 -1 1 -2 1 -3c9 -27 16 -57 22 -71c12 -28 84 -188 99 -223c16 -35 61 -142 67 -159
c6 -19 29 -66 42 -86c4 -7 12 -20 13 -28zM406 270v5c0 8 -9 27 -18 46l-13 26c-4 9 -7 16 -8 21c-3 13 -4 33 -9 52c-6 18 -17 39 -42 39c-16 0 -32 -24 -39 -45l-47 -123c-3 -6 -4 -12 -4 -17c0 -27 38 -31 98 -31c38 0 59 2 70 8c8 3 12 10 12 19zM499 842
c-33 -32 -62 -49 -88 -79c-12 -15 -33 -30 -49 -46c-21 -22 -32 -36 -49 -56c-7 -9 -12 -16 -28 -16h-5c-9 1 -23 12 -23 23c0 3 1 6 4 10c41 39 105 127 120 155c12 24 20 40 60 40h13c34 -3 56 -5 56 -15c0 -5 -4 -10 -11 -16z" />
    <glyph glyph-name="Adieresis" unicode="&#xc4;" horiz-adv-x="613" 
d="M588 10c0 -5 -2 -10 -21 -12c-7 -1 -15 -2 -21 -2c-27 0 -39 13 -52 59c-9 29 -15 61 -25 87c-9 24 -24 46 -53 47c-32 -2 -99 -3 -141 -3c-18 0 -31 0 -36 1c-7 1 -14 2 -21 2c-6 0 -12 -1 -17 -2c-15 -3 -30 -13 -35 -36c-5 -18 -16 -46 -27 -72
c-10 -26 -19 -52 -21 -63c-1 -14 -15 -28 -44 -28c-8 0 -41 1 -41 16c0 11 17 46 44 99c28 53 62 118 89 182c26 64 65 149 93 219c14 35 22 66 31 87c9 23 16 30 28 30s18 -20 26 -41c0 -1 1 -2 1 -3c9 -27 16 -57 22 -71c12 -28 84 -188 99 -223c16 -35 61 -142 67 -159
c6 -19 29 -66 42 -86c4 -7 12 -20 13 -28zM406 270v5c0 8 -9 27 -18 46l-13 26c-4 9 -7 16 -8 21c-3 13 -4 33 -9 52c-6 18 -17 39 -42 39c-16 0 -32 -24 -39 -45l-47 -123c-3 -6 -4 -12 -4 -17c0 -27 38 -31 98 -31c38 0 59 2 70 8c8 3 12 10 12 19zM456 728
c0 -31 -19 -62 -49 -62c-33 0 -58 19 -58 52v4c2 36 30 52 54 52c23 0 53 -19 53 -46zM283 721c-1 -23 -25 -58 -51 -60c-28 3 -64 27 -65 59c2 37 25 57 55 57h3c26 -2 57 -27 58 -56z" />
    <glyph glyph-name="Agrave" unicode="&#xc0;" horiz-adv-x="613" 
d="M588 10c0 -5 -2 -10 -21 -12c-7 -1 -15 -2 -21 -2c-27 0 -39 13 -52 59c-9 29 -15 61 -25 87c-9 24 -24 46 -53 47c-32 -2 -99 -3 -141 -3c-18 0 -31 0 -36 1c-7 1 -14 2 -21 2c-6 0 -12 -1 -17 -2c-15 -3 -30 -13 -35 -36c-5 -18 -16 -46 -27 -72
c-10 -26 -19 -52 -21 -63c-1 -14 -15 -28 -44 -28c-8 0 -41 1 -41 16c0 11 17 46 44 99c28 53 62 118 89 182c26 64 65 149 93 219c14 35 22 66 31 87c9 23 16 30 28 30s18 -20 26 -41c0 -1 1 -2 1 -3c9 -27 16 -57 22 -71c12 -28 84 -188 99 -223c16 -35 61 -142 67 -159
c6 -19 29 -66 42 -86c4 -7 12 -20 13 -28zM406 270l-45 369c-20 0 -36 17 -45 28c-15 19 -25 29 -46 51c-16 15 -29 33 -42 45c-29 28 -51 42 -84 73c-8 7 -11 12 -11 16c0 10 21 15 56 15h12c40 0 48 -16 60 -39c15 -28 82 -111 120 -156c3 -4 4 -7 4 -10
c0 -10 -12 -23 -385 -662c0 0 361 639 406 275c0 8 -9 27 -18 46l-13 26c-4 9 -7 16 -8 21c-3 13 -4 33 -9 52c-6 18 -17 39 -42 39c-16 0 -32 -24 -39 -45l-47 -123c-3 -6 -4 -12 -4 -17c0 -27 38 -31 98 -31c38 0 59 2 70 8c8 3 12 10 12 19z" />
    <glyph glyph-name="Atilde" unicode="&#xc3;" horiz-adv-x="613" 
d="M588 10c0 -5 -2 -10 -21 -12c-7 -1 -15 -2 -21 -2c-27 0 -39 13 -52 59c-9 29 -15 61 -25 87c-9 24 -24 46 -53 47c-32 -2 -99 -3 -141 -3c-18 0 -31 0 -36 1c-7 1 -14 2 -21 2c-6 0 -12 -1 -17 -2c-15 -3 -30 -13 -35 -36c-5 -18 -16 -46 -27 -72
c-10 -26 -19 -52 -21 -63c-1 -14 -15 -28 -44 -28c-8 0 -41 1 -41 16c0 11 17 46 44 99c28 53 62 118 89 182c26 64 65 149 93 219c14 35 22 66 31 87c9 23 16 30 28 30s18 -20 26 -41c0 -1 1 -2 1 -3c9 -27 16 -57 22 -71c12 -28 84 -188 99 -223c16 -35 61 -142 67 -159
c6 -19 29 -66 42 -86c4 -7 12 -20 13 -28zM406 270v5c0 8 -9 27 -18 46l-13 26c-4 9 -7 16 -8 21c-3 13 -4 33 -9 52c-6 18 -17 39 -42 39c-16 0 -32 -24 -39 -45l-47 -123c-3 -6 -4 -12 -4 -17c0 -27 38 -31 98 -31c38 0 59 2 70 8c8 3 12 10 12 19zM489 771
c3 -5 5 -10 5 -17c0 -17 -13 -41 -43 -68c-16 -16 -48 -23 -73 -23c-4 0 -8 0 -12 1c-23 4 -78 37 -100 51c-11 8 -27 13 -42 13c-13 0 -25 -4 -33 -14c-18 -20 -30 -36 -45 -36c-4 0 -8 2 -12 5c-6 3 -8 8 -8 15c0 17 13 42 25 57c19 24 45 37 82 37c28 0 51 -9 88 -35
c21 -16 48 -25 71 -25c18 0 34 5 44 16c19 20 30 32 39 32c5 0 9 -2 14 -9z" />
    <glyph glyph-name="Acircumflex" unicode="&#xc2;" horiz-adv-x="613" 
d="M588 10c0 -5 -2 -10 -21 -12c-7 -1 -15 -2 -21 -2c-27 0 -39 13 -52 59c-9 29 -15 61 -25 87c-9 24 -24 46 -53 47c-32 -2 -99 -3 -141 -3c-18 0 -31 0 -36 1c-7 1 -14 2 -21 2c-6 0 -12 -1 -17 -2c-15 -3 -30 -13 -35 -36c-5 -18 -16 -46 -27 -72
c-10 -26 -19 -52 -21 -63c-1 -14 -15 -28 -44 -28c-8 0 -41 1 -41 16c0 11 17 46 44 99c28 53 62 118 89 182c26 64 65 149 93 219c14 35 22 66 31 87c9 23 16 30 28 30s18 -20 26 -41c0 -1 1 -2 1 -3c9 -27 16 -57 22 -71c12 -28 84 -188 99 -223c16 -35 61 -142 67 -159
c6 -19 29 -66 42 -86c4 -7 12 -20 13 -28zM406 270v5c0 8 -9 27 -18 46l-13 26c-4 9 -7 16 -8 21c-3 13 -4 33 -9 52c-6 18 -17 39 -42 39c-16 0 -32 -24 -39 -45l-47 -123c-3 -6 -4 -12 -4 -17c0 -27 38 -31 98 -31c38 0 59 2 70 8c8 3 12 10 12 19zM512 673
c3 -4 4 -7 4 -11c0 -10 -12 -22 -25 -22c-19 0 -36 17 -44 28c-15 19 -25 29 -47 50c-15 16 -27 34 -41 46c-22 21 -32 32 -42 32s-19 -13 -42 -38c-12 -15 -33 -30 -49 -46c-21 -22 -32 -35 -49 -56c-7 -9 -12 -16 -28 -16h-5c-9 1 -23 12 -23 23c0 3 1 6 4 10
c41 40 105 128 120 155c13 24 20 40 60 40h27c38 0 47 -15 59 -37l2 -3c15 -27 81 -110 119 -155z" />
    <glyph glyph-name="Abreve" unicode="&#x102;" horiz-adv-x="613" 
d="M588 10c0 -5 -2 -10 -21 -12c-7 -1 -15 -2 -21 -2c-27 0 -39 13 -52 59c-9 29 -15 61 -25 87c-9 24 -24 46 -53 47c-32 -2 -99 -3 -141 -3c-18 0 -31 0 -36 1c-7 1 -14 2 -21 2c-6 0 -12 -1 -17 -2c-15 -3 -30 -13 -35 -36c-5 -18 -16 -46 -27 -72
c-10 -26 -19 -52 -21 -63c-1 -14 -15 -28 -44 -28c-8 0 -41 1 -41 16c0 11 17 46 44 99c28 53 62 118 89 182c26 64 65 149 93 219c14 35 22 66 31 87c9 23 16 30 28 30s18 -20 26 -41c0 -1 1 -2 1 -3c9 -27 16 -57 22 -71c12 -28 84 -188 99 -223c16 -35 61 -142 67 -159
c6 -19 29 -66 42 -86c4 -7 12 -20 13 -28zM406 270v5c0 8 -9 27 -18 46l-13 26c-4 9 -7 16 -8 21c-3 13 -4 33 -9 52c-6 18 -17 39 -42 39c-16 0 -32 -24 -39 -45l-47 -123c-3 -6 -4 -12 -4 -17c0 -27 38 -31 98 -31c38 0 59 2 70 8c8 3 12 10 12 19zM463 810
c0 -33 -7 -61 -26 -80c-41 -42 -88 -62 -119 -62c-32 0 -85 5 -116 30c-31 24 -53 62 -53 102c0 22 12 31 25 31c12 0 27 -8 31 -23c6 -24 9 -41 21 -58c20 -27 38 -32 63 -32c6 0 12 1 18 1c3 0 5 1 8 1c27 2 48 3 69 30c21 28 23 18 23 49c0 25 14 35 27 35
c14 0 28 -10 29 -24z" />
    <glyph glyph-name="Amacron" unicode="&#x100;" horiz-adv-x="613" 
d="M588 10c0 -5 -2 -10 -21 -12c-7 -1 -15 -2 -21 -2c-27 0 -39 13 -52 59c-9 29 -15 61 -25 87c-9 24 -24 46 -53 47c-32 -2 -99 -3 -141 -3c-18 0 -31 0 -36 1c-7 1 -14 2 -21 2c-6 0 -12 -1 -17 -2c-15 -3 -30 -13 -35 -36c-5 -18 -16 -46 -27 -72
c-10 -26 -19 -52 -21 -63c-1 -14 -15 -28 -44 -28c-8 0 -41 1 -41 16c0 11 17 46 44 99c28 53 62 118 89 182c26 64 65 149 93 219c14 35 22 66 31 87c9 23 16 30 28 30s18 -20 26 -41c0 -1 1 -2 1 -3c9 -27 16 -57 22 -71c12 -28 84 -188 99 -223c16 -35 61 -142 67 -159
c6 -19 29 -66 42 -86c4 -7 12 -20 13 -28zM406 270v5c0 8 -9 27 -18 46l-13 26c-4 9 -7 16 -8 21c-3 13 -4 33 -9 52c-6 18 -17 39 -42 39c-16 0 -32 -24 -39 -45l-47 -123c-3 -6 -4 -12 -4 -17c0 -27 38 -31 98 -31c38 0 59 2 70 8c8 3 12 10 12 19zM495 723
c0 -4 -1 -9 -2 -13c0 -3 -1 -7 -2 -9c-2 -4 -5 -8 -14 -9c-10 -2 -125 -4 -143 -4c-6 0 -32 -1 -64 -1c-54 0 -125 1 -131 2c-16 4 -21 9 -21 21c0 4 1 9 2 16c4 30 11 37 25 37c17 0 182 -3 192 -5c20 -3 145 -5 153 -5c1 0 6 -6 6 -20c0 -4 -1 -6 -1 -10z" />
    <glyph glyph-name="Aring" unicode="&#xc5;" horiz-adv-x="613" 
d="M589 10c0 -3 0 -9 -22 -12c-7 -1 -15 -2 -21 -2c-27 0 -39 13 -52 59c-8 29 -15 61 -25 87c-9 24 -24 46 -53 47c-32 -2 -99 -3 -141 -3c-18 0 -31 0 -36 1c-7 1 -14 2 -21 2c-6 0 -11 -1 -17 -2c-15 -3 -30 -13 -35 -36c-5 -18 -16 -46 -26 -72s-20 -52 -22 -63
c-1 -14 -15 -28 -44 -28c-8 0 -41 1 -41 15c0 10 17 45 45 100c27 53 61 118 88 182c26 64 65 150 94 219l17 51c2 5 3 9 3 12c0 8 -4 12 -10 14c-19 5 -34 14 -44 22c-22 19 -48 62 -48 104c0 44 16 74 36 94s47 46 108 46h4c38 -1 70 -18 90 -39s43 -55 43 -101v-5
c-2 -49 -8 -61 -37 -92c-21 -23 -34 -32 -56 -36c-10 -2 -15 -8 -15 -18c0 -3 1 -7 3 -11c9 -28 7 -25 13 -39c12 -28 84 -188 99 -223c16 -35 61 -142 67 -159c6 -19 30 -66 42 -86c4 -7 13 -20 14 -28zM407 710c0 11 -2 20 -6 27c-3 8 -8 15 -14 24c-13 22 -35 30 -64 30
c-19 0 -37 -2 -61 -19c-23 -17 -26 -40 -26 -63c0 -24 5 -39 21 -58c17 -20 31 -26 59 -30h8c17 0 34 7 49 17l12 8c14 11 22 42 22 64zM406 270v5c0 8 -9 27 -18 46c-4 9 -9 18 -12 26c-5 9 -8 16 -9 21c-3 13 -4 33 -9 52c-5 18 -17 39 -42 39c-16 0 -31 -24 -39 -45
s-35 -93 -46 -123c-3 -6 -5 -12 -5 -17c0 -27 38 -31 98 -31c38 0 59 2 70 8c8 3 12 10 12 19z" />
    <glyph glyph-name="Aogonek" unicode="&#x104;" horiz-adv-x="613" 
d="M406 270v5c0 8 -9 27 -18 46l-13 26c-4 9 -7 16 -8 21c-3 13 -4 33 -9 52c-6 18 -17 39 -42 39c-16 0 -32 -24 -39 -45l-47 -123c-3 -6 -4 -12 -4 -17c0 -27 38 -31 98 -31c38 0 59 2 70 8c8 3 12 10 12 19zM477 -118c0 -19 21 -40 46 -40c23 0 40 -1 49 -5
c6 -3 8 -8 8 -15c0 -9 -2 -14 -9 -18c-9 -6 -27 -8 -53 -8c-40 0 -73 26 -83 43c-7 10 -9 25 -9 39c0 13 3 25 5 35c8 29 37 59 77 88c2 1 4 5 4 8c0 2 -1 3 -1 5c-6 9 -12 22 -18 41c-8 29 -14 61 -24 87c-10 24 -24 47 -53 47c-32 -2 -99 -3 -141 -3c-18 0 -31 0 -36 1
c-7 1 -14 2 -21 2c-6 0 -12 -1 -17 -2c-15 -3 -30 -13 -35 -36c-5 -18 -16 -46 -27 -72c-10 -26 -19 -52 -21 -63c-1 -14 -15 -28 -44 -28c-32 0 -40 10 -41 16c0 11 17 46 44 99c28 53 62 118 89 182c26 64 65 149 93 219c14 35 22 66 31 87c9 23 16 30 28 30
s18 -20 26 -41c0 -1 1 -2 1 -3c9 -27 16 -57 22 -71c12 -28 84 -188 99 -223c16 -35 61 -142 67 -159c6 -19 29 -66 42 -86c4 -7 13 -20 13 -27c0 -5 -1 -8 -12 -15c-34 -20 -67 -40 -85 -72c-9 -16 -14 -31 -14 -42z" />
    <glyph glyph-name="AE" unicode="&#xc6;" horiz-adv-x="811" 
d="M760 571c0 -18 -9 -33 -25 -33c-24 0 -104 6 -125 6h-74c-20 0 -32 -8 -32 -36c0 -23 -3 -95 -4 -106c0 -2 -1 -5 -1 -7c0 -14 5 -34 32 -34c24 0 85 2 106 2s88 -3 108 -3c7 0 11 -7 11 -15v-7s-1 -7 -1 -12c0 -12 -2 -18 -14 -18c-28 0 -89 -4 -104 -4
c-8 0 -31 2 -53 5c-18 1 -36 3 -46 3c-3 0 -6 -1 -7 -1c-15 -2 -35 -11 -35 -44v-3c2 -29 4 -76 4 -92c0 -7 1 -21 1 -35c0 -7 1 -13 1 -19c0 -5 -1 -10 -1 -12v-5c0 -19 15 -40 52 -40c35 0 103 4 119 4s57 -6 69 -6c5 0 11 -8 15 -22c0 -4 2 -10 2 -16
c0 -10 -4 -20 -23 -20c-39 0 -125 -2 -164 -2c-40 0 -92 -2 -108 -2c-7 0 -17 0 -22 4c-5 2 -9 7 -9 21v7c3 27 5 85 8 132v6c0 14 -4 21 -25 21c-32 -1 -69 -2 -96 -2c-17 0 -29 0 -34 1c-7 1 -14 2 -21 2c-6 0 -12 -1 -18 -2c-15 -3 -32 -13 -43 -36
c-9 -18 -27 -46 -43 -72s-32 -52 -35 -63c-5 -14 -23 -28 -51 -28c-32 0 -38 10 -38 14c1 9 27 45 68 101c39 53 89 118 130 182s100 149 144 219c22 35 28 42 43 64c6 11 12 18 17 23c2 9 8 13 18 13c25 0 134 -3 161 -3h70c28 0 53 -1 59 -3c10 -2 14 -8 14 -27zM446 296
v105c0 11 1 23 1 32c0 15 -4 26 -22 26c-17 0 -38 -24 -50 -45l-75 -123c-6 -9 -9 -16 -9 -22c0 -23 35 -26 91 -26c13 0 24 0 33 1c28 1 31 31 31 52z" />
    <glyph glyph-name="AEacute" unicode="&#x1fc;" horiz-adv-x="811" 
d="M760 571c0 -18 -9 -33 -25 -33c-24 0 -104 6 -125 6h-74c-20 0 -32 -8 -32 -36c0 -23 -3 -95 -4 -106c0 -2 -1 -5 -1 -7c0 -14 5 -34 32 -34c24 0 85 2 106 2s88 -3 108 -3c7 0 11 -7 11 -15v-7s-1 -7 -1 -12c0 -12 -2 -18 -14 -18c-28 0 -89 -4 -104 -4
c-8 0 -31 2 -53 5c-18 1 -36 3 -46 3c-3 0 -6 -1 -7 -1c-15 -2 -35 -11 -35 -44v-3c2 -29 4 -76 4 -92c0 -7 1 -21 1 -35c0 -7 1 -13 1 -19c0 -5 -1 -10 -1 -12v-5c0 -19 15 -40 52 -40c35 0 103 4 119 4s57 -6 69 -6c5 0 11 -8 15 -22c0 -4 2 -10 2 -16
c0 -10 -4 -20 -23 -20c-39 0 -125 -2 -164 -2c-40 0 -92 -2 -108 -2c-7 0 -17 0 -22 4c-5 2 -9 7 -9 21v7c3 27 5 85 8 132v6c0 14 -4 21 -25 21c-32 -1 -69 -2 -96 -2c-17 0 -29 0 -34 1c-7 1 -14 2 -21 2c-6 0 -12 -1 -18 -2c-15 -3 -32 -13 -43 -36
c-9 -18 -27 -46 -43 -72s-32 -52 -35 -63c-5 -14 -23 -28 -51 -28c-32 0 -38 10 -38 14c1 9 27 45 68 101c39 53 89 118 130 182s100 149 144 219c22 35 28 42 43 64c6 11 12 18 17 23c2 9 8 13 18 13c25 0 134 -3 161 -3h70c28 0 53 -1 59 -3c10 -2 14 -8 14 -27zM446 296
v105c0 11 1 23 1 32c0 15 -4 26 -22 26c-17 0 -38 -24 -50 -45l-75 -123c-6 -9 -9 -16 -9 -22c0 -23 35 -26 91 -26c13 0 24 0 33 1c28 1 31 31 31 52zM645 842c-33 -32 -62 -49 -88 -79c-12 -15 -33 -30 -49 -46c-21 -22 -32 -36 -49 -56c-7 -9 -12 -16 -28 -16h-5
c-9 1 -23 12 -23 23c0 3 1 6 4 10c41 39 105 127 120 155c12 24 20 40 60 40h13c34 -3 56 -5 56 -15c0 -5 -4 -10 -11 -16z" />
    <glyph glyph-name="B" unicode="B" horiz-adv-x="492" 
d="M452 178v-3c-1 -65 -25 -115 -55 -136c-31 -23 -78 -38 -141 -38c-44 0 -85 1 -114 1c-15 0 -27 0 -36 -1h-8c-10 0 -14 4 -14 25v10c2 27 6 165 6 235c0 45 1 133 1 198c0 32 0 58 -1 71c0 10 -3 19 -4 28c-2 8 -3 15 -3 20c1 6 3 13 32 13c61 0 161 -4 194 -18
c35 -16 102 -55 102 -120v-12c0 -57 -22 -72 -39 -82c-20 -12 -31 -26 -31 -43c0 -9 10 -17 21 -24c10 -6 23 -11 33 -16c16 -9 57 -47 57 -108zM339 491c-13 26 -42 36 -68 40c-26 5 -54 3 -70 4h-6c-21 0 -34 -4 -40 -13c-4 -6 -5 -12 -5 -19v-10c0 -20 -4 -70 -6 -107v-6
c0 -18 7 -29 20 -35c7 -3 14 -4 22 -6l25 -3h13c36 0 72 15 105 39c21 15 29 33 29 53c0 19 -7 41 -19 63zM393 174v8c0 49 -36 74 -73 86c-21 7 -43 10 -61 13c-19 2 -35 2 -46 4c-4 0 -8 1 -12 1c-37 0 -55 -20 -59 -41c-2 -13 -3 -43 -3 -76c0 -21 0 -43 1 -63
c1 -43 29 -50 58 -50h18l34 3c55 4 135 10 143 115z" />
    <glyph glyph-name="C" unicode="C" horiz-adv-x="625" 
d="M571 116v-20v-17c0 -11 -2 -17 -8 -20c-4 -3 -12 -9 -22 -17c-52 -35 -110 -52 -173 -52h-8c-119 4 -191 56 -227 96c-35 40 -85 127 -85 202c0 3 1 8 1 12c6 79 37 187 91 227c54 41 138 83 228 83h8c89 -2 155 -36 176 -58c12 -11 15 -18 17 -23c1 -3 1 -6 1 -9v-13
v-17c0 -6 0 -11 -1 -15c-1 -2 -1 -4 -3 -4c0 0 -2 2 -5 4c-25 19 -85 63 -129 70c-14 1 -35 3 -59 3c-45 0 -99 -6 -133 -26c-49 -29 -132 -116 -132 -209c0 -3 1 -7 1 -10c6 -93 32 -132 62 -165c30 -32 75 -79 194 -79c59 0 101 13 132 28c16 8 29 16 39 24l21 16
c5 4 9 6 11 6c3 0 4 -2 4 -7c0 -3 0 -6 -1 -10z" />
    <glyph glyph-name="Cacute" unicode="&#x106;" horiz-adv-x="625" 
d="M571 116v-20v-17c0 -11 -2 -17 -8 -20c-4 -3 -12 -9 -22 -17c-52 -35 -110 -52 -173 -52h-8c-119 4 -191 56 -227 96c-35 40 -85 127 -85 202c0 3 1 8 1 12c6 79 37 187 91 227c54 41 138 83 228 83h8c89 -2 155 -36 176 -58c12 -11 15 -18 17 -23c1 -3 1 -6 1 -9v-13
v-17c0 -6 0 -11 -1 -15c-1 -2 -1 -4 -3 -4c0 0 -2 2 -5 4c-25 19 -85 63 -129 70c-14 1 -35 3 -59 3c-45 0 -99 -6 -133 -26c-49 -29 -132 -116 -132 -209c0 -3 1 -7 1 -10c6 -93 32 -132 62 -165c30 -32 75 -79 194 -79c59 0 101 13 132 28c16 8 29 16 39 24l21 16
c5 4 9 6 11 6c3 0 4 -2 4 -7c0 -3 0 -6 -1 -10zM550 842c-33 -32 -62 -49 -88 -79c-12 -15 -33 -30 -49 -46c-21 -22 -32 -36 -49 -56c-7 -9 -12 -16 -28 -16h-5c-9 1 -23 12 -23 23c0 3 1 6 4 10c41 39 105 127 120 155c12 24 20 40 60 40h13c34 -3 56 -5 56 -15
c0 -5 -4 -10 -11 -16z" />
    <glyph glyph-name="Ccaron" unicode="&#x10c;" horiz-adv-x="625" 
d="M560 844c-40 -40 -105 -128 -120 -157c-12 -23 -20 -39 -60 -39c-4 0 -8 1 -14 1c-5 0 -9 -1 -12 -1c-41 0 -49 16 -61 39c-15 29 -81 111 -119 157c-4 3 -4 7 -4 10c0 11 11 23 24 23c19 0 36 -17 45 -29c15 -18 25 -29 46 -51c16 -15 28 -32 42 -45
c22 -21 32 -32 41 -32s17 8 31 25l1 2l10 11c13 14 34 30 50 46c22 23 30 38 48 56c7 10 13 17 31 17h3c9 -1 23 -13 23 -24c0 -3 -1 -6 -5 -9zM571 116v-20v-17c0 -11 -2 -17 -8 -20c-4 -3 -12 -9 -22 -17c-52 -35 -110 -52 -173 -52h-8c-119 4 -191 56 -227 96
c-35 40 -85 127 -85 202c0 3 1 8 1 12c6 79 37 187 91 227c54 41 138 83 228 83h8c89 -2 155 -36 176 -58c12 -11 15 -18 17 -23c1 -3 1 -6 1 -9v-13v-17c0 -6 0 -11 -1 -15c-1 -2 -1 -4 -3 -4c0 0 -2 2 -5 4c-25 19 -85 63 -129 70c-14 1 -35 3 -59 3
c-45 0 -99 -6 -133 -26c-49 -29 -132 -116 -132 -209c0 -3 1 -7 1 -10c6 -93 32 -132 62 -165c30 -32 75 -79 194 -79c59 0 101 13 132 28c16 8 29 16 39 24l21 16c5 4 9 6 11 6c3 0 4 -2 4 -7c0 -3 0 -6 -1 -10z" />
    <glyph glyph-name="Ccircumflex" unicode="&#x108;" horiz-adv-x="625" 
d="M571 116v-20v-17c0 -11 -2 -17 -8 -20c-4 -3 -12 -9 -22 -17c-52 -35 -110 -52 -173 -52h-8c-119 4 -191 56 -227 96c-35 40 -85 127 -85 202c0 3 1 8 1 12c6 79 37 187 91 227c54 41 138 83 228 83h8c89 -2 155 -36 176 -58c12 -11 15 -18 17 -23c1 -3 1 -6 1 -9v-13
v-17c0 -6 0 -11 -1 -15c-1 -2 -1 -4 -3 -4c0 0 -2 2 -5 4c-25 19 -85 63 -129 70c-14 1 -35 3 -59 3c-45 0 -99 -6 -133 -26c-49 -29 -132 -116 -132 -209c0 -3 1 -7 1 -10c6 -93 32 -132 62 -165c30 -32 75 -79 194 -79c59 0 101 13 132 28c16 8 29 16 39 24l21 16
c5 4 9 6 11 6c3 0 4 -2 4 -7c0 -3 0 -6 -1 -10zM561 673c3 -4 4 -7 4 -11c0 -10 -12 -22 -25 -22c-19 0 -36 17 -44 28c-15 19 -25 29 -47 50c-15 16 -27 34 -41 46c-22 21 -32 32 -42 32s-19 -13 -42 -38c-12 -15 -33 -30 -49 -46c-21 -22 -32 -35 -49 -56
c-7 -9 -12 -16 -28 -16h-5c-9 1 -23 12 -23 23c0 3 1 6 4 10c41 40 105 128 120 155c13 24 20 40 60 40h27c38 0 47 -15 59 -37l2 -3c15 -27 81 -110 119 -155z" />
    <glyph glyph-name="Cdotaccent" unicode="&#x10a;" horiz-adv-x="625" 
d="M571 116v-20v-17c0 -11 -2 -17 -8 -20c-4 -3 -12 -9 -22 -17c-52 -35 -110 -52 -173 -52h-8c-119 4 -191 56 -227 96c-35 40 -85 127 -85 202c0 3 1 8 1 12c6 79 37 187 91 227c54 41 138 83 228 83h8c89 -2 155 -36 176 -58c12 -11 15 -18 17 -23c1 -3 1 -6 1 -9v-13
v-17c0 -6 0 -11 -1 -15c-1 -2 -1 -4 -3 -4c0 0 -2 2 -5 4c-25 19 -85 63 -129 70c-14 1 -35 3 -59 3c-45 0 -99 -6 -133 -26c-49 -29 -132 -116 -132 -209c0 -3 1 -7 1 -10c6 -93 32 -132 62 -165c30 -32 75 -79 194 -79c59 0 101 13 132 28c16 8 29 16 39 24l21 16
c5 4 9 6 11 6c3 0 4 -2 4 -7c0 -3 0 -6 -1 -10zM430 731c-1 -42 -37 -73 -60 -73c-30 0 -66 35 -67 66c2 33 23 60 76 60c29 0 51 -21 51 -53z" />
    <glyph glyph-name="Ccedilla" unicode="&#xc7;" horiz-adv-x="625" 
d="M571 116v-20v-17c0 -11 -2 -17 -8 -20c-4 -3 -12 -9 -22 -17c-51 -35 -109 -51 -170 -52c-11 0 -19 -26 -23 -35c-2 -4 -3 -8 -3 -11c0 -11 8 -19 21 -19c5 0 9 1 13 2c5 2 12 3 17 3c30 0 66 -19 73 -44c2 -8 3 -15 3 -23c0 -27 -14 -51 -36 -67
c-20 -15 -59 -30 -104 -30c-47 0 -75 10 -88 17c-14 8 -20 11 -20 20c0 4 2 9 5 17c6 12 10 16 14 16c5 0 9 -3 14 -5l4 -1c16 -7 44 -18 74 -19h6c31 0 74 13 79 35c0 3 1 5 1 7c0 21 -19 38 -46 43h-12c-22 0 -29 -9 -61 -12c-2 -1 -5 -1 -6 -1c-11 0 -15 5 -15 13
c0 10 8 25 15 35c5 10 31 45 31 57c0 3 -1 4 -3 4c-98 12 -159 58 -191 94c-35 40 -85 127 -85 202c0 3 1 8 1 12c6 79 37 187 91 227c54 41 138 83 228 83h8c89 -2 155 -36 176 -58c12 -11 15 -18 17 -23c1 -3 1 -6 1 -9v-30c0 -6 0 -11 -1 -15c-1 -2 -1 -4 -3 -4
c0 0 -2 2 -5 4c-25 19 -85 63 -129 70c-14 1 -35 3 -59 3c-45 0 -99 -6 -133 -26c-49 -29 -132 -116 -132 -209c0 -3 1 -7 1 -10c6 -93 32 -132 62 -165c30 -32 75 -79 194 -79c59 0 101 13 132 28c16 8 29 16 39 24l21 16c5 4 9 6 11 6c3 0 4 -2 4 -7c0 -3 0 -6 -1 -10z
" />
    <glyph glyph-name="D" unicode="D" horiz-adv-x="606" 
d="M538 339v-8c-2 -80 -7 -165 -67 -226c-62 -64 -123 -94 -196 -99c-77 -6 -125 -5 -151 -6l-20 -3c-4 -1 -8 -2 -13 -2c0 0 -2 1 -3 1c-6 0 -10 0 -10 13c0 29 6 156 6 212v21c-2 29 -4 117 -4 169c0 15 0 28 1 35v18c0 37 -3 96 -5 114v10c0 12 4 18 22 18h8
c43 -4 122 -2 157 -4c35 -1 141 -19 191 -79c51 -60 84 -112 84 -184zM479 305v5c-3 53 -17 91 -60 153c-23 33 -62 51 -100 61c-36 10 -73 14 -100 17h-3h-17c-43 0 -55 -22 -55 -45v-7c2 -23 2 -148 2 -183c0 -32 -6 -116 -6 -174v-18c1 -31 13 -45 31 -49
c4 -1 8 -2 12 -2c3 0 7 0 9 1c6 0 11 1 14 1c17 0 26 2 66 8c41 6 89 22 135 57c46 34 72 122 72 175z" />
    <glyph glyph-name="Dcaron" unicode="&#x10e;" horiz-adv-x="606" 
d="M496 855c-40 -40 -105 -128 -120 -157c-12 -23 -20 -39 -60 -39c-4 0 -8 1 -14 1c-5 0 -9 -1 -12 -1c-41 0 -49 16 -61 39c-15 29 -81 111 -119 157c-4 3 -4 7 -4 10c0 11 11 23 24 23c19 0 36 -17 45 -29c15 -18 25 -29 46 -51c16 -15 28 -32 42 -45
c22 -21 32 -32 41 -32s17 8 31 25l1 2l10 11c13 14 34 30 50 46c22 23 30 38 48 56c7 10 13 17 31 17h3c9 -1 23 -13 23 -24c0 -3 -1 -6 -5 -9zM538 339v-8c-2 -80 -7 -165 -67 -226c-62 -64 -123 -94 -196 -99c-77 -6 -125 -5 -151 -6l-20 -3c-4 -1 -8 -2 -13 -2
c0 0 -2 1 -3 1c-6 0 -10 0 -10 13c0 29 6 156 6 212v21c-2 29 -4 117 -4 169c0 15 0 28 1 35v18c0 37 -3 96 -5 114v10c0 12 4 18 22 18h8c43 -4 122 -2 157 -4c35 -1 141 -19 191 -79c51 -60 84 -112 84 -184zM479 305v5c-3 53 -17 91 -60 153c-23 33 -62 51 -100 61
c-36 10 -73 14 -100 17h-3h-17c-43 0 -55 -22 -55 -45v-7c2 -23 2 -148 2 -183c0 -32 -6 -116 -6 -174v-18c1 -31 13 -45 31 -49c4 -1 8 -2 12 -2c3 0 7 0 9 1c6 0 11 1 14 1c17 0 26 2 66 8c41 6 89 22 135 57c46 34 72 122 72 175z" />
    <glyph glyph-name="Eth" unicode="&#xd0;" horiz-adv-x="606" 
d="M538 339v-8c-2 -80 -7 -165 -67 -226c-62 -64 -123 -94 -196 -99c-77 -6 -125 -5 -151 -6l-20 -3c-4 -1 -8 -2 -13 -2c0 0 -2 1 -3 1c-6 0 -10 0 -10 13c0 29 6 156 6 212v28c0 5 -1 11 -5 15c-3 2 -16 2 -29 2h-14h-15c-11 5 -15 9 -15 21c0 4 0 9 1 16c4 31 8 38 17 38
c2 0 18 -3 32 -3c10 0 19 1 24 5c2 3 4 13 4 26c0 23 -3 57 -3 72v23c0 37 -3 96 -5 114v10c0 12 4 18 22 18h8c43 -4 122 -2 157 -4c35 -1 141 -19 191 -79c51 -60 84 -112 84 -184zM479 305v5c-3 53 -17 91 -60 153c-23 33 -62 51 -100 62c-38 10 -75 13 -102 16h-18
c-43 0 -55 -22 -55 -45v-26c0 -25 -1 -67 -1 -96c0 -17 1 -29 2 -30c3 -3 8 -7 9 -8c13 -3 95 0 102 -5c1 0 5 -8 5 -25v-5l-2 -13c0 -4 -1 -7 -2 -10c-1 -4 -3 -8 -9 -9c-7 -2 -82 -2 -93 -3c-1 0 -9 -1 -11 -5c-3 -5 -5 -60 -5 -106c0 -16 0 -30 1 -41
c1 -31 13 -45 31 -49c4 -1 8 -2 12 -2c3 0 7 0 9 1c6 0 11 1 14 1c17 0 26 2 66 8c41 6 91 21 135 56c48 33 72 123 72 176z" />
    <glyph glyph-name="Dcroat" unicode="&#x110;" horiz-adv-x="606" 
d="M538 339v-8c-2 -80 -7 -165 -67 -226c-62 -64 -123 -94 -196 -99c-77 -6 -125 -5 -151 -6l-20 -3c-4 -1 -8 -2 -13 -2c0 0 -2 1 -3 1c-6 0 -10 0 -10 13c0 29 6 156 6 212v28c0 5 -1 11 -5 15c-3 2 -16 2 -29 2h-14h-15c-11 5 -15 9 -15 21c0 4 0 9 1 16c4 31 8 38 17 38
c2 0 18 -3 32 -3c10 0 19 1 24 5c2 3 4 13 4 26c0 23 -3 57 -3 72v23c0 37 -3 96 -5 114v10c0 12 4 18 22 18h8c43 -4 122 -2 157 -4c35 -1 141 -19 191 -79c51 -60 84 -112 84 -184zM479 305v5c-3 53 -17 91 -60 153c-23 33 -62 51 -100 62c-38 10 -75 13 -102 16h-18
c-43 0 -55 -22 -55 -45v-26c0 -25 -1 -67 -1 -96c0 -17 1 -29 2 -30c3 -3 8 -7 9 -8c13 -3 95 0 102 -5c1 0 5 -8 5 -25v-5l-2 -13c0 -4 -1 -7 -2 -10c-1 -4 -3 -8 -9 -9c-7 -2 -82 -2 -93 -3c-1 0 -9 -1 -11 -5c-3 -5 -5 -60 -5 -106c0 -16 0 -30 1 -41
c1 -31 13 -45 31 -49c4 -1 8 -2 12 -2c3 0 7 0 9 1c6 0 11 1 14 1c17 0 26 2 66 8c41 6 91 21 135 56c48 33 72 123 72 176z" />
    <glyph glyph-name="E" unicode="E" horiz-adv-x="456" 
d="M406 571c0 -18 -10 -33 -25 -33c-24 0 -105 6 -125 6h-75c-20 0 -31 -8 -31 -36c0 -23 -3 -95 -4 -106c0 -2 -1 -5 -1 -7c0 -14 5 -34 32 -34c24 0 84 2 106 2c21 0 88 -3 107 -3c8 0 11 -8 11 -17v-5v-12c0 -12 -2 -18 -15 -18c-27 0 -88 -4 -103 -4c-7 0 -27 2 -48 4
c-2 0 -4 1 -6 1c-17 2 -35 3 -46 3c-3 0 -6 -1 -7 -1c-14 -2 -35 -11 -35 -42v-5c2 -29 5 -76 5 -92c0 -7 0 -21 1 -35c0 -7 1 -13 1 -19c0 -5 -1 -10 -1 -12v-5c0 -19 14 -40 52 -40c35 0 103 4 119 4c15 0 57 -6 68 -6c5 0 11 -8 15 -22c1 -3 3 -9 3 -15
c0 -10 -5 -21 -23 -21c-40 0 -125 -2 -165 -2c-39 0 -91 -2 -107 -2c-8 0 -17 0 -23 4c-4 1 -9 7 -9 20c0 3 1 5 1 8c4 43 8 164 12 193c1 12 2 49 2 91c0 63 -1 134 -2 153c-2 31 -4 98 -6 118v3c0 12 7 17 17 17c25 0 135 -3 162 -3h70c28 0 53 -1 59 -3
c9 -2 14 -8 14 -27z" />
    <glyph glyph-name="Eacute" unicode="&#xc9;" horiz-adv-x="456" 
d="M406 571c0 -18 -10 -33 -25 -33c-24 0 -105 6 -125 6h-75c-20 0 -31 -8 -31 -36c0 -23 -3 -95 -4 -106c0 -2 -1 -5 -1 -7c0 -14 5 -34 32 -34c24 0 84 2 106 2c21 0 88 -3 107 -3c8 0 11 -8 11 -17v-5v-12c0 -12 -2 -18 -15 -18c-27 0 -88 -4 -103 -4c-7 0 -27 2 -48 4
c-2 0 -4 1 -6 1c-17 2 -35 3 -46 3c-3 0 -6 -1 -7 -1c-14 -2 -35 -11 -35 -42v-5c2 -29 5 -76 5 -92c0 -7 0 -21 1 -35c0 -7 1 -13 1 -19c0 -5 -1 -10 -1 -12v-5c0 -19 14 -40 52 -40c35 0 103 4 119 4c15 0 57 -6 68 -6c5 0 11 -8 15 -22c1 -3 3 -9 3 -15
c0 -10 -5 -21 -23 -21c-40 0 -125 -2 -165 -2c-39 0 -91 -2 -107 -2c-8 0 -17 0 -23 4c-4 1 -9 7 -9 20c0 3 1 5 1 8c4 43 8 164 12 193c1 12 2 49 2 91c0 63 -1 134 -2 153c-2 31 -4 98 -6 118v3c0 12 7 17 17 17c25 0 135 -3 162 -3h70c28 0 53 -1 59 -3
c9 -2 14 -8 14 -27zM439 842c-33 -32 -62 -49 -88 -79c-12 -15 -33 -30 -49 -46c-21 -22 -32 -36 -49 -56c-7 -9 -12 -16 -28 -16h-5c-9 1 -23 12 -23 23c0 3 1 6 4 10c41 39 105 127 120 155c12 24 20 40 60 40h13c34 -3 56 -5 56 -15c0 -5 -4 -10 -11 -16z" />
    <glyph glyph-name="Ecircumflex" unicode="&#xca;" horiz-adv-x="456" 
d="M406 571c0 -18 -10 -33 -25 -33c-24 0 -105 6 -125 6h-75c-20 0 -31 -8 -31 -36c0 -23 -3 -95 -4 -106c0 -2 -1 -5 -1 -7c0 -14 5 -34 32 -34c24 0 84 2 106 2c21 0 88 -3 107 -3c8 0 11 -8 11 -17v-5v-12c0 -12 -2 -18 -15 -18c-27 0 -88 -4 -103 -4c-7 0 -27 2 -48 4
c-2 0 -4 1 -6 1c-17 2 -35 3 -46 3c-3 0 -6 -1 -7 -1c-14 -2 -35 -11 -35 -42v-5c2 -29 5 -76 5 -92c0 -7 0 -21 1 -35c0 -7 1 -13 1 -19c0 -5 -1 -10 -1 -12v-5c0 -19 14 -40 52 -40c35 0 103 4 119 4c15 0 57 -6 68 -6c5 0 11 -8 15 -22c1 -3 3 -9 3 -15
c0 -10 -5 -21 -23 -21c-40 0 -125 -2 -165 -2c-39 0 -91 -2 -107 -2c-8 0 -17 0 -23 4c-4 1 -9 7 -9 20c0 3 1 5 1 8c4 43 8 164 12 193c1 12 2 49 2 91c0 63 -1 134 -2 153c-2 31 -4 98 -6 118v3c0 12 7 17 17 17c25 0 135 -3 162 -3h70c28 0 53 -1 59 -3
c9 -2 14 -8 14 -27zM434 673c3 -4 4 -7 4 -11c0 -10 -12 -22 -25 -22c-19 0 -36 17 -44 28c-15 19 -25 29 -47 50c-15 16 -27 34 -41 46c-22 21 -32 32 -42 32s-19 -13 -42 -38c-12 -15 -33 -30 -49 -46c-21 -22 -32 -35 -49 -56c-7 -9 -12 -16 -28 -16h-5
c-9 1 -23 12 -23 23c0 3 1 6 4 10c41 40 105 128 120 155c13 24 20 40 60 40h27c38 0 47 -15 59 -37l2 -3c15 -27 81 -110 119 -155z" />
    <glyph glyph-name="Edieresis" unicode="&#xcb;" horiz-adv-x="456" 
d="M406 571c0 -18 -10 -33 -25 -33c-24 0 -105 6 -125 6h-75c-20 0 -31 -8 -31 -36c0 -23 -3 -95 -4 -106c0 -2 -1 -5 -1 -7c0 -14 5 -34 32 -34c24 0 84 2 106 2c21 0 88 -3 107 -3c8 0 11 -8 11 -17v-5v-12c0 -12 -2 -18 -15 -18c-27 0 -88 -4 -103 -4c-7 0 -27 2 -48 4
c-2 0 -4 1 -6 1c-17 2 -35 3 -46 3c-3 0 -6 -1 -7 -1c-14 -2 -35 -11 -35 -42v-5c2 -29 5 -76 5 -92c0 -7 0 -21 1 -35c0 -7 1 -13 1 -19c0 -5 -1 -10 -1 -12v-5c0 -19 14 -40 52 -40c35 0 103 4 119 4c15 0 57 -6 68 -6c5 0 11 -8 15 -22c1 -3 3 -9 3 -15
c0 -10 -5 -21 -23 -21c-40 0 -125 -2 -165 -2c-39 0 -91 -2 -107 -2c-8 0 -17 0 -23 4c-4 1 -9 7 -9 20c0 3 1 5 1 8c4 43 8 164 12 193c1 12 2 49 2 91c0 63 -1 134 -2 153c-2 31 -4 98 -6 118v3c0 12 7 17 17 17c25 0 135 -3 162 -3h70c28 0 53 -1 59 -3
c9 -2 14 -8 14 -27zM384 728c0 -31 -19 -62 -49 -62c-33 0 -58 19 -58 52v4c2 36 30 52 54 52c23 0 53 -19 53 -46zM211 721c-1 -23 -25 -58 -51 -60c-28 3 -64 27 -65 59c2 37 25 57 55 57h3c26 -2 57 -27 58 -56z" />
    <glyph glyph-name="Egrave" unicode="&#xc8;" horiz-adv-x="456" 
d="M406 571c0 -18 -10 -33 -25 -33c-24 0 -105 6 -125 6h-75c-20 0 -31 -8 -31 -36c0 -23 -3 -95 -4 -106c0 -2 -1 -5 -1 -7c0 -14 5 -34 32 -34c24 0 84 2 106 2c21 0 88 -3 107 -3c8 0 11 -8 11 -17v-5v-12c0 -12 -2 -18 -15 -18c-27 0 -88 -4 -103 -4c-7 0 -27 2 -48 4
c-2 0 -4 1 -6 1c-17 2 -35 3 -46 3c-3 0 -6 -1 -7 -1c-14 -2 -35 -11 -35 -42v-5c2 -29 5 -76 5 -92c0 -7 0 -21 1 -35c0 -7 1 -13 1 -19c0 -5 -1 -10 -1 -12v-5c0 -19 14 -40 52 -40c35 0 103 4 119 4c15 0 57 -6 68 -6c5 0 11 -8 15 -22c1 -3 3 -9 3 -15
c0 -10 -5 -21 -23 -21c-40 0 -125 -2 -165 -2c-39 0 -91 -2 -107 -2c-8 0 -17 0 -23 4c-4 1 -9 7 -9 20c0 3 1 5 1 8c4 43 8 164 12 193c1 12 2 49 2 91c0 63 -1 134 -2 153c-2 31 -4 98 -6 118v3c0 12 7 17 17 17c25 0 135 -3 162 -3h70c28 0 53 -1 59 -3
c9 -2 14 -8 14 -27zM266 639c-20 0 -36 17 -45 28c-15 19 -25 29 -46 51c-16 15 -29 33 -42 45c-29 28 -51 42 -84 73c-8 7 -11 12 -11 16c0 10 21 15 56 15h12c40 0 48 -16 60 -39c15 -28 82 -111 120 -156c3 -4 4 -7 4 -10c0 -10 -12 -23 -24 -23z" />
    <glyph glyph-name="Ebreve" unicode="&#x114;" horiz-adv-x="456" 
d="M406 571c0 -18 -10 -33 -25 -33c-24 0 -105 6 -125 6h-75c-20 0 -31 -8 -31 -36c0 -23 -3 -95 -4 -106c0 -2 -1 -5 -1 -7c0 -14 5 -34 32 -34c24 0 84 2 106 2c21 0 88 -3 107 -3c8 0 11 -8 11 -17v-5v-12c0 -12 -2 -18 -15 -18c-27 0 -88 -4 -103 -4c-7 0 -27 2 -48 4
c-2 0 -4 1 -6 1c-17 2 -35 3 -46 3c-3 0 -6 -1 -7 -1c-14 -2 -35 -11 -35 -42v-5c2 -29 5 -76 5 -92c0 -7 0 -21 1 -35c0 -7 1 -13 1 -19c0 -5 -1 -10 -1 -12v-5c0 -19 14 -40 52 -40c35 0 103 4 119 4c15 0 57 -6 68 -6c5 0 11 -8 15 -22c1 -3 3 -9 3 -15
c0 -10 -5 -21 -23 -21c-40 0 -125 -2 -165 -2c-39 0 -91 -2 -107 -2c-8 0 -17 0 -23 4c-4 1 -9 7 -9 20c0 3 1 5 1 8c4 43 8 164 12 193c1 12 2 49 2 91c0 63 -1 134 -2 153c-2 31 -4 98 -6 118v3c0 12 7 17 17 17c25 0 135 -3 162 -3h70c28 0 53 -1 59 -3
c9 -2 14 -8 14 -27zM408 810c0 -33 -7 -61 -26 -80c-41 -42 -88 -62 -119 -62c-32 0 -85 5 -116 30c-31 24 -53 62 -53 102c0 22 12 31 25 31c12 0 27 -8 31 -23c6 -24 9 -41 21 -58c20 -27 38 -32 63 -32c6 0 12 1 18 1c3 0 5 1 8 1c27 2 48 3 69 30c21 28 23 18 23 49
c0 25 14 35 27 35c14 0 28 -10 29 -24z" />
    <glyph glyph-name="Ecaron" unicode="&#x11a;" horiz-adv-x="456" 
d="M444 845c-40 -40 -105 -128 -120 -157c-12 -23 -20 -39 -60 -39c-4 0 -8 1 -14 1c-5 0 -9 -1 -12 -1c-41 0 -49 16 -61 39c-15 29 -81 111 -119 157c-4 3 -4 7 -4 10c0 11 11 23 24 23c19 0 36 -17 45 -29c15 -18 25 -29 46 -51c16 -15 28 -32 42 -45
c22 -21 32 -32 41 -32s17 8 31 25l1 2l10 11c13 14 34 30 50 46c22 23 30 38 48 56c7 10 13 17 31 17h3c9 -1 23 -13 23 -24c0 -3 -1 -6 -5 -9zM406 571c0 -18 -10 -33 -25 -33c-24 0 -105 6 -125 6h-75c-20 0 -31 -8 -31 -36c0 -23 -3 -95 -4 -106c0 -2 -1 -5 -1 -7
c0 -14 5 -34 32 -34c24 0 84 2 106 2c21 0 88 -3 107 -3c8 0 11 -8 11 -17v-5v-12c0 -12 -2 -18 -15 -18c-27 0 -88 -4 -103 -4c-7 0 -27 2 -48 4c-2 0 -4 1 -6 1c-17 2 -35 3 -46 3c-3 0 -6 -1 -7 -1c-14 -2 -35 -11 -35 -42v-5c2 -29 5 -76 5 -92c0 -7 0 -21 1 -35
c0 -7 1 -13 1 -19c0 -5 -1 -10 -1 -12v-5c0 -19 14 -40 52 -40c35 0 103 4 119 4c15 0 57 -6 68 -6c5 0 11 -8 15 -22c1 -3 3 -9 3 -15c0 -10 -5 -21 -23 -21c-40 0 -125 -2 -165 -2c-39 0 -91 -2 -107 -2c-8 0 -17 0 -23 4c-4 1 -9 7 -9 20c0 3 1 5 1 8c4 43 8 164 12 193
c1 12 2 49 2 91c0 63 -1 134 -2 153c-2 31 -4 98 -6 118v3c0 12 7 17 17 17c25 0 135 -3 162 -3h70c28 0 53 -1 59 -3c9 -2 14 -8 14 -27z" />
    <glyph glyph-name="Edotaccent" unicode="&#x116;" horiz-adv-x="456" 
d="M406 571c0 -18 -10 -33 -25 -33c-24 0 -105 6 -125 6h-75c-20 0 -31 -8 -31 -36c0 -23 -3 -95 -4 -106c0 -2 -1 -5 -1 -7c0 -14 5 -34 32 -34c24 0 84 2 106 2c21 0 88 -3 107 -3c8 0 11 -8 11 -17v-5v-12c0 -12 -2 -18 -15 -18c-27 0 -88 -4 -103 -4c-7 0 -27 2 -48 4
c-2 0 -4 1 -6 1c-17 2 -35 3 -46 3c-3 0 -6 -1 -7 -1c-14 -2 -35 -11 -35 -42v-5c2 -29 5 -76 5 -92c0 -7 0 -21 1 -35c0 -7 1 -13 1 -19c0 -5 -1 -10 -1 -12v-5c0 -19 14 -40 52 -40c35 0 103 4 119 4c15 0 57 -6 68 -6c5 0 11 -8 15 -22c1 -3 3 -9 3 -15
c0 -10 -5 -21 -23 -21c-40 0 -125 -2 -165 -2c-39 0 -91 -2 -107 -2c-8 0 -17 0 -23 4c-4 1 -9 7 -9 20c0 3 1 5 1 8c4 43 8 164 12 193c1 12 2 49 2 91c0 63 -1 134 -2 153c-2 31 -4 98 -6 118v3c0 12 7 17 17 17c25 0 135 -3 162 -3h70c28 0 53 -1 59 -3
c9 -2 14 -8 14 -27zM317 731c-1 -42 -37 -73 -60 -73c-30 0 -66 35 -67 66c2 33 23 60 76 60c29 0 51 -21 51 -53z" />
    <glyph glyph-name="Emacron" unicode="&#x112;" horiz-adv-x="456" 
d="M406 571c0 -18 -10 -33 -25 -33c-24 0 -105 6 -125 6h-75c-20 0 -31 -8 -31 -36c0 -23 -3 -95 -4 -106c0 -2 -1 -5 -1 -7c0 -14 5 -34 32 -34c24 0 84 2 106 2c21 0 88 -3 107 -3c8 0 11 -8 11 -17v-5v-12c0 -12 -2 -18 -15 -18c-27 0 -88 -4 -103 -4c-7 0 -27 2 -48 4
c-2 0 -4 1 -6 1c-17 2 -35 3 -46 3c-3 0 -6 -1 -7 -1c-14 -2 -35 -11 -35 -42v-5c2 -29 5 -76 5 -92c0 -7 0 -21 1 -35c0 -7 1 -13 1 -19c0 -5 -1 -10 -1 -12v-5c0 -19 14 -40 52 -40c35 0 103 4 119 4c15 0 57 -6 68 -6c5 0 11 -8 15 -22c1 -3 3 -9 3 -15
c0 -10 -5 -21 -23 -21c-40 0 -125 -2 -165 -2c-39 0 -91 -2 -107 -2c-8 0 -17 0 -23 4c-4 1 -9 7 -9 20c0 3 1 5 1 8c4 43 8 164 12 193c1 12 2 49 2 91c0 63 -1 134 -2 153c-2 31 -4 98 -6 118v3c0 12 7 17 17 17c25 0 135 -3 162 -3h70c28 0 53 -1 59 -3
c9 -2 14 -8 14 -27zM435 723c0 -4 -1 -9 -2 -13c0 -3 -1 -7 -2 -9c-2 -4 -5 -8 -14 -9c-10 -2 -125 -4 -143 -4c-6 0 -32 -1 -64 -1c-54 0 -125 1 -131 2c-16 4 -21 9 -21 21c0 4 1 9 2 16c4 30 11 37 25 37c17 0 182 -3 192 -5c20 -3 145 -5 153 -5c1 0 6 -6 6 -20
c0 -4 -1 -6 -1 -10z" />
    <glyph glyph-name="Eogonek" unicode="&#x118;" horiz-adv-x="456" 
d="M398 -171c0 -9 -2 -14 -9 -18c-9 -6 -27 -8 -53 -8c-40 0 -73 26 -83 43c-7 10 -9 25 -9 39c0 12 2 25 5 35c6 22 24 46 51 69c2 2 3 4 3 6c0 3 -3 5 -10 5c-29 -1 -58 -1 -77 -1c-39 0 -91 -2 -107 -2c-8 0 -17 0 -23 4c-4 1 -9 7 -9 20c0 3 1 5 1 8c4 43 8 164 12 193
c1 12 2 49 2 91c0 63 -1 134 -2 153c-2 31 -4 98 -6 118v3c0 12 7 17 17 17c25 0 135 -3 162 -3h70c30 0 53 -1 59 -3c9 -2 14 -8 14 -27c0 -18 -10 -33 -25 -33c-24 0 -105 6 -125 6h-75c-20 0 -31 -8 -31 -36c0 -23 -3 -95 -4 -106c0 -2 -1 -5 -1 -7c0 -14 5 -34 32 -34
c24 0 84 2 106 2c21 0 88 -3 107 -3c8 0 11 -8 11 -17v-5v-12c0 -12 -2 -18 -15 -18c-27 0 -88 -4 -103 -4c-7 0 -27 2 -48 4c-2 0 -4 1 -6 1c-17 2 -35 3 -46 3c-3 0 -6 -1 -7 -1c-14 -2 -35 -11 -35 -42v-5c2 -29 5 -76 5 -92c0 -7 0 -21 1 -35c0 -7 1 -13 1 -19
c0 -5 -1 -10 -1 -12v-5c0 -19 14 -40 52 -40c35 0 103 4 119 4c15 0 57 -6 68 -6c5 0 11 -8 15 -22c1 -3 3 -9 3 -15c0 -7 -3 -15 -11 -20c-33 -19 -67 -40 -84 -71c-9 -16 -14 -31 -14 -42c0 -19 21 -40 46 -40c23 0 40 -1 49 -5c6 -3 8 -8 8 -15z" />
    <glyph glyph-name="F" unicode="F" horiz-adv-x="433" 
d="M390 571v-4c-2 -26 -8 -37 -28 -37c-3 0 -7 0 -11 1c-38 5 -70 5 -88 5c-7 0 -18 2 -31 5h-4l-19 4c-7 1 -12 1 -16 1c-21 0 -39 -25 -43 -64c-2 -12 -3 -27 -3 -42c0 -38 6 -75 28 -77c9 -1 22 -1 36 -1c29 0 62 1 78 1c23 0 72 -2 82 -2c5 0 15 -3 15 -18v-5
c-1 -7 -2 -18 -6 -24c-4 -5 -10 -8 -24 -10c-11 -2 -23 -3 -35 -3c-20 0 -40 2 -60 5c-19 1 -31 2 -41 2h-25c-24 0 -45 -11 -45 -52c0 -35 0 -97 2 -133c2 -35 5 -82 5 -102c0 -16 -3 -25 -29 -25h-7c-9 0 -17 0 -24 1c-6 1 -11 3 -14 6c-4 3 -8 10 -8 25c0 6 1 13 1 20
l2 14c6 48 13 107 13 137c0 7 0 12 -1 16s-1 11 -1 20c0 11 0 26 1 42c0 16 1 32 1 46c0 10 0 19 -1 26v12c0 16 1 43 1 70v53c0 27 0 51 -3 62c-4 15 -6 25 -6 33c0 7 2 12 5 15c10 8 17 12 32 12c27 0 115 -6 141 -6c25 0 78 6 99 6c17 0 31 -10 31 -35z" />
    <glyph glyph-name="G" unicode="G" horiz-adv-x="722" 
d="M661 271v-6c-4 -34 -19 -114 -41 -148c-24 -34 -75 -93 -118 -110c-39 -15 -84 -22 -132 -22h-14c-54 1 -124 26 -175 62c-52 37 -78 78 -95 125c-14 38 -18 75 -18 109c0 10 0 19 1 27c2 42 7 127 45 171c38 47 87 94 135 112c50 20 87 30 126 30c62 0 152 -37 177 -50
c24 -14 60 -47 79 -76c7 -11 10 -19 10 -25c0 -9 -6 -16 -19 -24c-10 -6 -19 -10 -27 -10c-12 0 -23 6 -34 22c-24 32 -50 60 -83 77c-32 16 -62 16 -97 16s-117 -8 -160 -51c-42 -41 -85 -116 -85 -192v-6c4 -108 48 -174 111 -216c36 -24 71 -38 118 -40h21
c35 0 64 7 122 46c29 19 64 48 73 86c2 7 3 12 3 16c0 3 1 6 1 9c0 18 -11 28 -54 32c-9 1 -17 1 -25 1c-12 0 -22 -1 -31 -2c-15 -2 -27 -4 -39 -5c-6 -1 -14 -2 -21 -2c-4 0 -7 0 -9 1c-6 2 -12 7 -13 26v8c0 24 8 29 49 29h20c8 0 100 -5 134 -5h21h17c21 0 27 -3 27 -15
z" />
    <glyph glyph-name="Gbreve" unicode="&#x11e;" horiz-adv-x="722" 
d="M661 271v-6c-4 -34 -19 -114 -41 -148c-24 -34 -75 -93 -118 -110c-39 -15 -84 -22 -132 -22h-14c-54 1 -124 26 -175 62c-52 37 -78 78 -95 125c-14 38 -18 75 -18 109c0 10 0 19 1 27c2 42 7 127 45 171c38 47 87 94 135 112c50 20 87 30 126 30c62 0 152 -37 177 -50
c24 -14 60 -47 79 -76c7 -11 10 -19 10 -25c0 -9 -6 -16 -19 -24c-10 -6 -19 -10 -27 -10c-12 0 -23 6 -34 22c-24 32 -50 60 -83 77c-32 16 -62 16 -97 16s-117 -8 -160 -51c-42 -41 -85 -116 -85 -192v-6c4 -108 48 -174 111 -216c36 -24 71 -38 118 -40h21
c35 0 64 7 122 46c29 19 64 48 73 86c2 7 3 12 3 16c0 3 1 6 1 9c0 18 -11 28 -54 32c-9 1 -17 1 -25 1c-12 0 -22 -1 -31 -2c-15 -2 -27 -4 -39 -5c-6 -1 -14 -2 -21 -2c-4 0 -7 0 -9 1c-6 2 -12 7 -13 26v8c0 24 8 29 49 29h20c8 0 100 -5 134 -5h21h17c21 0 27 -3 27 -15
zM531 810c0 -33 -7 -61 -26 -80c-41 -42 -88 -62 -119 -62c-32 0 -85 5 -116 30c-31 24 -53 62 -53 102c0 22 12 31 25 31c12 0 27 -8 31 -23c6 -24 9 -41 21 -58c20 -27 38 -32 63 -32c6 0 12 1 18 1c3 0 5 1 8 1c27 2 48 3 69 30c21 28 23 18 23 49c0 25 14 35 27 35
c14 0 28 -10 29 -24z" />
    <glyph glyph-name="Gcircumflex" unicode="&#x11c;" horiz-adv-x="722" 
d="M661 271v-6c-4 -34 -19 -114 -41 -148c-24 -34 -75 -93 -118 -110c-39 -15 -84 -22 -132 -22h-14c-54 1 -124 26 -175 62c-52 37 -78 78 -95 125c-14 38 -18 75 -18 109c0 10 0 19 1 27c2 42 7 127 45 171c38 47 87 94 135 112c50 20 87 30 126 30c62 0 152 -37 177 -50
c24 -14 60 -47 79 -76c7 -11 10 -19 10 -25c0 -9 -6 -16 -19 -24c-10 -6 -19 -10 -27 -10c-12 0 -23 6 -34 22c-24 32 -50 60 -83 77c-32 16 -62 16 -97 16s-117 -8 -160 -51c-42 -41 -85 -116 -85 -192v-6c4 -108 48 -174 111 -216c36 -24 71 -38 118 -40h21
c35 0 64 7 122 46c29 19 64 48 73 86c2 7 3 12 3 16c0 3 1 6 1 9c0 18 -11 28 -54 32c-9 1 -17 1 -25 1c-12 0 -22 -1 -31 -2c-15 -2 -27 -4 -39 -5c-6 -1 -14 -2 -21 -2c-4 0 -7 0 -9 1c-6 2 -12 7 -13 26v8c0 24 8 29 49 29h20c8 0 100 -5 134 -5h21h17c21 0 27 -3 27 -15
zM568 673c3 -4 4 -7 4 -11c0 -10 -12 -22 -25 -22c-19 0 -36 17 -44 28c-15 19 -25 29 -47 50c-15 16 -27 34 -41 46c-22 21 -32 32 -42 32s-19 -13 -42 -38c-12 -15 -33 -30 -49 -46c-21 -22 -32 -35 -49 -56c-7 -9 -12 -16 -28 -16h-5c-9 1 -23 12 -23 23c0 3 1 6 4 10
c41 40 105 128 120 155c13 24 20 40 60 40h27c38 0 47 -15 59 -37l2 -3c15 -27 81 -110 119 -155z" />
    <glyph glyph-name="uni0122" unicode="&#x122;" horiz-adv-x="722" 
d="M422 -106c-26 -33 -31 -50 -45 -71c-15 -21 -30 -44 -34 -54c-2 -6 -5 -11 -24 -11c-2 0 -6 1 -9 1s-23 1 -25 2s-3 3 -3 5c0 3 1 7 3 13c2 13 8 27 13 42c6 14 11 29 11 44c1 13 3 23 7 29c2 3 5 6 6 9c3 3 4 6 5 8c3 10 37 14 52 14c21 0 48 -4 48 -18
c0 -4 -1 -8 -5 -13zM661 271v-6c-4 -34 -19 -114 -41 -148c-24 -34 -75 -93 -118 -110c-39 -15 -84 -22 -132 -22h-14c-54 1 -124 26 -175 62c-52 37 -78 78 -95 125c-14 38 -18 75 -18 109c0 10 0 19 1 27c2 42 7 127 45 171c38 47 87 94 135 112c50 20 87 30 126 30
c62 0 152 -37 177 -50c24 -14 60 -47 79 -76c7 -11 10 -19 10 -25c0 -9 -6 -16 -19 -24c-10 -6 -19 -10 -27 -10c-12 0 -23 6 -34 22c-24 32 -50 60 -83 77c-32 16 -62 16 -97 16s-117 -8 -160 -51c-42 -41 -85 -116 -85 -192v-6c4 -108 48 -174 111 -216
c36 -24 71 -38 118 -40h21c35 0 64 7 122 46c29 19 64 48 73 86c2 7 3 12 3 16c0 3 1 6 1 9c0 18 -11 28 -54 32c-9 1 -17 1 -25 1c-12 0 -22 -1 -31 -2c-15 -2 -27 -4 -39 -5c-6 -1 -14 -2 -21 -2c-4 0 -7 0 -9 1c-6 2 -12 7 -13 26v8c0 24 8 29 49 29h20
c8 0 100 -5 134 -5h21h17c21 0 27 -3 27 -15z" />
    <glyph glyph-name="Gdotaccent" unicode="&#x120;" horiz-adv-x="722" 
d="M661 271v-6c-4 -34 -19 -114 -41 -148c-24 -34 -75 -93 -118 -110c-39 -15 -84 -22 -132 -22h-14c-54 1 -124 26 -175 62c-52 37 -78 78 -95 125c-14 38 -18 75 -18 109c0 10 0 19 1 27c2 42 7 127 45 171c38 47 87 94 135 112c50 20 87 30 126 30c62 0 152 -37 177 -50
c24 -14 60 -47 79 -76c7 -11 10 -19 10 -25c0 -9 -6 -16 -19 -24c-10 -6 -19 -10 -27 -10c-12 0 -23 6 -34 22c-24 32 -50 60 -83 77c-32 16 -62 16 -97 16s-117 -8 -160 -51c-42 -41 -85 -116 -85 -192v-6c4 -108 48 -174 111 -216c36 -24 71 -38 118 -40h21
c35 0 64 7 122 46c29 19 64 48 73 86c2 7 3 12 3 16c0 3 1 6 1 9c0 18 -11 28 -54 32c-9 1 -17 1 -25 1c-12 0 -22 -1 -31 -2c-15 -2 -27 -4 -39 -5c-6 -1 -14 -2 -21 -2c-4 0 -7 0 -9 1c-6 2 -12 7 -13 26v8c0 24 8 29 49 29h20c8 0 100 -5 134 -5h21h17c21 0 27 -3 27 -15
zM442 731c-1 -42 -37 -73 -60 -73c-30 0 -66 35 -67 66c2 33 23 60 76 60c29 0 51 -21 51 -53z" />
    <glyph glyph-name="H" unicode="H" horiz-adv-x="652" 
d="M554 544c-6 -77 -10 -183 -10 -238c0 -54 0 -199 2 -236c0 -9 2 -20 4 -30c1 -8 1 -15 1 -22v-5c0 -14 -5 -22 -24 -22c-39 0 -46 5 -46 35v13c0 31 2 71 2 97c0 11 0 20 -1 24c0 1 0 7 1 16c0 6 1 15 2 25v3c1 14 1 31 1 42v25c0 4 0 9 -2 13c-5 11 -19 13 -41 13
c-45 0 -197 -1 -237 -1c-43 0 -55 -14 -55 -52c0 -33 0 -161 5 -194l3 -24c0 -7 0 -13 -1 -18c-2 -7 -7 -13 -29 -13c-38 0 -46 1 -46 33c0 5 1 10 1 17c2 52 6 186 6 219s0 219 -4 270c0 14 -1 26 -1 35c0 26 6 36 27 36h4c36 -2 44 -8 44 -37v-11c-3 -43 -6 -121 -6 -146
c0 -7 -1 -13 -2 -18c0 -5 0 -12 4 -17c5 -14 21 -19 48 -21c14 -1 30 -1 47 -1c34 0 69 1 86 1c28 0 84 -8 104 -8c25 0 41 15 44 53v21c0 43 -4 115 -6 140c-1 5 -2 10 -2 15c0 19 8 29 26 29h4c9 0 17 0 24 -1c6 -1 11 -2 14 -4c5 -4 10 -14 10 -36c0 -6 0 -13 -1 -20z
" />
    <glyph glyph-name="Hcircumflex" unicode="&#x124;" horiz-adv-x="652" 
d="M554 544c-6 -77 -10 -183 -10 -238c0 -54 0 -199 2 -236c0 -9 2 -20 4 -30c1 -8 1 -15 1 -22v-5c0 -14 -5 -22 -24 -22c-39 0 -46 5 -46 35v13c0 31 2 71 2 97c0 11 0 20 -1 24c0 1 0 7 1 16c0 6 1 15 2 25v3c1 14 1 31 1 42v25c0 4 0 9 -2 13c-5 11 -19 13 -41 13
c-45 0 -197 -1 -237 -1c-43 0 -55 -14 -55 -52c0 -33 0 -161 5 -194l3 -24c0 -7 0 -13 -1 -18c-2 -7 -7 -13 -29 -13c-38 0 -46 1 -46 33c0 5 1 10 1 17c2 52 6 186 6 219s0 219 -4 270c0 14 -1 26 -1 35c0 26 6 36 27 36h4c36 -2 44 -8 44 -37v-11c-3 -43 -6 -121 -6 -146
c0 -7 -1 -13 -2 -18c0 -5 0 -12 4 -17c5 -14 21 -19 48 -21c14 -1 30 -1 47 -1c34 0 69 1 86 1c28 0 84 -8 104 -8c25 0 41 15 44 53v21c0 43 -4 115 -6 140c-1 5 -2 10 -2 15c0 19 8 29 26 29h4c9 0 17 0 24 -1c6 -1 11 -2 14 -4c5 -4 10 -14 10 -36c0 -6 0 -13 -1 -20z
M515 673c3 -4 4 -7 4 -11c0 -10 -12 -22 -25 -22c-19 0 -36 17 -44 28c-15 19 -25 29 -47 50c-15 16 -27 34 -41 46c-22 21 -32 32 -42 32s-19 -13 -42 -38c-12 -15 -33 -30 -49 -46c-21 -22 -32 -35 -49 -56c-7 -9 -12 -16 -28 -16h-5c-9 1 -23 12 -23 23c0 3 1 6 4 10
c41 40 105 128 120 155c13 24 20 40 60 40h27c38 0 47 -15 59 -37l2 -3c15 -27 81 -110 119 -155z" />
    <glyph glyph-name="Hbar" unicode="&#x126;" horiz-adv-x="652" 
d="M623 461c0 -4 -2 -9 -2 -13c0 -3 -2 -7 -5 -9c-2 -4 -8 -8 -22 -9c-4 -1 -19 -2 -40 -2c-5 0 -8 -4 -8 -9c-2 -44 -2 -84 -2 -113c0 -54 0 -199 2 -236c0 -9 2 -20 4 -30c1 -8 1 -15 1 -22v-5c0 -14 -5 -22 -24 -22c-39 0 -46 5 -46 35v13c0 31 2 71 2 97
c0 11 0 20 -1 24c0 1 0 7 1 16c0 6 1 15 2 25v3c1 14 1 31 1 42v25c0 4 0 9 -2 13c-5 11 -19 13 -41 13c-45 0 -197 -1 -237 -1c-43 0 -55 -14 -55 -52c0 -33 0 -161 5 -194l3 -24c0 -7 0 -13 -1 -18c-2 -7 -7 -13 -29 -13c-38 0 -46 1 -46 33c0 5 1 10 1 17
c2 52 6 186 6 219c0 19 0 83 -1 148c0 6 -1 14 -12 14s-21 0 -23 1c-26 4 -33 9 -33 21c0 4 0 9 2 16c7 30 18 37 40 37h14c8 0 10 5 10 10c-1 10 -1 17 -1 23c0 14 -1 26 -1 35c0 26 6 36 27 36h4c36 -2 44 -8 44 -37v-11l-3 -47c0 -8 7 -10 10 -10c86 -1 194 -3 204 -4
c14 -1 58 -3 105 -4c3 0 6 3 6 8l-3 61c-1 5 -2 10 -2 15c0 19 8 29 26 29h4c9 0 17 0 24 -1c6 -1 11 -2 14 -4c5 -4 10 -14 10 -36c0 -6 0 -13 -1 -20l-3 -46c0 -5 3 -7 5 -7h59c1 0 10 -6 10 -20c0 -4 -2 -6 -2 -10zM485 400v11c0 6 -4 16 -24 16c-32 -1 -82 -1 -95 -1
c-10 0 -52 -1 -103 -1h-89c-9 0 -20 -8 -21 -21l-1 -11c0 -5 0 -12 4 -17c5 -14 21 -19 48 -21c14 -1 30 -1 47 -1c34 0 69 1 86 1c28 0 84 -8 104 -8c25 0 41 15 44 53z" />
    <glyph glyph-name="I" unicode="I" horiz-adv-x="257" 
d="M170 578v-9c-4 -57 -4 -193 -6 -244c-2 -37 -3 -128 -3 -196v-65l3 -35c0 -6 1 -10 1 -13c0 -15 -6 -20 -30 -20c-31 0 -39 3 -39 31c0 11 0 24 2 43c6 68 8 151 8 211v21c0 74 -5 225 -8 257c0 9 -1 17 -1 23c0 7 1 11 3 14c1 4 6 7 22 7h10c6 0 13 0 19 1
c5 0 9 0 11 -1c3 -2 8 -5 8 -25z" />
    <glyph glyph-name="Iacute" unicode="&#xcd;" horiz-adv-x="257" 
d="M170 578v-9c-4 -57 -4 -193 -6 -244c-2 -37 -3 -128 -3 -196v-65l3 -35c0 -6 1 -10 1 -13c0 -15 -6 -20 -30 -20c-31 0 -39 3 -39 31c0 11 0 24 2 43c6 68 8 151 8 211v21c0 74 -5 225 -8 257c0 9 -1 17 -1 23c0 7 1 11 3 14c1 4 6 7 22 7h10c6 0 13 0 19 1
c5 0 9 0 11 -1c3 -2 8 -5 8 -25zM289 842c-33 -32 -62 -49 -88 -79c-12 -15 -33 -30 -49 -46c-21 -22 -32 -36 -49 -56c-7 -9 -12 -16 -28 -16h-5c-9 1 -23 12 -23 23c0 3 1 6 4 10c41 39 105 127 120 155c12 24 20 40 60 40h13c34 -3 56 -5 56 -15c0 -5 -4 -10 -11 -16z
" />
    <glyph glyph-name="Icircumflex" unicode="&#xce;" horiz-adv-x="257" 
d="M170 578v-9c-4 -57 -4 -193 -6 -244c-2 -37 -3 -128 -3 -196v-65l3 -35c0 -6 1 -10 1 -13c0 -15 -6 -20 -30 -20c-31 0 -39 3 -39 31c0 11 0 24 2 43c6 68 8 151 8 211v21c0 74 -5 225 -8 257c0 9 -1 17 -1 23c0 7 1 11 3 14c1 4 6 7 22 7h10c6 0 13 0 19 1
c5 0 9 0 11 -1c3 -2 8 -5 8 -25zM327 673c3 -4 4 -7 4 -11c0 -10 -12 -22 -25 -22c-19 0 -36 17 -44 28c-15 19 -25 29 -47 50c-15 16 -27 34 -41 46c-22 21 -32 32 -42 32s-19 -13 -42 -38c-12 -15 -33 -30 -49 -46c-21 -22 -32 -35 -49 -56c-7 -9 -12 -16 -28 -16h-5
c-9 1 -23 12 -23 23c0 3 1 6 4 10c41 40 105 128 120 155c13 24 20 40 60 40h27c38 0 47 -15 59 -37l2 -3c15 -27 81 -110 119 -155z" />
    <glyph glyph-name="Idieresis" unicode="&#xcf;" horiz-adv-x="257" 
d="M170 578v-9c-4 -57 -4 -193 -6 -244c-2 -37 -3 -128 -3 -196v-65l3 -35c0 -6 1 -10 1 -13c0 -15 -6 -20 -30 -20c-31 0 -39 3 -39 31c0 11 0 24 2 43c6 68 8 151 8 211v21c0 74 -5 225 -8 257c0 9 -1 17 -1 23c0 7 1 11 3 14c1 4 6 7 22 7h10c6 0 13 0 19 1
c5 0 9 0 11 -1c3 -2 8 -5 8 -25zM277 728c0 -31 -19 -62 -49 -62c-33 0 -58 19 -58 52v4c2 36 30 52 54 52c23 0 53 -19 53 -46zM104 721c-1 -23 -25 -58 -51 -60c-28 3 -64 27 -65 59c2 37 25 57 55 57h3c26 -2 57 -27 58 -56z" />
    <glyph glyph-name="Igrave" unicode="&#xcc;" horiz-adv-x="257" 
d="M170 578v-9c-4 -57 -4 -193 -6 -244c-2 -37 -3 -128 -3 -196v-65l3 -35c0 -6 1 -10 1 -13c0 -15 -6 -20 -30 -20c-31 0 -39 3 -39 31c0 11 0 24 2 43c6 68 8 151 8 211v21c0 74 -5 225 -8 257c0 9 -1 17 -1 23c0 7 1 11 3 14c1 4 6 7 22 7h10c6 0 13 0 19 1
c5 0 9 0 11 -1c3 -2 8 -5 8 -25zM179 639c-20 0 -36 17 -45 28c-15 19 -25 29 -46 51c-16 15 -29 33 -42 45c-29 28 -51 42 -84 73c-8 7 -11 12 -11 16c0 10 21 15 56 15h12c40 0 48 -16 60 -39c15 -28 82 -111 120 -156c3 -4 4 -7 4 -10c0 -10 -12 -23 -24 -23z" />
    <glyph glyph-name="Ibreve" unicode="&#x12c;" horiz-adv-x="257" 
d="M170 578v-9c-4 -57 -4 -193 -6 -244c-2 -37 -3 -128 -3 -196v-65l3 -35c0 -6 1 -10 1 -13c0 -15 -6 -20 -30 -20c-31 0 -39 3 -39 31c0 11 0 24 2 43c6 68 8 151 8 211v21c0 74 -5 225 -8 257c0 9 -1 17 -1 23c0 7 1 11 3 14c1 4 6 7 22 7h10c6 0 13 0 19 1
c5 0 9 0 11 -1c3 -2 8 -5 8 -25zM285 810c0 -33 -7 -61 -26 -80c-41 -42 -88 -62 -119 -62c-32 0 -85 5 -116 30c-31 24 -53 62 -53 102c0 22 12 31 25 31c12 0 27 -8 31 -23c6 -24 9 -41 21 -58c20 -27 38 -32 63 -32c6 0 12 1 18 1c3 0 5 1 8 1c27 2 48 3 69 30
c21 28 23 18 23 49c0 25 14 35 27 35c14 0 28 -10 29 -24z" />
    <glyph glyph-name="Idotaccent" unicode="&#x130;" horiz-adv-x="257" 
d="M170 578v-9c-4 -57 -4 -193 -6 -244c-2 -37 -3 -128 -3 -196v-65l3 -35c0 -6 1 -10 1 -13c0 -15 -6 -20 -30 -20c-31 0 -39 3 -39 31c0 11 0 24 2 43c6 68 8 151 8 211v21c0 74 -5 225 -8 257c0 9 -1 17 -1 23c0 7 1 11 3 14c1 4 6 7 22 7h10c6 0 13 0 19 1
c5 0 9 0 11 -1c3 -2 8 -5 8 -25zM193 731c-1 -42 -37 -73 -60 -73c-30 0 -66 35 -67 66c2 33 23 60 76 60c29 0 51 -21 51 -53z" />
    <glyph glyph-name="Imacron" unicode="&#x12a;" horiz-adv-x="257" 
d="M170 578v-9c-4 -57 -4 -193 -6 -244c-2 -37 -3 -128 -3 -196v-65l3 -35c0 -6 1 -10 1 -13c0 -15 -6 -20 -30 -20c-31 0 -39 3 -39 31c0 11 0 24 2 43c6 68 8 151 8 211v21c0 74 -5 225 -8 257c0 9 -1 17 -1 23c0 7 1 11 3 14c1 4 6 7 22 7h10c6 0 13 0 19 1
c5 0 9 0 11 -1c3 -2 8 -5 8 -25zM240 735c0 -4 -1 -9 -1 -14c0 -3 -1 -6 -2 -9c-1 -4 -3 -8 -8 -9c-6 -2 -75 -3 -86 -4c-3 0 -19 -1 -38 -1c-33 0 -75 1 -79 3c-10 4 -12 8 -12 20c0 5 0 10 1 16c2 30 6 37 15 37c10 0 109 -3 116 -4c11 -4 86 -6 90 -6c1 0 5 -6 5 -20
c0 -3 -1 -6 -1 -9z" />
    <glyph glyph-name="Itilde" unicode="&#x128;" horiz-adv-x="257" 
d="M170 578v-9c-4 -57 -4 -193 -6 -244c-2 -37 -3 -128 -3 -196v-65l3 -35c0 -6 1 -10 1 -13c0 -15 -6 -20 -30 -20c-31 0 -39 3 -39 31c0 11 0 24 2 43c6 68 8 151 8 211v21c0 74 -5 225 -8 257c0 9 -1 17 -1 23c0 7 1 11 3 14c1 4 6 7 22 7h10c6 0 13 0 19 1
c5 0 9 0 11 -1c3 -2 8 -5 8 -25zM308 771c3 -5 5 -10 5 -17c0 -17 -13 -41 -43 -68c-16 -16 -48 -23 -73 -23c-4 0 -8 0 -12 1c-23 4 -78 37 -100 51c-11 8 -27 13 -42 13c-13 0 -25 -4 -33 -14c-18 -20 -30 -36 -45 -36c-4 0 -8 2 -12 5c-6 3 -8 8 -8 15c0 17 13 42 25 57
c19 24 45 37 82 37c28 0 51 -9 88 -35c21 -16 48 -25 71 -25c18 0 34 5 44 16c19 20 30 32 39 32c5 0 9 -2 14 -9z" />
    <glyph glyph-name="Iogonek" unicode="&#x12e;" horiz-adv-x="257" 
d="M5 -121c0 12 2 25 5 35c7 30 38 61 80 91c6 4 6 7 6 22c0 11 0 24 2 43c6 68 8 151 8 211v21c0 74 -5 225 -8 257c0 9 -1 17 -1 23c0 7 1 11 3 14c1 4 6 7 22 7h10c6 0 13 0 19 1c5 0 9 0 11 -1c3 -2 8 -5 8 -25v-9c-4 -57 -4 -193 -6 -244c-2 -37 -3 -128 -3 -196v-65
l3 -35c0 -6 1 -10 1 -13c0 -7 -2 -12 -11 -20c-33 -19 -67 -40 -84 -71c-9 -16 -14 -31 -14 -42c0 -19 21 -40 46 -40c23 0 40 -1 49 -5c6 -3 8 -8 8 -15c0 -9 -2 -14 -9 -18c-9 -6 -27 -8 -53 -8c-40 0 -73 26 -83 43c-7 10 -9 25 -9 39z" />
    <glyph glyph-name="IJ" unicode="&#x132;" horiz-adv-x="649" 
d="M170 578v-9c-4 -57 -4 -193 -6 -244c-2 -37 -3 -128 -3 -196v-65l3 -35c0 -6 1 -10 1 -13c0 -15 -6 -20 -30 -20c-31 0 -39 3 -39 31c0 11 0 24 2 43c6 68 8 151 8 211v21c0 74 -5 225 -8 257c0 9 -1 17 -1 23c0 7 1 11 3 14c1 4 6 7 22 7h10c6 0 13 0 19 1
c5 0 9 0 11 -1c3 -2 8 -5 8 -25zM548 571v-11c-2 -73 -6 -151 -6 -204s4 -168 4 -203c0 -36 -2 -81 -29 -110c-14 -15 -28 -31 -46 -43c-16 -11 -36 -19 -65 -19h-4c-61 3 -111 40 -130 62c-9 11 -13 19 -13 26c0 11 9 17 27 23l20 7c5 2 10 2 14 2c8 0 13 -4 18 -17
c10 -27 38 -33 63 -33h10c7 0 14 1 18 2c5 1 10 1 15 3c7 1 13 5 19 13c12 14 20 41 20 90v135c0 89 0 183 -4 221l-5 43c-1 8 -2 16 -2 23c0 4 0 8 1 11c2 14 7 23 26 23c3 0 7 0 12 -1c8 -2 15 -2 21 -3c6 0 9 0 10 -2c3 -3 6 -10 6 -38z" />
    <glyph glyph-name="J" unicode="J" horiz-adv-x="433" 
d="M333 571v-11c-2 -73 -6 -151 -6 -204s4 -168 4 -203c0 -36 -2 -81 -29 -110c-14 -15 -28 -31 -46 -43c-16 -11 -36 -19 -65 -19h-4c-61 3 -111 40 -130 62c-9 11 -13 19 -13 26c0 11 9 17 27 23l20 7c5 2 10 2 14 2c8 0 13 -4 18 -17c10 -27 38 -33 63 -33h10
c7 0 14 1 18 2c5 1 10 1 15 3c7 1 13 5 19 13c12 14 20 41 20 90v135c0 89 0 183 -4 221l-5 43c-1 8 -2 16 -2 23c0 4 0 8 1 11c2 14 7 23 26 23c3 0 7 0 12 -1c8 -2 15 -2 21 -3c6 0 9 0 10 -2c3 -3 6 -10 6 -38z" />
    <glyph glyph-name="Jcircumflex" unicode="&#x134;" horiz-adv-x="433" 
d="M333 571v-11c-2 -73 -6 -151 -6 -204s4 -168 4 -203c0 -36 -2 -81 -29 -110c-14 -15 -28 -31 -46 -43c-16 -11 -36 -19 -65 -19h-4c-61 3 -111 40 -130 62c-9 11 -13 19 -13 26c0 11 9 17 27 23l20 7c5 2 10 2 14 2c8 0 13 -4 18 -17c10 -27 38 -33 63 -33h10
c7 0 14 1 18 2c5 1 10 1 15 3c7 1 13 5 19 13c12 14 20 41 20 90v135c0 89 0 183 -4 221l-5 43c-1 8 -2 16 -2 23c0 4 0 8 1 11c2 14 7 23 26 23c3 0 7 0 12 -1c8 -2 15 -2 21 -3c6 0 9 0 10 -2c3 -3 6 -10 6 -38zM489 673c3 -4 4 -7 4 -11c0 -10 -12 -22 -25 -22
c-19 0 -36 17 -44 28c-15 19 -25 29 -47 50c-15 16 -27 34 -41 46c-22 21 -32 32 -42 32s-19 -13 -42 -38c-12 -15 -33 -30 -49 -46c-21 -22 -32 -35 -49 -56c-7 -9 -12 -16 -28 -16h-5c-9 1 -23 12 -23 23c0 3 1 6 4 10c41 40 105 128 120 155c13 24 20 40 60 40h27
c38 0 47 -15 59 -37l2 -3c15 -27 81 -110 119 -155z" />
    <glyph glyph-name="K" unicode="K" horiz-adv-x="551" 
d="M528 19c3 -5 5 -8 5 -12s-4 -6 -15 -8c-13 -2 -38 -2 -56 -2h-7c-6 0 -11 0 -16 3c-7 1 -14 7 -22 21c-9 15 -19 27 -30 40l-40 40c-7 7 -16 16 -24 26c-9 10 -18 21 -27 32c-17 21 -35 42 -46 53c-9 7 -15 16 -22 24l-7 8c-6 6 -14 9 -21 9c-6 0 -13 -2 -19 -7
c-15 -11 -19 -25 -19 -37v-3c1 -7 2 -13 4 -19c0 -6 1 -11 1 -15c0 -19 8 -116 12 -141c0 -4 1 -6 1 -10c0 -16 -9 -28 -36 -28c-33 0 -45 6 -45 25c0 3 1 4 1 7c4 33 11 114 11 171c0 31 1 85 1 136c0 43 -1 84 -2 110c-4 58 -6 139 -6 153c0 6 5 18 22 18c4 0 8 -1 12 -2
l18 -2c6 0 10 -1 14 -3c4 -1 9 -5 9 -21v-4c-2 -43 -10 -153 -10 -182c0 -20 2 -38 15 -38c8 0 22 8 41 29c41 42 129 131 142 146l3 3c7 8 22 26 38 41c18 18 34 30 41 30c21 0 56 -4 67 -6c2 -1 10 -4 10 -12c0 -6 -4 -14 -16 -25c-35 -31 -108 -90 -141 -119
c-17 -14 -36 -33 -53 -50c-18 -17 -33 -31 -42 -37c-16 -10 -37 -26 -37 -46c0 -10 6 -22 21 -34c18 -14 35 -32 53 -52s36 -41 56 -58l121 -110c6 -5 13 -12 21 -20c7 -7 15 -15 19 -22z" />
    <glyph glyph-name="uni0136" unicode="&#x136;" horiz-adv-x="551" 
d="M335 -106c-26 -33 -31 -50 -45 -71c-15 -21 -30 -44 -34 -54c-2 -6 -5 -11 -24 -11c-2 0 -6 1 -9 1s-23 1 -25 2s-3 3 -3 5c0 3 1 7 3 13c2 13 8 27 13 42c6 14 11 29 11 44c1 13 3 23 7 29c2 3 5 6 6 9c3 3 4 6 5 8c3 10 37 14 52 14c21 0 48 -4 48 -18
c0 -4 -1 -8 -5 -13zM528 19c3 -5 5 -8 5 -12s-4 -6 -15 -8c-13 -2 -38 -2 -56 -2h-7c-6 0 -11 0 -16 3c-7 1 -14 7 -22 21c-9 15 -19 27 -30 40l-40 40c-7 7 -16 16 -24 26c-9 10 -18 21 -27 32c-17 21 -35 42 -46 53c-9 7 -15 16 -22 24l-7 8c-6 6 -14 9 -21 9
c-6 0 -13 -2 -19 -7c-15 -11 -19 -25 -19 -37v-3c1 -7 2 -13 4 -19c0 -6 1 -11 1 -15c0 -19 8 -116 12 -141c0 -4 1 -6 1 -10c0 -16 -9 -28 -36 -28c-33 0 -45 6 -45 25c0 3 1 4 1 7c4 33 11 114 11 171c0 31 1 85 1 136c0 43 -1 84 -2 110c-4 58 -6 139 -6 153
c0 6 5 18 22 18c4 0 8 -1 12 -2l18 -2c6 0 10 -1 14 -3c4 -1 9 -5 9 -21v-4c-2 -43 -10 -153 -10 -182c0 -20 2 -38 15 -38c8 0 22 8 41 29c41 42 129 131 142 146l3 3c7 8 22 26 38 41c18 18 34 30 41 30c21 0 56 -4 67 -6c2 -1 10 -4 10 -12c0 -6 -4 -14 -16 -25
c-35 -31 -108 -90 -141 -119c-17 -14 -36 -33 -53 -50c-18 -17 -33 -31 -42 -37c-16 -10 -37 -26 -37 -46c0 -10 6 -22 21 -34c18 -14 35 -32 53 -52s36 -41 56 -58l121 -110c6 -5 13 -12 21 -20c7 -7 15 -15 19 -22z" />
    <glyph glyph-name="L" unicode="L" horiz-adv-x="382" 
d="M365 26c-1 -7 -2 -13 -2 -18c-1 -6 -2 -8 -2 -10c-2 -3 -5 -6 -16 -6c-9 0 -89 4 -134 6c-15 1 -31 1 -46 1c-16 0 -30 0 -43 -1c-6 -1 -16 -2 -23 -2c-5 0 -10 0 -14 2c-8 2 -14 7 -14 23v4v67v175v222v79v6c0 26 10 37 29 37h8c28 -4 47 -6 47 -35c0 -5 0 -10 -1 -15
c-8 -50 -14 -166 -14 -233c0 -53 -3 -143 -3 -191c0 -11 0 -21 1 -26v-10c0 -4 0 -7 1 -10c0 -6 0 -14 2 -20c5 -12 15 -18 30 -18c4 0 8 0 12 1c40 6 58 10 88 10c31 0 68 -6 84 -8c6 -1 11 -3 11 -17c0 -3 0 -8 -1 -13z" />
    <glyph glyph-name="Lacute" unicode="&#x139;" horiz-adv-x="382" 
d="M365 26c-1 -7 -2 -13 -2 -18c-1 -6 -2 -8 -2 -10c-2 -3 -5 -6 -16 -6c-9 0 -89 4 -134 6c-15 1 -31 1 -46 1c-16 0 -30 0 -43 -1c-6 -1 -16 -2 -23 -2c-5 0 -10 0 -14 2c-8 2 -14 7 -14 23v4v67v175v222v79v6c0 26 10 37 29 37h8c28 -4 47 -6 47 -35c0 -5 0 -10 -1 -15
c-8 -50 -14 -166 -14 -233c0 -53 -3 -143 -3 -191c0 -11 0 -21 1 -26v-10c0 -4 0 -7 1 -10c0 -6 0 -14 2 -20c5 -12 15 -18 30 -18c4 0 8 0 12 1c40 6 58 10 88 10c31 0 68 -6 84 -8c6 -1 11 -3 11 -17c0 -3 0 -8 -1 -13zM289 842c-33 -32 -62 -49 -88 -79
c-12 -15 -33 -30 -49 -46c-21 -22 -32 -36 -49 -56c-7 -9 -12 -16 -28 -16h-5c-9 1 -23 12 -23 23c0 3 1 6 4 10c41 39 105 127 120 155c12 24 20 40 60 40h13c34 -3 56 -5 56 -15c0 -5 -4 -10 -11 -16z" />
    <glyph glyph-name="Lcaron" unicode="&#x13d;" horiz-adv-x="382" 
d="M355 579c-18 -30 -41 -66 -55 -95c-7 -15 -17 -31 -26 -45l-13 -20c-4 -6 -6 -12 -8 -16c-5 -10 -17 -20 -31 -20c-8 1 -19 2 -19 14c0 4 2 10 6 18c22 40 57 129 65 156c7 23 18 39 42 39h6c19 -2 37 -5 37 -18c0 -3 -2 -8 -4 -13zM365 26c-1 -7 -2 -13 -2 -18
c-1 -6 -2 -8 -2 -10c-2 -3 -5 -6 -16 -6c-9 0 -89 4 -134 6c-15 1 -31 1 -46 1c-16 0 -30 0 -43 -1c-6 -1 -16 -2 -23 -2c-5 0 -10 0 -14 2c-8 2 -14 7 -14 23v4v67v175v222v79v6c0 26 10 37 29 37h8c28 -4 47 -6 47 -35c0 -5 0 -10 -1 -15c-8 -50 -14 -166 -14 -233
c0 -53 -3 -143 -3 -191c0 -11 0 -21 1 -26v-10c0 -4 0 -7 1 -10c0 -6 0 -14 2 -20c5 -12 15 -18 30 -18c4 0 8 0 12 1c40 6 58 10 88 10c31 0 68 -6 84 -8c6 -1 11 -3 11 -17c0 -3 0 -8 -1 -13z" />
    <glyph glyph-name="uni013B" unicode="&#x13b;" horiz-adv-x="382" 
d="M251 -106c-26 -33 -31 -50 -45 -71c-15 -21 -30 -44 -34 -54c-2 -6 -5 -11 -24 -11c-2 0 -6 1 -9 1s-23 1 -25 2s-3 3 -3 5c0 3 1 7 3 13c2 13 8 27 13 42c6 14 11 29 11 44c1 13 3 23 7 29c2 3 5 6 6 9c3 3 4 6 5 8c3 10 37 14 52 14c21 0 48 -4 48 -18
c0 -4 -1 -8 -5 -13zM365 26c-1 -7 -2 -13 -2 -18c-1 -6 -2 -8 -2 -10c-2 -3 -5 -6 -16 -6c-9 0 -89 4 -134 6c-15 1 -31 1 -46 1c-16 0 -30 0 -43 -1c-6 -1 -16 -2 -23 -2c-5 0 -10 0 -14 2c-8 2 -14 7 -14 23v4v67v175v222v79v6c0 26 10 37 29 37h8c28 -4 47 -6 47 -35
c0 -5 0 -10 -1 -15c-8 -50 -14 -166 -14 -233c0 -53 -3 -143 -3 -191c0 -11 0 -21 1 -26v-10c0 -4 0 -7 1 -10c0 -6 0 -14 2 -20c5 -12 15 -18 30 -18c4 0 8 0 12 1c40 6 58 10 88 10c31 0 68 -6 84 -8c6 -1 11 -3 11 -17c0 -3 0 -8 -1 -13z" />
    <glyph glyph-name="Ldot" unicode="&#x13f;" horiz-adv-x="382" 
d="M359 323c-1 -42 -37 -73 -60 -73c-30 0 -66 34 -67 66c2 33 23 61 76 61c30 0 51 -23 51 -54zM365 26c-1 -7 -2 -13 -2 -18c-1 -6 -2 -8 -2 -10c-2 -3 -5 -6 -16 -6c-9 0 -89 4 -134 6c-15 1 -31 1 -46 1c-16 0 -30 0 -43 -1c-6 -1 -16 -2 -23 -2c-5 0 -10 0 -14 2
c-8 2 -14 7 -14 23v4v67v175v222v79v6c0 26 10 37 29 37h8c28 -4 47 -6 47 -35c0 -5 0 -10 -1 -15c-8 -50 -14 -166 -14 -233c0 -53 -3 -143 -3 -191c0 -11 0 -21 1 -26v-10c0 -4 0 -7 1 -10c0 -6 0 -14 2 -20c5 -12 15 -18 30 -18c4 0 8 0 12 1c40 6 58 10 88 10
c31 0 68 -6 84 -8c6 -1 11 -3 11 -17c0 -3 0 -8 -1 -13z" />
    <glyph glyph-name="Lslash" unicode="&#x141;" horiz-adv-x="382" 
d="M365 26c-1 -7 -2 -13 -2 -18c-1 -6 -2 -8 -2 -10c-2 -2 -5 -6 -22 -6c-11 0 -85 4 -128 6c-15 1 -31 1 -46 1c-16 0 -30 0 -43 -1c-6 -1 -16 -2 -23 -2c-5 0 -10 0 -14 2c-8 2 -14 7 -14 23v4c0 26 5 111 5 171c0 33 -2 59 -5 62c-1 1 -3 1 -5 1c-18 0 -69 -33 -72 -33
h-3c-9 0 -12 2 -12 15c0 4 0 9 1 15c3 31 8 40 18 45c6 3 63 18 73 32c4 5 5 31 5 63c0 64 -5 153 -5 172v6c0 26 10 37 29 37h8c28 -4 47 -6 47 -35c0 -5 0 -10 -1 -15c-5 -34 -16 -130 -16 -175c0 -14 1 -22 3 -25c0 -1 1 -2 3 -2c31 0 62 42 97 42c0 0 4 -5 4 -22l-2 -19
c0 -4 -1 -8 -2 -11c0 -5 -3 -10 -10 -14c-5 -4 -84 -34 -91 -45c-4 -4 -4 -37 -4 -74c0 -44 1 -93 2 -105v-10c0 -4 0 -7 1 -10c0 -6 0 -14 2 -20c5 -12 15 -18 30 -18c4 0 8 0 12 1c40 6 58 10 88 10c31 0 68 -6 84 -8c6 -1 11 -3 11 -17c0 -3 0 -8 -1 -13z" />
    <glyph glyph-name="M" unicode="M" horiz-adv-x="793" 
d="M741 10c-2 -5 -6 -12 -27 -13h-8c-32 0 -34 10 -35 39c-3 35 -10 106 -16 161c-6 54 -12 129 -14 164c-1 23 -12 43 -25 43c-9 0 -18 -9 -26 -31c-14 -37 -47 -106 -74 -166l-50 -109c-16 -37 -30 -71 -35 -85c-8 -30 -13 -35 -21 -35c-10 0 -25 13 -33 38
c-8 28 -41 100 -55 138c-14 37 -39 84 -57 122l-24 47c-6 13 -12 25 -16 40c-5 14 -16 39 -26 50c-4 5 -10 8 -15 8c-3 0 -7 -2 -10 -5c-5 -7 -7 -20 -7 -39c0 -73 -13 -147 -16 -181c0 -16 -5 -50 -9 -84c0 -1 -1 -2 -1 -4c-3 -28 -5 -56 -5 -70v-3c0 -6 2 -15 2 -23
c0 -3 0 -6 -1 -8c-1 -5 -6 -11 -29 -11h-8c-31 3 -38 8 -39 10v3v5l4 14c6 29 27 148 35 221c6 61 23 221 23 258v12c0 10 2 53 5 79c3 21 4 38 14 38c19 0 28 -6 34 -17c4 -5 6 -14 10 -25c3 -10 6 -22 11 -36c9 -29 24 -64 40 -97l40 -80c18 -35 49 -112 63 -142
c6 -16 14 -42 23 -65c10 -27 24 -46 36 -46c22 1 34 25 42 46c7 21 13 48 21 69c18 41 36 68 49 101c14 34 53 110 67 147c7 18 18 38 27 56c8 17 17 35 18 47c3 23 12 38 23 38c12 0 25 -9 27 -58c2 -50 6 -138 13 -189c9 -51 20 -148 28 -197s20 -131 24 -149
c1 -6 3 -14 3 -20v-6z" />
    <glyph glyph-name="N" unicode="N" horiz-adv-x="699" 
d="M638 5c0 -12 -2 -27 -12 -27s-29 6 -43 28c-17 24 -62 73 -89 102c-28 29 -86 95 -109 123c-24 27 -67 72 -99 100c-30 27 -55 54 -75 79c-10 13 -26 29 -40 35c-5 1 -10 2 -13 2c-12 0 -20 -8 -20 -26v-5c2 -45 6 -115 6 -160s4 -172 6 -194c1 -16 2 -31 2 -46
c0 -5 -1 -10 -1 -15c0 -4 -2 -6 -8 -7c-2 -1 -7 -1 -11 -1h-15c-11 0 -25 0 -36 3c-5 1 -10 5 -10 14c1 27 15 147 15 206v10c-2 55 -4 197 -8 239c-3 40 -9 104 -9 127v15c0 12 1 20 7 20h6c4 0 8 0 11 -1c5 -2 12 -8 23 -23c11 -16 30 -37 48 -57c19 -20 38 -39 52 -55
c28 -31 90 -98 131 -139l68 -67c22 -23 41 -43 51 -55c9 -12 20 -23 31 -34c10 -10 18 -16 20 -23c3 -4 4 -8 5 -12c5 -10 11 -20 27 -20c12 0 20 17 20 52c0 10 -1 22 -3 35c-2 19 -2 45 -2 73v77c0 17 0 31 -1 42c-4 41 -6 115 -10 150c-1 4 -1 8 -1 11c0 21 8 29 24 29h7
c8 -1 16 -1 23 -1c3 0 6 1 9 1c1 0 4 -1 6 -1c3 -1 7 -3 7 -23v-5c-2 -50 -6 -160 -6 -217c0 -28 -1 -83 -1 -135c0 -53 1 -104 3 -128c2 -23 6 -44 8 -60l4 -22c1 -6 2 -11 2 -14z" />
    <glyph glyph-name="Ntilde" unicode="&#xd1;" horiz-adv-x="699" 
d="M638 5c0 -12 -2 -27 -12 -27s-29 6 -43 28c-17 24 -62 73 -89 102c-28 29 -86 95 -109 123c-24 27 -67 72 -99 100c-30 27 -55 54 -75 79c-10 13 -26 29 -40 35c-5 1 -10 2 -13 2c-12 0 -20 -8 -20 -26v-5c2 -45 6 -115 6 -160s4 -172 6 -194c1 -16 2 -31 2 -46
c0 -5 -1 -10 -1 -15c0 -4 -2 -6 -8 -7c-2 -1 -7 -1 -11 -1h-15c-11 0 -25 0 -36 3c-5 1 -10 5 -10 14c1 27 15 147 15 206v10c-2 55 -4 197 -8 239c-3 40 -9 104 -9 127v15c0 12 1 20 7 20h6c4 0 8 0 11 -1c5 -2 12 -8 23 -23c11 -16 30 -37 48 -57c19 -20 38 -39 52 -55
c28 -31 90 -98 131 -139l68 -67c22 -23 41 -43 51 -55c9 -12 20 -23 31 -34c10 -10 18 -16 20 -23c3 -4 4 -8 5 -12c5 -10 11 -20 27 -20c12 0 20 17 20 52c0 10 -1 22 -3 35c-2 19 -2 45 -2 73v77c0 17 0 31 -1 42c-4 41 -6 115 -10 150c-1 4 -1 8 -1 11c0 21 8 29 24 29h7
c8 -1 16 -1 23 -1c3 0 6 1 9 1c1 0 4 -1 6 -1c3 -1 7 -3 7 -23v-5c-2 -50 -6 -160 -6 -217c0 -28 -1 -83 -1 -135c0 -53 1 -104 3 -128c2 -23 6 -44 8 -60l4 -22c1 -6 2 -11 2 -14zM521 771c3 -5 5 -10 5 -17c0 -17 -13 -41 -43 -68c-16 -16 -48 -23 -73 -23
c-4 0 -8 0 -12 1c-23 4 -78 37 -100 51c-11 8 -27 13 -42 13c-13 0 -25 -4 -33 -14c-18 -20 -30 -36 -45 -36c-4 0 -8 2 -12 5c-6 3 -8 8 -8 15c0 17 13 42 25 57c19 24 45 37 82 37c28 0 51 -9 88 -35c21 -16 48 -25 71 -25c18 0 34 5 44 16c19 20 30 32 39 32
c5 0 9 -2 14 -9z" />
    <glyph glyph-name="Nacute" unicode="&#x143;" horiz-adv-x="699" 
d="M638 5c0 -12 -2 -27 -12 -27s-29 6 -43 28c-17 24 -62 73 -89 102c-28 29 -86 95 -109 123c-24 27 -67 72 -99 100c-30 27 -55 54 -75 79c-10 13 -26 29 -40 35c-5 1 -10 2 -13 2c-12 0 -20 -8 -20 -26v-5c2 -45 6 -115 6 -160s4 -172 6 -194c1 -16 2 -31 2 -46
c0 -5 -1 -10 -1 -15c0 -4 -2 -6 -8 -7c-2 -1 -7 -1 -11 -1h-15c-11 0 -25 0 -36 3c-5 1 -10 5 -10 14c1 27 15 147 15 206v10c-2 55 -4 197 -8 239c-3 40 -9 104 -9 127v15c0 12 1 20 7 20h6c4 0 8 0 11 -1c5 -2 12 -8 23 -23c11 -16 30 -37 48 -57c19 -20 38 -39 52 -55
c28 -31 90 -98 131 -139l68 -67c22 -23 41 -43 51 -55c9 -12 20 -23 31 -34c10 -10 18 -16 20 -23c3 -4 4 -8 5 -12c5 -10 11 -20 27 -20c12 0 20 17 20 52c0 10 -1 22 -3 35c-2 19 -2 45 -2 73v77c0 17 0 31 -1 42c-4 41 -6 115 -10 150c-1 4 -1 8 -1 11c0 21 8 29 24 29h7
c8 -1 16 -1 23 -1c3 0 6 1 9 1c1 0 4 -1 6 -1c3 -1 7 -3 7 -23v-5c-2 -50 -6 -160 -6 -217c0 -28 -1 -83 -1 -135c0 -53 1 -104 3 -128c2 -23 6 -44 8 -60l4 -22c1 -6 2 -11 2 -14zM506 842c-33 -32 -62 -49 -88 -79c-12 -15 -33 -30 -49 -46c-21 -22 -32 -36 -49 -56
c-7 -9 -12 -16 -28 -16h-5c-9 1 -23 12 -23 23c0 3 1 6 4 10c41 39 105 127 120 155c12 24 20 40 60 40h13c34 -3 56 -5 56 -15c0 -5 -4 -10 -11 -16z" />
    <glyph glyph-name="Ncaron" unicode="&#x147;" horiz-adv-x="699" 
d="M543 835c-40 -40 -105 -128 -120 -157c-12 -23 -20 -39 -60 -39c-4 0 -8 1 -14 1c-5 0 -9 -1 -12 -1c-41 0 -49 16 -61 39c-15 29 -81 111 -119 157c-4 3 -4 7 -4 10c0 11 11 23 24 23c19 0 36 -17 45 -29c15 -18 25 -29 46 -51c16 -15 28 -32 42 -45
c22 -21 32 -32 41 -32s17 8 31 25l1 2l10 11c13 14 34 30 50 46c22 23 30 38 48 56c7 10 13 17 31 17h3c9 -1 23 -13 23 -24c0 -3 -1 -6 -5 -9zM638 5c0 -12 -2 -27 -12 -27s-29 6 -43 28c-17 24 -62 73 -89 102c-28 29 -86 95 -109 123c-24 27 -67 72 -99 100
c-30 27 -55 54 -75 79c-10 13 -26 29 -40 35c-5 1 -10 2 -13 2c-12 0 -20 -8 -20 -26v-5c2 -45 6 -115 6 -160s4 -172 6 -194c1 -16 2 -31 2 -46c0 -5 -1 -10 -1 -15c0 -4 -2 -6 -8 -7c-2 -1 -7 -1 -11 -1h-15c-11 0 -25 0 -36 3c-5 1 -10 5 -10 14c1 27 15 147 15 206v10
c-2 55 -4 197 -8 239c-3 40 -9 104 -9 127v15c0 12 1 20 7 20h6c4 0 8 0 11 -1c5 -2 12 -8 23 -23c11 -16 30 -37 48 -57c19 -20 38 -39 52 -55c28 -31 90 -98 131 -139l68 -67c22 -23 41 -43 51 -55c9 -12 20 -23 31 -34c10 -10 18 -16 20 -23c3 -4 4 -8 5 -12
c5 -10 11 -20 27 -20c12 0 20 17 20 52c0 10 -1 22 -3 35c-2 19 -2 45 -2 73v77c0 17 0 31 -1 42c-4 41 -6 115 -10 150c-1 4 -1 8 -1 11c0 21 8 29 24 29h7c8 -1 16 -1 23 -1c3 0 6 1 9 1c1 0 4 -1 6 -1c3 -1 7 -3 7 -23v-5c-2 -50 -6 -160 -6 -217c0 -28 -1 -83 -1 -135
c0 -53 1 -104 3 -128c2 -23 6 -44 8 -60l4 -22c1 -6 2 -11 2 -14z" />
    <glyph glyph-name="uni0145" unicode="&#x145;" horiz-adv-x="699" 
d="M411 -106c-26 -33 -31 -50 -45 -71c-15 -21 -30 -44 -34 -54c-2 -6 -5 -11 -24 -11c-2 0 -6 1 -9 1s-23 1 -25 2s-3 3 -3 5c0 3 1 7 3 13c2 13 8 27 13 42c6 14 11 29 11 44c1 13 3 23 7 29c2 3 5 6 6 9c3 3 4 6 5 8c3 10 37 14 52 14c21 0 48 -4 48 -18
c0 -4 -1 -8 -5 -13zM638 5c0 -12 -2 -27 -12 -27s-29 6 -43 28c-17 24 -62 73 -89 102c-28 29 -86 95 -109 123c-24 27 -67 72 -99 100c-30 27 -55 54 -75 79c-10 13 -26 29 -40 35c-5 1 -10 2 -13 2c-12 0 -20 -8 -20 -26v-5c2 -45 6 -115 6 -160s4 -172 6 -194
c1 -16 2 -31 2 -46c0 -5 -1 -10 -1 -15c0 -4 -2 -6 -8 -7c-2 -1 -7 -1 -11 -1h-15c-11 0 -25 0 -36 3c-5 1 -10 5 -10 14c1 27 15 147 15 206v10c-2 55 -4 197 -8 239c-3 40 -9 104 -9 127v15c0 12 1 20 7 20h6c4 0 8 0 11 -1c5 -2 12 -8 23 -23c11 -16 30 -37 48 -57
c19 -20 38 -39 52 -55c28 -31 90 -98 131 -139l68 -67c22 -23 41 -43 51 -55c9 -12 20 -23 31 -34c10 -10 18 -16 20 -23c3 -4 4 -8 5 -12c5 -10 11 -20 27 -20c12 0 20 17 20 52c0 10 -1 22 -3 35c-2 19 -2 45 -2 73v77c0 17 0 31 -1 42c-4 41 -6 115 -10 150
c-1 4 -1 8 -1 11c0 21 8 29 24 29h7c8 -1 16 -1 23 -1c3 0 6 1 9 1c1 0 4 -1 6 -1c3 -1 7 -3 7 -23v-5c-2 -50 -6 -160 -6 -217c0 -28 -1 -83 -1 -135c0 -53 1 -104 3 -128c2 -23 6 -44 8 -60l4 -22c1 -6 2 -11 2 -14z" />
    <glyph glyph-name="Eng" unicode="&#x14a;" horiz-adv-x="699" 
d="M563 -39c0 72 -4 75 -69 147c-27 30 -86 95 -109 123c-24 27 -67 72 -99 100c-30 27 -55 54 -75 79c-10 13 -26 29 -40 35c-5 1 -10 2 -13 2c-12 0 -20 -8 -20 -26v-5c2 -45 6 -115 6 -160s4 -172 6 -194c1 -16 2 -31 2 -46c0 -5 -1 -10 -1 -15c0 -4 -2 -6 -8 -7
c-2 -1 -7 -1 -11 -1h-15c-11 0 -25 0 -36 3c-5 1 -10 5 -10 14c1 27 15 147 15 206v10c-2 55 -4 197 -8 239c-3 40 -9 104 -9 127v15c0 12 1 20 7 20h6c4 0 8 0 11 -1c5 -2 12 -8 23 -23c11 -16 30 -37 48 -57c19 -20 38 -39 52 -55c28 -31 90 -98 131 -139l68 -67
c22 -23 41 -43 51 -55c9 -12 20 -23 31 -34c10 -10 18 -16 20 -23c3 -4 4 -8 5 -12c5 -10 11 -20 27 -20c12 0 20 17 20 52c0 10 -1 22 -3 35c-2 19 -2 45 -2 73v77c0 17 0 31 -1 42c-4 41 -6 115 -10 150c-1 4 -1 8 -1 11c0 21 8 29 24 29h7c8 -1 16 -1 23 -1c3 0 6 1 9 1
c1 0 4 -1 6 -1c3 -1 7 -3 7 -23v-5c-2 -50 -6 -160 -6 -217c0 -35 -1 -87 -1 -133v-8c0 -24 1 -46 1 -65v-14c0 -57 4 -157 4 -189c0 -36 -2 -81 -29 -110c-14 -15 -28 -31 -46 -44c-16 -10 -36 -18 -65 -18h-4c-61 3 -111 40 -130 62c-9 11 -13 19 -13 26c0 10 9 17 27 23
l20 7c5 1 10 2 14 2c8 0 13 -4 18 -17c10 -27 38 -34 63 -34c3 0 6 1 10 1c7 0 14 1 18 2c5 1 10 1 15 2c7 2 13 6 19 14c12 14 20 40 20 90z" />
    <glyph glyph-name="O" unicode="O" horiz-adv-x="746" 
d="M698 296c0 -18 -3 -35 -10 -55s-16 -43 -26 -71c-21 -55 -69 -109 -102 -131c-34 -22 -111 -53 -193 -53h-6c-84 1 -122 16 -175 47c-53 30 -93 100 -105 128c-10 25 -28 93 -28 141v7c2 49 19 111 38 147c19 35 82 103 121 123c40 21 109 38 164 38
c70 0 125 -19 168 -46c45 -26 115 -84 132 -141c17 -60 22 -99 22 -134zM629 249c3 16 5 33 5 52c0 25 -3 51 -9 73c-10 37 -31 75 -89 129c-29 27 -52 40 -77 47c-21 5 -42 6 -63 6h-15c-37 0 -67 -8 -93 -18c-27 -10 -77 -37 -109 -71c-33 -35 -51 -91 -57 -135
c-1 -12 -2 -24 -2 -37c0 -34 7 -71 31 -120c32 -69 85 -96 137 -112c27 -8 53 -12 78 -12c26 0 50 4 75 10s48 17 67 30c18 13 36 26 53 42c35 28 60 78 68 116z" />
    <glyph glyph-name="Odieresis" unicode="&#xd6;" horiz-adv-x="746" 
d="M698 296c0 -18 -3 -35 -10 -55s-16 -43 -26 -71c-21 -55 -69 -109 -102 -131c-34 -22 -111 -53 -193 -53h-6c-84 1 -122 16 -175 47c-53 30 -93 100 -105 128c-10 25 -28 93 -28 141v7c2 49 19 111 38 147c19 35 82 103 121 123c40 21 109 38 164 38
c70 0 125 -19 168 -46c45 -26 115 -84 132 -141c17 -60 22 -99 22 -134zM629 249c3 16 5 33 5 52c0 25 -3 51 -9 73c-10 37 -31 75 -89 129c-29 27 -52 40 -77 47c-21 5 -42 6 -63 6h-15c-37 0 -67 -8 -93 -18c-27 -10 -77 -37 -109 -71c-33 -35 -51 -91 -57 -135
c-1 -12 -2 -24 -2 -37c0 -34 7 -71 31 -120c32 -69 85 -96 137 -112c27 -8 53 -12 78 -12c26 0 50 4 75 10s48 17 67 30c18 13 36 26 53 42c35 28 60 78 68 116zM516 728c0 -31 -19 -62 -49 -62c-33 0 -58 19 -58 52v4c2 36 30 52 54 52c23 0 53 -19 53 -46zM343 721
c-1 -23 -25 -58 -51 -60c-28 3 -64 27 -65 59c2 37 25 57 55 57h3c26 -2 57 -27 58 -56z" />
    <glyph glyph-name="Otilde" unicode="&#xd5;" horiz-adv-x="746" 
d="M698 296c0 -18 -3 -35 -10 -55s-16 -43 -26 -71c-21 -55 -69 -109 -102 -131c-34 -22 -111 -53 -193 -53h-6c-84 1 -122 16 -175 47c-53 30 -93 100 -105 128c-10 25 -28 93 -28 141v7c2 49 19 111 38 147c19 35 82 103 121 123c40 21 109 38 164 38
c70 0 125 -19 168 -46c45 -26 115 -84 132 -141c17 -60 22 -99 22 -134zM629 249c3 16 5 33 5 52c0 25 -3 51 -9 73c-10 37 -31 75 -89 129c-29 27 -52 40 -77 47c-21 5 -42 6 -63 6h-15c-37 0 -67 -8 -93 -18c-27 -10 -77 -37 -109 -71c-33 -35 -51 -91 -57 -135
c-1 -12 -2 -24 -2 -37c0 -34 7 -71 31 -120c32 -69 85 -96 137 -112c27 -8 53 -12 78 -12c26 0 50 4 75 10s48 17 67 30c18 13 36 26 53 42c35 28 60 78 68 116zM546 771c3 -5 5 -10 5 -17c0 -17 -13 -41 -43 -68c-16 -16 -48 -23 -73 -23c-4 0 -8 0 -12 1
c-23 4 -78 37 -100 51c-11 8 -27 13 -42 13c-13 0 -25 -4 -33 -14c-18 -20 -30 -36 -45 -36c-4 0 -8 2 -12 5c-6 3 -8 8 -8 15c0 17 13 42 25 57c19 24 45 37 82 37c28 0 51 -9 88 -35c21 -16 48 -25 71 -25c18 0 34 5 44 16c19 20 30 32 39 32c5 0 9 -2 14 -9z" />
    <glyph glyph-name="Oacute" unicode="&#xd3;" horiz-adv-x="746" 
d="M698 296c0 -18 -3 -35 -10 -55s-16 -43 -26 -71c-21 -55 -69 -109 -102 -131c-34 -22 -111 -53 -193 -53h-6c-84 1 -122 16 -175 47c-53 30 -93 100 -105 128c-10 25 -28 93 -28 141v7c2 49 19 111 38 147c19 35 82 103 121 123c40 21 109 38 164 38
c70 0 125 -19 168 -46c45 -26 115 -84 132 -141c17 -60 22 -99 22 -134zM629 249c3 16 5 33 5 52c0 25 -3 51 -9 73c-10 37 -31 75 -89 129c-29 27 -52 40 -77 47c-21 5 -42 6 -63 6h-15c-37 0 -67 -8 -93 -18c-27 -10 -77 -37 -109 -71c-33 -35 -51 -91 -57 -135
c-1 -12 -2 -24 -2 -37c0 -34 7 -71 31 -120c32 -69 85 -96 137 -112c27 -8 53 -12 78 -12c26 0 50 4 75 10s48 17 67 30c18 13 36 26 53 42c35 28 60 78 68 116zM492 842c-33 -32 -62 -49 -88 -79c-12 -15 -33 -30 -49 -46c-21 -22 -32 -36 -49 -56c-7 -9 -12 -16 -28 -16
h-5c-9 1 -23 12 -23 23c0 3 1 6 4 10c41 39 105 127 120 155c12 24 20 40 60 40h13c34 -3 56 -5 56 -15c0 -5 -4 -10 -11 -16z" />
    <glyph glyph-name="Ocircumflex" unicode="&#xd4;" horiz-adv-x="746" 
d="M698 296c0 -18 -3 -35 -10 -55s-16 -43 -26 -71c-21 -55 -69 -109 -102 -131c-34 -22 -111 -53 -193 -53h-6c-84 1 -122 16 -175 47c-53 30 -93 100 -105 128c-10 25 -28 93 -28 141v7c2 49 19 111 38 147c19 35 82 103 121 123c40 21 109 38 164 38
c70 0 125 -19 168 -46c45 -26 115 -84 132 -141c17 -60 22 -99 22 -134zM629 249c3 16 5 33 5 52c0 25 -3 51 -9 73c-10 37 -31 75 -89 129c-29 27 -52 40 -77 47c-21 5 -42 6 -63 6h-15c-37 0 -67 -8 -93 -18c-27 -10 -77 -37 -109 -71c-33 -35 -51 -91 -57 -135
c-1 -12 -2 -24 -2 -37c0 -34 7 -71 31 -120c32 -69 85 -96 137 -112c27 -8 53 -12 78 -12c26 0 50 4 75 10s48 17 67 30c18 13 36 26 53 42c35 28 60 78 68 116zM572 673c3 -4 4 -7 4 -11c0 -10 -12 -22 -25 -22c-19 0 -36 17 -44 28c-15 19 -25 29 -47 50
c-15 16 -27 34 -41 46c-22 21 -32 32 -42 32s-19 -13 -42 -38c-12 -15 -33 -30 -49 -46c-21 -22 -32 -35 -49 -56c-7 -9 -12 -16 -28 -16h-5c-9 1 -23 12 -23 23c0 3 1 6 4 10c41 40 105 128 120 155c13 24 20 40 60 40h27c38 0 47 -15 59 -37l2 -3c15 -27 81 -110 119 -155
z" />
    <glyph glyph-name="Ograve" unicode="&#xd2;" horiz-adv-x="746" 
d="M698 296c0 -18 -3 -35 -10 -55s-16 -43 -26 -71c-21 -55 -69 -109 -102 -131c-34 -22 -111 -53 -193 -53h-6c-84 1 -122 16 -175 47c-53 30 -93 100 -105 128c-10 25 -28 93 -28 141v7c2 49 19 111 38 147c19 35 82 103 121 123c40 21 109 38 164 38
c70 0 125 -19 168 -46c45 -26 115 -84 132 -141c17 -60 22 -99 22 -134zM629 249c3 16 5 33 5 52c0 25 -3 51 -9 73c-10 37 -31 75 -89 129c-29 27 -52 40 -77 47c-21 5 -42 6 -63 6h-15c-37 0 -67 -8 -93 -18c-27 -10 -77 -37 -109 -71c-33 -35 -51 -91 -57 -135
c-1 -12 -2 -24 -2 -37c0 -34 7 -71 31 -120c32 -69 85 -96 137 -112c27 -8 53 -12 78 -12c26 0 50 4 75 10s48 17 67 30c18 13 36 26 53 42c35 28 60 78 68 116zM413 639c-20 0 -36 17 -45 28c-15 19 -25 29 -46 51c-16 15 -29 33 -42 45c-29 28 -51 42 -84 73
c-8 7 -11 12 -11 16c0 10 21 15 56 15h12c40 0 48 -16 60 -39c15 -28 82 -111 120 -156c3 -4 4 -7 4 -10c0 -10 -12 -23 -24 -23z" />
    <glyph glyph-name="Obreve" unicode="&#x14e;" horiz-adv-x="746" 
d="M698 296c0 -18 -3 -35 -10 -55s-16 -43 -26 -71c-21 -55 -69 -109 -102 -131c-34 -22 -111 -53 -193 -53h-6c-84 1 -122 16 -175 47c-53 30 -93 100 -105 128c-10 25 -28 93 -28 141v7c2 49 19 111 38 147c19 35 82 103 121 123c40 21 109 38 164 38
c70 0 125 -19 168 -46c45 -26 115 -84 132 -141c17 -60 22 -99 22 -134zM629 249c3 16 5 33 5 52c0 25 -3 51 -9 73c-10 37 -31 75 -89 129c-29 27 -52 40 -77 47c-21 5 -42 6 -63 6h-15c-37 0 -67 -8 -93 -18c-27 -10 -77 -37 -109 -71c-33 -35 -51 -91 -57 -135
c-1 -12 -2 -24 -2 -37c0 -34 7 -71 31 -120c32 -69 85 -96 137 -112c27 -8 53 -12 78 -12c26 0 50 4 75 10s48 17 67 30c18 13 36 26 53 42c35 28 60 78 68 116zM531 810c0 -33 -7 -61 -26 -80c-41 -42 -88 -62 -119 -62c-32 0 -85 5 -116 30c-31 24 -53 62 -53 102
c0 22 12 31 25 31c12 0 27 -8 31 -23c6 -24 9 -41 21 -58c20 -27 38 -32 63 -32c6 0 12 1 18 1c3 0 5 1 8 1c27 2 48 3 69 30c21 28 23 18 23 49c0 25 14 35 27 35c14 0 28 -10 29 -24z" />
    <glyph glyph-name="Ohungarumlaut" unicode="&#x150;" horiz-adv-x="746" 
d="M698 296c0 -18 -3 -35 -10 -55s-16 -43 -26 -71c-21 -55 -69 -109 -102 -131c-34 -22 -111 -53 -193 -53h-6c-84 1 -122 16 -175 47c-53 30 -93 100 -105 128c-10 25 -28 93 -28 141v7c2 49 19 111 38 147c19 35 82 103 121 123c40 21 109 38 164 38
c70 0 125 -19 168 -46c45 -26 115 -84 132 -141c17 -60 22 -99 22 -134zM629 249c3 16 5 33 5 52c0 25 -3 51 -9 73c-10 37 -31 75 -89 129c-29 27 -52 40 -77 47c-21 5 -42 6 -63 6h-15c-37 0 -67 -8 -93 -18c-27 -10 -77 -37 -109 -71c-33 -35 -51 -91 -57 -135
c-1 -12 -2 -24 -2 -37c0 -34 7 -71 31 -120c32 -69 85 -96 137 -112c27 -8 53 -12 78 -12c26 0 50 4 75 10s48 17 67 30c18 13 36 26 53 42c35 28 60 78 68 116zM569 842c-20 -32 -36 -49 -50 -79c-7 -15 -19 -30 -28 -46c-12 -22 -18 -36 -26 -54c-4 -10 -8 -18 -17 -18h-4
c-5 1 -15 13 -15 23c0 4 0 7 2 10c23 39 58 127 65 155c7 24 11 40 35 40h8c21 -3 35 -5 35 -16c0 -4 -2 -9 -5 -15zM424 842c-19 -32 -35 -49 -50 -79c-7 -15 -19 -30 -27 -46c-13 -22 -18 -36 -27 -54c-5 -10 -7 -18 -17 -18h-4c-5 1 -15 13 -15 23c0 4 1 7 3 10
c22 39 57 127 64 155c7 24 11 40 36 40h7c22 -3 35 -5 35 -16c0 -4 -2 -9 -5 -15z" />
    <glyph glyph-name="Omacron" unicode="&#x14c;" horiz-adv-x="746" 
d="M698 296c0 -18 -3 -35 -10 -55s-16 -43 -26 -71c-21 -55 -69 -109 -102 -131c-34 -22 -111 -53 -193 -53h-6c-84 1 -122 16 -175 47c-53 30 -93 100 -105 128c-10 25 -28 93 -28 141v7c2 49 19 111 38 147c19 35 82 103 121 123c40 21 109 38 164 38
c70 0 125 -19 168 -46c45 -26 115 -84 132 -141c17 -60 22 -99 22 -134zM629 249c3 16 5 33 5 52c0 25 -3 51 -9 73c-10 37 -31 75 -89 129c-29 27 -52 40 -77 47c-21 5 -42 6 -63 6h-15c-37 0 -67 -8 -93 -18c-27 -10 -77 -37 -109 -71c-33 -35 -51 -91 -57 -135
c-1 -12 -2 -24 -2 -37c0 -34 7 -71 31 -120c32 -69 85 -96 137 -112c27 -8 53 -12 78 -12c26 0 50 4 75 10s48 17 67 30c18 13 36 26 53 42c35 28 60 78 68 116zM561 723c0 -4 -1 -9 -2 -13c0 -3 -1 -7 -2 -9c-2 -4 -5 -8 -14 -9c-10 -2 -125 -4 -143 -4c-6 0 -32 -1 -64 -1
c-54 0 -125 1 -131 2c-16 4 -21 9 -21 21c0 4 1 9 2 16c4 30 11 37 25 37c17 0 182 -3 192 -5c20 -3 145 -5 153 -5c1 0 6 -6 6 -20c0 -4 -1 -6 -1 -10z" />
    <glyph glyph-name="Oslash" unicode="&#xd8;" horiz-adv-x="746" 
d="M698 296c0 -18 -3 -35 -10 -55s-16 -43 -26 -71c-21 -55 -69 -109 -102 -131c-34 -22 -111 -53 -193 -53h-6c-75 1 -113 14 -159 38c-15 7 -23 12 -29 12c-7 0 -12 -5 -20 -15c-1 -1 -2 -2 -2 -3c-10 -12 -20 -21 -25 -26c-6 -6 -13 -11 -21 -11c-6 0 -11 1 -18 6
c-6 5 -18 12 -18 23c0 6 7 21 39 49c9 7 13 16 13 23c0 8 -3 15 -9 24c-15 22 -26 42 -31 55c-10 25 -28 93 -28 141v7c2 49 19 111 38 147c19 35 82 103 121 123c40 21 109 38 164 38c70 0 125 -19 168 -46l14 -8c8 -6 14 -8 21 -8c6 0 11 2 17 8l50 52c1 1 3 2 6 2
c8 0 19 -6 24 -12c4 -5 7 -11 7 -18c0 -11 -8 -26 -37 -51c-11 -11 -16 -18 -16 -25c0 -6 4 -12 11 -20c15 -20 29 -40 35 -61c17 -60 22 -99 22 -134zM629 249c3 16 5 33 5 52c0 25 -3 51 -9 73c-5 19 -14 39 -28 61c-11 15 -18 22 -26 22c-7 0 -14 -6 -24 -15
c-46 -44 -92 -91 -123 -123l-123 -128c-25 -25 -47 -50 -64 -69c-7 -9 -12 -16 -12 -22c0 -7 5 -13 18 -19c15 -8 30 -14 45 -18c27 -8 53 -12 78 -12c26 0 50 4 75 10s48 17 67 30c18 13 36 26 52 40l1 2c35 28 60 78 68 116zM520 517c-22 18 -41 28 -61 33
c-21 5 -42 6 -63 6h-15c-37 0 -67 -8 -93 -18c-27 -10 -77 -37 -109 -71c-33 -35 -51 -91 -57 -135c-1 -12 -2 -24 -2 -37c0 -34 7 -71 31 -120c12 -28 20 -39 30 -39c6 0 13 5 21 13c63 62 130 132 159 164l158 168c6 7 8 14 8 20c0 7 -3 13 -7 16z" />
    <glyph glyph-name="Oslashacute" unicode="&#x1fe;" horiz-adv-x="746" 
d="M698 296c0 -18 -3 -35 -10 -55s-16 -43 -26 -71c-21 -55 -69 -109 -102 -131c-34 -22 -111 -53 -193 -53h-6c-75 1 -113 14 -159 38c-15 7 -23 12 -29 12c-7 0 -12 -5 -20 -15c-1 -1 -2 -2 -2 -3c-10 -12 -20 -21 -25 -26c-6 -6 -13 -11 -21 -11c-6 0 -11 1 -18 6
c-6 5 -18 12 -18 23c0 6 7 21 39 49c9 7 13 16 13 23c0 8 -3 15 -9 24c-15 22 -26 42 -31 55c-10 25 -28 93 -28 141v7c2 49 19 111 38 147c19 35 82 103 121 123c40 21 109 38 164 38c70 0 125 -19 168 -46l14 -8c8 -6 14 -8 21 -8c6 0 11 2 17 8l50 52c1 1 3 2 6 2
c8 0 19 -6 24 -12c4 -5 7 -11 7 -18c0 -11 -8 -26 -37 -51c-11 -11 -16 -18 -16 -25c0 -6 4 -12 11 -20c15 -20 29 -40 35 -61c17 -60 22 -99 22 -134zM629 249c3 16 5 33 5 52c0 25 -3 51 -9 73c-5 19 -14 39 -28 61c-11 15 -18 22 -26 22c-7 0 -14 -6 -24 -15
c-46 -44 -92 -91 -123 -123l-123 -128c-25 -25 -47 -50 -64 -69c-7 -9 -12 -16 -12 -22c0 -7 5 -13 18 -19c15 -8 30 -14 45 -18c27 -8 53 -12 78 -12c26 0 50 4 75 10s48 17 67 30c18 13 36 26 52 40l1 2c35 28 60 78 68 116zM520 517c-22 18 -41 28 -61 33
c-21 5 -42 6 -63 6h-15c-37 0 -67 -8 -93 -18c-27 -10 -77 -37 -109 -71c-33 -35 -51 -91 -57 -135c-1 -12 -2 -24 -2 -37c0 -34 7 -71 31 -120c12 -28 20 -39 30 -39c6 0 13 5 21 13c63 62 130 132 159 164l158 168c6 7 8 14 8 20c0 7 -3 13 -7 16zM559 842
c-33 -32 -62 -49 -88 -79c-12 -15 -33 -30 -49 -46c-21 -22 -32 -36 -49 -56c-7 -9 -12 -16 -28 -16h-5c-9 1 -23 12 -23 23c0 3 1 6 4 10c41 39 105 127 120 155c12 24 20 40 60 40h13c34 -3 56 -5 56 -15c0 -5 -4 -10 -11 -16z" />
    <glyph glyph-name="OE" unicode="&#x152;" horiz-adv-x="1002" 
d="M951 571c0 -18 -9 -33 -25 -33c-23 0 -104 6 -125 6h-74c-21 0 -32 -8 -32 -36c0 -23 -2 -95 -4 -106v-8c0 -14 5 -33 32 -33c23 0 84 2 105 2c22 0 88 -3 108 -3c8 0 11 -8 11 -17v-5c-1 -3 -1 -7 -1 -12c0 -12 -1 -18 -14 -18c-27 0 -88 -4 -104 -4c-7 0 -26 2 -47 4
c-2 0 -4 1 -6 1c-17 2 -35 3 -46 3c-3 0 -6 -1 -8 -1c-13 -2 -34 -11 -34 -42v-5c2 -29 4 -76 4 -92c0 -7 1 -21 2 -35c0 -7 1 -13 1 -19c0 -5 -1 -10 -1 -12v-5c0 -19 14 -40 52 -40c35 0 103 4 119 4c15 0 57 -6 68 -6c5 0 11 -8 15 -22c1 -3 3 -9 3 -15
c0 -10 -5 -21 -24 -21c-39 0 -125 -2 -164 -2s-91 -2 -107 -2c-8 0 -17 0 -23 4c-4 1 -9 7 -9 20c0 3 1 5 1 8c0 5 1 9 1 14c0 23 -6 41 -23 41c-11 0 -27 -8 -50 -31c-28 -27 -103 -67 -186 -67h-5c-84 1 -122 16 -175 47c-53 30 -93 100 -105 128c-10 25 -28 93 -28 141v7
c2 49 19 111 38 147c19 35 82 103 121 123c40 21 109 38 164 38c70 0 124 -15 158 -52c25 -28 44 -39 58 -39c19 0 28 20 28 48v3c0 14 16 27 27 27c25 0 134 -3 162 -3h70c28 0 52 -1 59 -3c9 -2 13 -8 13 -27zM629 249c3 16 5 33 5 52c0 25 -3 51 -9 73
c-10 37 -31 75 -89 129c-29 27 -52 40 -77 47c-21 5 -42 6 -63 6h-15c-37 0 -67 -8 -93 -18c-27 -10 -77 -37 -109 -71c-33 -35 -51 -91 -57 -135c-1 -12 -2 -24 -2 -37c0 -34 7 -71 31 -120c32 -69 85 -96 137 -112c27 -8 53 -12 78 -12c26 0 50 4 75 10s48 17 67 30
c18 13 36 26 53 42c35 28 60 78 68 116z" />
    <glyph glyph-name="P" unicode="P" horiz-adv-x="484" 
d="M427 439c-6 -63 -21 -118 -60 -138c-43 -21 -71 -35 -116 -36c-15 -1 -27 -1 -36 -1c-19 0 -29 1 -38 1c-20 0 -36 -24 -36 -48c0 -17 -2 -42 -2 -73c0 -8 0 -16 1 -24c1 -44 4 -84 4 -99c0 -12 -7 -28 -29 -28h-4c-29 3 -41 8 -41 23c0 1 1 3 1 5c5 33 11 165 11 210
c0 40 4 146 4 198v19c-2 39 -2 96 -4 118c-1 3 -1 9 -1 14c0 4 0 8 2 11c2 4 8 9 32 9h65c21 0 41 0 69 -2c54 -4 108 -22 129 -44c13 -14 27 -28 36 -45c7 -16 14 -35 14 -58c0 -4 -1 -8 -1 -12zM367 450c0 42 -52 68 -81 81c-15 8 -35 10 -52 10h-24c-8 0 -14 0 -20 1h-7
c-24 0 -35 -12 -38 -28c-1 -4 -1 -8 -1 -13c0 -4 0 -8 1 -11c0 -7 1 -14 1 -19c0 -21 0 -80 1 -105c3 -30 18 -39 33 -41c4 -1 8 -2 13 -2c3 0 7 0 11 1l47 4c46 4 58 13 82 33c27 22 33 51 34 89z" />
    <glyph glyph-name="Thorn" unicode="&#xde;" horiz-adv-x="484" 
d="M427 306c-6 -62 -21 -118 -60 -137c-43 -22 -71 -34 -116 -37c-15 -1 -27 -1 -36 -1c-19 0 -29 1 -38 1c-20 0 -36 -23 -36 -46v-20c0 -5 0 -10 2 -13c0 0 1 -2 1 -32c0 -12 -7 -28 -29 -28h-4c-29 3 -41 8 -41 23c0 1 1 3 1 5c5 33 11 33 11 78c0 20 2 57 3 96
c0 24 1 53 1 86v35v5v10c0 80 -6 200 -8 228c0 9 -1 17 -1 23c0 7 1 11 3 14c1 4 6 7 22 7h10c7 0 13 0 19 1c5 0 9 0 12 -1c3 -2 7 -5 7 -25v-9c-1 -13 -5 -35 -5 -55c0 -15 2 -28 9 -37c7 -10 24 -11 45 -11h23h27c54 -5 108 -22 129 -45c13 -14 27 -28 36 -45
c7 -15 14 -34 14 -57c0 -4 -1 -8 -1 -13zM367 317c0 44 -52 69 -81 83c-15 7 -35 9 -52 10c-11 0 -22 -1 -32 -1c-4 0 -8 1 -12 1h-7c-24 0 -35 -12 -38 -29v-26c0 -6 1 -11 1 -16c0 -22 0 -80 1 -106c3 -29 18 -38 33 -41c3 -1 6 -1 11 -1c4 0 8 0 13 1c9 0 22 1 42 4h5
c46 4 58 13 82 33c27 22 33 51 34 88z" />
    <glyph glyph-name="Q" unicode="Q" horiz-adv-x="742" 
d="M701 -50c1 -2 1 -3 1 -4s-1 -3 -6 -4c-15 -3 -30 -6 -44 -7h-6c-9 0 -15 1 -21 6c-9 9 -17 21 -24 33c-9 12 -16 27 -27 37c-11 12 -23 17 -37 17c-9 0 -18 -2 -27 -7c-36 -17 -98 -34 -141 -34s-120 19 -157 39c-35 18 -73 56 -101 90c-25 33 -54 110 -54 171v8
c2 64 15 123 36 161c21 36 86 96 125 117c38 20 109 40 168 40h6c94 -3 147 -34 180 -64c35 -31 64 -66 77 -87s46 -85 46 -140c0 -56 -4 -107 -24 -146c-11 -20 -22 -36 -31 -49s-17 -22 -22 -27c-6 -8 -12 -16 -12 -26c0 -8 4 -17 13 -27c7 -8 17 -21 27 -34
c11 -13 22 -27 31 -36c8 -7 19 -18 24 -27zM633 309c0 42 -14 87 -34 122c-21 35 -63 65 -93 82c-30 18 -90 35 -133 37h-8c-41 0 -72 -11 -104 -24c-38 -15 -70 -45 -92 -73s-51 -71 -53 -122v-16c0 -39 6 -61 20 -104c16 -50 33 -75 69 -110c37 -35 88 -45 129 -52
c17 -3 32 -5 47 -5c21 0 41 3 62 9c38 10 48 28 48 47c0 11 -10 21 -17 29l-13 12c-5 4 -9 8 -11 11l-30 27c-11 9 -24 21 -34 35c-5 5 -5 8 -5 12s2 6 6 8c7 4 17 5 26 6h3c3 0 6 1 9 1c14 0 25 -5 29 -11c8 -10 27 -34 46 -54l11 -14c10 -11 22 -23 39 -23c3 0 6 1 11 2
c12 3 20 6 26 15c4 5 6 10 9 16c4 6 7 14 13 24c22 40 24 71 24 113z" />
    <glyph glyph-name="R" unicode="R" horiz-adv-x="481" 
d="M445 24c4 -7 8 -13 8 -17c0 -2 -2 -5 -8 -5c-23 -1 -41 -4 -56 -4c-14 1 -24 4 -33 17l-2 4c-22 29 -53 71 -65 84s-48 63 -68 84s-36 44 -42 54c-5 10 -20 25 -33 25c-9 0 -16 -8 -16 -34c0 -48 6 -96 6 -142c0 -18 1 -29 1 -39c0 -14 -1 -26 -1 -35c0 -4 -1 -13 -4 -15
c-1 -2 -5 -4 -15 -4c-3 0 -6 0 -11 1c-9 1 -17 2 -24 3c-6 2 -11 4 -14 7c-5 4 -8 12 -8 28c0 5 0 10 1 15c5 58 14 158 14 200c0 44 -3 185 -4 222c-1 18 -1 41 -1 61c-1 20 -1 39 -4 49v6c0 9 5 16 22 16h5c28 -2 92 -4 123 -4c32 0 105 -9 126 -25c23 -20 69 -82 69 -117
v-3c-4 -40 -15 -100 -51 -127c-19 -15 -30 -23 -40 -29c-9 -5 -16 -8 -29 -11c-24 -5 -50 -18 -50 -37c0 -9 5 -19 19 -30c17 -15 34 -31 46 -46l70 -68c12 -12 24 -25 31 -35l18 -22c7 -9 15 -18 20 -27zM344 441c0 19 -5 32 -13 44c-6 11 -15 20 -25 28
c-20 21 -80 29 -108 32c-3 0 -7 1 -12 1c-19 0 -41 -5 -45 -13c-3 -5 -5 -12 -7 -19l-8 -30c-3 -13 -5 -28 -5 -46v-67c0 -29 9 -44 28 -50c8 -2 17 -2 27 -2s21 1 33 1c24 0 42 4 57 11c14 6 26 15 39 23c29 18 39 53 39 87z" />
    <glyph glyph-name="Racute" unicode="&#x154;" horiz-adv-x="481" 
d="M445 24c4 -7 8 -13 8 -17c0 -2 -2 -5 -8 -5c-23 -1 -41 -4 -56 -4c-14 1 -24 4 -33 17l-2 4c-22 29 -53 71 -65 84s-48 63 -68 84s-36 44 -42 54c-5 10 -20 25 -33 25c-9 0 -16 -8 -16 -34c0 -48 6 -96 6 -142c0 -18 1 -29 1 -39c0 -14 -1 -26 -1 -35c0 -4 -1 -13 -4 -15
c-1 -2 -5 -4 -15 -4c-3 0 -6 0 -11 1c-9 1 -17 2 -24 3c-6 2 -11 4 -14 7c-5 4 -8 12 -8 28c0 5 0 10 1 15c5 58 14 158 14 200c0 44 -3 185 -4 222c-1 18 -1 41 -1 61c-1 20 -1 39 -4 49v6c0 9 5 16 22 16h5c28 -2 92 -4 123 -4c32 0 105 -9 126 -25c23 -20 69 -82 69 -117
v-3c-4 -40 -15 -100 -51 -127c-19 -15 -30 -23 -40 -29c-9 -5 -16 -8 -29 -11c-24 -5 -50 -18 -50 -37c0 -9 5 -19 19 -30c17 -15 34 -31 46 -46l70 -68c12 -12 24 -25 31 -35l18 -22c7 -9 15 -18 20 -27zM344 441c0 19 -5 32 -13 44c-6 11 -15 20 -25 28
c-20 21 -80 29 -108 32c-3 0 -7 1 -12 1c-19 0 -41 -5 -45 -13c-3 -5 -5 -12 -7 -19l-8 -30c-3 -13 -5 -28 -5 -46v-67c0 -29 9 -44 28 -50c8 -2 17 -2 27 -2s21 1 33 1c24 0 42 4 57 11c14 6 26 15 39 23c29 18 39 53 39 87zM383 842c-33 -32 -62 -49 -88 -79
c-12 -15 -33 -30 -49 -46c-21 -22 -32 -36 -49 -56c-7 -9 -12 -16 -28 -16h-5c-9 1 -23 12 -23 23c0 3 1 6 4 10c41 39 105 127 120 155c12 24 20 40 60 40h13c34 -3 56 -5 56 -15c0 -5 -4 -10 -11 -16z" />
    <glyph glyph-name="Rcaron" unicode="&#x158;" horiz-adv-x="481" 
d="M434 845c-40 -40 -105 -128 -120 -157c-12 -23 -20 -39 -60 -39c-4 0 -8 1 -14 1c-5 0 -9 -1 -12 -1c-41 0 -49 16 -61 39c-15 29 -81 111 -119 157c-4 3 -4 7 -4 10c0 11 11 23 24 23c19 0 36 -17 45 -29c15 -18 25 -29 46 -51c16 -15 28 -32 42 -45
c22 -21 32 -32 41 -32s17 8 31 25l1 2l10 11c13 14 34 30 50 46c22 23 30 38 48 56c7 10 13 17 31 17h3c9 -1 23 -13 23 -24c0 -3 -1 -6 -5 -9zM445 24c4 -7 8 -13 8 -17c0 -2 -2 -5 -8 -5c-23 -1 -41 -4 -56 -4c-14 1 -24 4 -33 17l-2 4c-22 29 -53 71 -65 84
s-48 63 -68 84s-36 44 -42 54c-5 10 -20 25 -33 25c-9 0 -16 -8 -16 -34c0 -48 6 -96 6 -142c0 -18 1 -29 1 -39c0 -14 -1 -26 -1 -35c0 -4 -1 -13 -4 -15c-1 -2 -5 -4 -15 -4c-3 0 -6 0 -11 1c-9 1 -17 2 -24 3c-6 2 -11 4 -14 7c-5 4 -8 12 -8 28c0 5 0 10 1 15
c5 58 14 158 14 200c0 44 -3 185 -4 222c-1 18 -1 41 -1 61c-1 20 -1 39 -4 49v6c0 9 5 16 22 16h5c28 -2 92 -4 123 -4c32 0 105 -9 126 -25c23 -20 69 -82 69 -117v-3c-4 -40 -15 -100 -51 -127c-19 -15 -30 -23 -40 -29c-9 -5 -16 -8 -29 -11c-24 -5 -50 -18 -50 -37
c0 -9 5 -19 19 -30c17 -15 34 -31 46 -46l70 -68c12 -12 24 -25 31 -35l18 -22c7 -9 15 -18 20 -27zM344 441c0 19 -5 32 -13 44c-6 11 -15 20 -25 28c-20 21 -80 29 -108 32c-3 0 -7 1 -12 1c-19 0 -41 -5 -45 -13c-3 -5 -5 -12 -7 -19l-8 -30c-3 -13 -5 -28 -5 -46v-67
c0 -29 9 -44 28 -50c8 -2 17 -2 27 -2s21 1 33 1c24 0 42 4 57 11c14 6 26 15 39 23c29 18 39 53 39 87z" />
    <glyph glyph-name="uni0156" unicode="&#x156;" horiz-adv-x="481" 
d="M302 -106c-26 -33 -31 -50 -45 -71c-15 -21 -30 -44 -34 -54c-2 -6 -5 -11 -24 -11c-2 0 -6 1 -9 1s-23 1 -25 2s-3 3 -3 5c0 3 1 7 3 13c2 13 8 27 13 42c6 14 11 29 11 44c1 13 3 23 7 29c2 3 5 6 6 9c3 3 4 6 5 8c3 10 37 14 52 14c21 0 48 -4 48 -18
c0 -4 -1 -8 -5 -13zM445 24c4 -7 8 -13 8 -17c0 -2 -2 -5 -8 -5c-23 -1 -41 -4 -56 -4c-14 1 -24 4 -33 17l-2 4c-22 29 -53 71 -65 84s-48 63 -68 84s-36 44 -42 54c-5 10 -20 25 -33 25c-9 0 -16 -8 -16 -34c0 -48 6 -96 6 -142c0 -18 1 -29 1 -39c0 -14 -1 -26 -1 -35
c0 -4 -1 -13 -4 -15c-1 -2 -5 -4 -15 -4c-3 0 -6 0 -11 1c-9 1 -17 2 -24 3c-6 2 -11 4 -14 7c-5 4 -8 12 -8 28c0 5 0 10 1 15c5 58 14 158 14 200c0 44 -3 185 -4 222c-1 18 -1 41 -1 61c-1 20 -1 39 -4 49v6c0 9 5 16 22 16h5c28 -2 92 -4 123 -4c32 0 105 -9 126 -25
c23 -20 69 -82 69 -117v-3c-4 -40 -15 -100 -51 -127c-19 -15 -30 -23 -40 -29c-9 -5 -16 -8 -29 -11c-24 -5 -50 -18 -50 -37c0 -9 5 -19 19 -30c17 -15 34 -31 46 -46l70 -68c12 -12 24 -25 31 -35l18 -22c7 -9 15 -18 20 -27zM344 441c0 19 -5 32 -13 44
c-6 11 -15 20 -25 28c-20 21 -80 29 -108 32c-3 0 -7 1 -12 1c-19 0 -41 -5 -45 -13c-3 -5 -5 -12 -7 -19l-8 -30c-3 -13 -5 -28 -5 -46v-67c0 -29 9 -44 28 -50c8 -2 17 -2 27 -2s21 1 33 1c24 0 42 4 57 11c14 6 26 15 39 23c29 18 39 53 39 87z" />
    <glyph glyph-name="S" unicode="S" horiz-adv-x="484" 
d="M442 137c-3 -33 -17 -57 -36 -84c-20 -27 -39 -47 -67 -56c-21 -6 -51 -15 -82 -15h-7c-38 0 -85 11 -109 29c-18 15 -35 34 -51 50c-5 6 -14 15 -16 16c-11 10 -25 24 -25 36c0 4 2 9 6 13c16 19 38 25 49 25c7 0 20 -6 27 -24c8 -23 27 -46 55 -59
c22 -11 40 -19 68 -19c3 0 7 1 12 1c35 1 63 19 84 41c15 16 28 35 28 60c0 8 -2 17 -5 27l-2 3c-6 15 -12 30 -22 44s-25 26 -48 37c-45 22 -105 55 -139 74c-31 19 -59 65 -65 85c-4 18 -8 50 -8 72c0 4 1 8 1 12c2 21 13 51 35 70c21 20 58 46 110 46h6
c59 -1 97 -13 122 -40c27 -28 43 -55 53 -74c3 -5 4 -9 4 -13c0 -8 -5 -14 -17 -18c-9 -4 -18 -7 -27 -7c-13 0 -25 6 -35 23c-24 36 -48 59 -86 59h-6c-38 -3 -67 -19 -77 -36c-7 -13 -10 -29 -10 -44c0 -4 0 -8 1 -12c3 -18 8 -55 49 -78c38 -22 100 -45 134 -63
c31 -17 63 -51 75 -82c12 -28 22 -56 22 -85c0 -5 0 -9 -1 -14z" />
    <glyph glyph-name="Scaron" unicode="&#x160;" horiz-adv-x="484" 
d="M438 845c-40 -40 -105 -128 -120 -157c-12 -23 -20 -39 -60 -39c-4 0 -8 1 -14 1c-5 0 -9 -1 -12 -1c-41 0 -49 16 -61 39c-15 29 -81 111 -119 157c-4 3 -4 7 -4 10c0 11 11 23 24 23c19 0 36 -17 45 -29c15 -18 25 -29 46 -51c16 -15 28 -32 42 -45
c22 -21 32 -32 41 -32s17 8 31 25l1 2l10 11c13 14 34 30 50 46c22 23 30 38 48 56c7 10 13 17 31 17h3c9 -1 23 -13 23 -24c0 -3 -1 -6 -5 -9zM442 137c-3 -33 -17 -57 -36 -84c-20 -27 -39 -47 -67 -56c-21 -6 -51 -15 -82 -15h-7c-38 0 -85 11 -109 29
c-18 15 -35 34 -51 50c-5 6 -14 15 -16 16c-11 10 -25 24 -25 36c0 4 2 9 6 13c16 19 38 25 49 25c7 0 20 -6 27 -24c8 -23 27 -46 55 -59c22 -11 40 -19 68 -19c3 0 7 1 12 1c35 1 63 19 84 41c15 16 28 35 28 60c0 8 -2 17 -5 27l-2 3c-6 15 -12 30 -22 44s-25 26 -48 37
c-45 22 -105 55 -139 74c-31 19 -59 65 -65 85c-4 18 -8 50 -8 72c0 4 1 8 1 12c2 21 13 51 35 70c21 20 58 46 110 46h6c59 -1 97 -13 122 -40c27 -28 43 -55 53 -74c3 -5 4 -9 4 -13c0 -8 -5 -14 -17 -18c-9 -4 -18 -7 -27 -7c-13 0 -25 6 -35 23c-24 36 -48 59 -86 59h-6
c-38 -3 -67 -19 -77 -36c-7 -13 -10 -29 -10 -44c0 -4 0 -8 1 -12c3 -18 8 -55 49 -78c38 -22 100 -45 134 -63c31 -17 63 -51 75 -82c12 -28 22 -56 22 -85c0 -5 0 -9 -1 -14z" />
    <glyph glyph-name="Sacute" unicode="&#x15a;" horiz-adv-x="484" 
d="M442 137c-3 -33 -17 -57 -36 -84c-20 -27 -39 -47 -67 -56c-21 -6 -51 -15 -82 -15h-7c-38 0 -85 11 -109 29c-18 15 -35 34 -51 50c-5 6 -14 15 -16 16c-11 10 -25 24 -25 36c0 4 2 9 6 13c16 19 38 25 49 25c7 0 20 -6 27 -24c8 -23 27 -46 55 -59
c22 -11 40 -19 68 -19c3 0 7 1 12 1c35 1 63 19 84 41c15 16 28 35 28 60c0 8 -2 17 -5 27l-2 3c-6 15 -12 30 -22 44s-25 26 -48 37c-45 22 -105 55 -139 74c-31 19 -59 65 -65 85c-4 18 -8 50 -8 72c0 4 1 8 1 12c2 21 13 51 35 70c21 20 58 46 110 46h6
c59 -1 97 -13 122 -40c27 -28 43 -55 53 -74c3 -5 4 -9 4 -13c0 -8 -5 -14 -17 -18c-9 -4 -18 -7 -27 -7c-13 0 -25 6 -35 23c-24 36 -48 59 -86 59h-6c-38 -3 -67 -19 -77 -36c-7 -13 -10 -29 -10 -44c0 -4 0 -8 1 -12c3 -18 8 -55 49 -78c38 -22 100 -45 134 -63
c31 -17 63 -51 75 -82c12 -28 22 -56 22 -85c0 -5 0 -9 -1 -14zM418 842c-33 -32 -62 -49 -88 -79c-12 -15 -33 -30 -49 -46c-21 -22 -32 -36 -49 -56c-7 -9 -12 -16 -28 -16h-5c-9 1 -23 12 -23 23c0 3 1 6 4 10c41 39 105 127 120 155c12 24 20 40 60 40h13
c34 -3 56 -5 56 -15c0 -5 -4 -10 -11 -16z" />
    <glyph glyph-name="Scircumflex" unicode="&#x15c;" horiz-adv-x="484" 
d="M442 137c-3 -33 -17 -57 -36 -84c-20 -27 -39 -47 -67 -56c-21 -6 -51 -15 -82 -15h-7c-38 0 -85 11 -109 29c-18 15 -35 34 -51 50c-5 6 -14 15 -16 16c-11 10 -25 24 -25 36c0 4 2 9 6 13c16 19 38 25 49 25c7 0 20 -6 27 -24c8 -23 27 -46 55 -59
c22 -11 40 -19 68 -19c3 0 7 1 12 1c35 1 63 19 84 41c15 16 28 35 28 60c0 8 -2 17 -5 27l-2 3c-6 15 -12 30 -22 44s-25 26 -48 37c-45 22 -105 55 -139 74c-31 19 -59 65 -65 85c-4 18 -8 50 -8 72c0 4 1 8 1 12c2 21 13 51 35 70c21 20 58 46 110 46h6
c59 -1 97 -13 122 -40c27 -28 43 -55 53 -74c3 -5 4 -9 4 -13c0 -8 -5 -14 -17 -18c-9 -4 -18 -7 -27 -7c-13 0 -25 6 -35 23c-24 36 -48 59 -86 59h-6c-38 -3 -67 -19 -77 -36c-7 -13 -10 -29 -10 -44c0 -4 0 -8 1 -12c3 -18 8 -55 49 -78c38 -22 100 -45 134 -63
c31 -17 63 -51 75 -82c12 -28 22 -56 22 -85c0 -5 0 -9 -1 -14zM443 673c3 -4 4 -7 4 -11c0 -10 -12 -22 -25 -22c-19 0 -36 17 -44 28c-15 19 -25 29 -47 50c-15 16 -27 34 -41 46c-22 21 -32 32 -42 32s-19 -13 -42 -38c-12 -15 -33 -30 -49 -46c-21 -22 -32 -35 -49 -56
c-7 -9 -12 -16 -28 -16h-5c-9 1 -23 12 -23 23c0 3 1 6 4 10c41 40 105 128 120 155c13 24 20 40 60 40h27c38 0 47 -15 59 -37l2 -3c15 -27 81 -110 119 -155z" />
    <glyph glyph-name="uni0218" unicode="&#x218;" horiz-adv-x="484" 
d="M302 -106c-26 -33 -31 -50 -45 -71c-15 -21 -30 -44 -34 -54c-2 -6 -5 -11 -24 -11c-2 0 -6 1 -9 1s-23 1 -25 2s-3 3 -3 5c0 3 1 7 3 13c2 13 8 27 13 42c6 14 11 29 11 44c1 13 3 23 7 29c2 3 5 6 6 9c3 3 4 6 5 8c3 10 37 14 52 14c21 0 48 -4 48 -18
c0 -4 -1 -8 -5 -13zM442 137c-3 -33 -17 -57 -36 -84c-20 -27 -39 -47 -67 -56c-21 -6 -51 -15 -82 -15h-7c-38 0 -85 11 -109 29c-18 15 -35 34 -51 50c-5 6 -14 15 -16 16c-11 10 -25 24 -25 36c0 4 2 9 6 13c16 19 38 25 49 25c7 0 20 -6 27 -24c8 -23 27 -46 55 -59
c22 -11 40 -19 68 -19c3 0 7 1 12 1c35 1 63 19 84 41c15 16 28 35 28 60c0 8 -2 17 -5 27l-2 3c-6 15 -12 30 -22 44s-25 26 -48 37c-45 22 -105 55 -139 74c-31 19 -59 65 -65 85c-4 18 -8 50 -8 72c0 4 1 8 1 12c2 21 13 51 35 70c21 20 58 46 110 46h6
c59 -1 97 -13 122 -40c27 -28 43 -55 53 -74c3 -5 4 -9 4 -13c0 -8 -5 -14 -17 -18c-9 -4 -18 -7 -27 -7c-13 0 -25 6 -35 23c-24 36 -48 59 -86 59h-6c-38 -3 -67 -19 -77 -36c-7 -13 -10 -29 -10 -44c0 -4 0 -8 1 -12c3 -18 8 -55 49 -78c38 -22 100 -45 134 -63
c31 -17 63 -51 75 -82c12 -28 22 -56 22 -85c0 -5 0 -9 -1 -14z" />
    <glyph glyph-name="uni015E" unicode="&#x15e;" horiz-adv-x="484" 
d="M442 137c-3 -33 -17 -57 -36 -84c-20 -27 -39 -47 -67 -56c-27 -8 -40 -12 -67 -14c-10 0 -13 -1 -19 -9c-5 -7 -10 -14 -12 -19c-3 -4 -4 -8 -4 -11c0 -11 9 -19 22 -19c4 0 8 1 12 2c5 2 12 3 18 3c30 0 66 -19 72 -44c3 -8 4 -15 4 -23c0 -27 -14 -51 -37 -67
c-19 -15 -58 -30 -103 -30c-48 0 -73 10 -89 17c-14 7 -20 11 -20 20c0 4 2 9 5 17c6 12 10 16 15 16s9 -4 14 -5l3 -1c17 -7 44 -18 74 -19h7c31 0 73 13 78 35c0 3 1 5 1 7c0 21 -18 38 -46 43h-11c-23 0 -30 -9 -61 -12c-3 -1 -5 -1 -7 -1c-11 0 -15 5 -15 13
c0 10 8 25 15 35c5 9 11 27 17 40c1 1 1 4 1 5c0 6 -5 10 -10 12c-18 4 -40 13 -55 23c-18 15 -35 33 -51 50c-12 14 -41 34 -41 52c0 4 2 9 6 13c17 20 36 23 49 25c7 0 20 -6 27 -24c8 -23 27 -46 55 -59c22 -11 40 -19 68 -19c3 0 7 1 12 1c35 1 63 19 84 41
c15 16 28 35 28 60c0 8 -2 17 -5 27l-2 3c-6 15 -12 30 -22 44s-25 26 -48 37c-45 22 -105 55 -139 74c-31 19 -59 65 -65 85c-4 18 -8 50 -8 72c0 4 1 8 1 12c2 21 13 51 35 70c21 20 58 46 110 46h6c59 -1 97 -13 122 -40c27 -28 43 -55 53 -74c3 -5 4 -9 4 -13
c0 -8 -5 -14 -17 -18c-9 -4 -18 -7 -27 -7c-13 0 -25 6 -35 23c-24 36 -48 59 -86 59h-6c-38 -3 -67 -19 -77 -36c-7 -13 -10 -29 -10 -44c0 -4 0 -8 1 -12c3 -18 8 -55 49 -78c38 -22 100 -45 134 -63c31 -17 63 -51 75 -82c12 -28 22 -56 22 -85c0 -5 0 -9 -1 -14z" />
    <glyph glyph-name="T" unicode="T" horiz-adv-x="476" 
d="M439 587v-7c-4 -45 -10 -47 -33 -47c-29 0 -45 4 -70 6c-9 1 -19 2 -28 2h-10c-16 -4 -23 -16 -23 -40c0 -29 -2 -91 -2 -142c0 -25 0 -47 2 -60c1 -8 1 -17 1 -28c0 -40 -4 -100 -4 -141c0 -12 0 -22 1 -30c3 -44 6 -75 6 -87c0 -7 -2 -21 -35 -21h-8
c-35 2 -50 12 -50 35c0 4 0 9 1 14c9 39 16 102 16 175c0 72 8 160 8 216c0 14 1 27 2 38c0 4 1 8 1 12c0 6 -1 12 -2 16c-1 18 -10 31 -30 37c-11 2 -21 3 -32 3c-9 0 -18 0 -25 -1c-19 -1 -34 -4 -45 -4c-22 0 -47 4 -49 33v5c0 29 12 39 24 39h4c22 -4 89 -7 142 -7
c14 0 26 0 37 1c32 2 85 5 95 5h8c20 1 38 2 50 2c6 0 11 -1 15 -1h15c5 0 9 -1 11 -2c3 -2 7 -5 7 -21z" />
    <glyph glyph-name="Tcaron" unicode="&#x164;" horiz-adv-x="476" 
d="M430 854c-40 -40 -105 -128 -120 -157c-12 -23 -20 -39 -60 -39c-4 0 -8 1 -14 1c-5 0 -9 -1 -12 -1c-41 0 -49 16 -61 39c-15 29 -81 111 -119 157c-4 3 -4 7 -4 10c0 11 11 23 24 23c19 0 36 -17 45 -29c15 -18 25 -29 46 -51c16 -15 28 -32 42 -45
c22 -21 32 -32 41 -32s17 8 31 25l1 2l10 11c13 14 34 30 50 46c22 23 30 38 48 56c7 10 13 17 31 17h3c9 -1 23 -13 23 -24c0 -3 -1 -6 -5 -9zM439 587v-7c-4 -45 -10 -47 -33 -47c-29 0 -45 4 -70 6c-9 1 -19 2 -28 2h-10c-16 -4 -23 -16 -23 -40c0 -29 -2 -91 -2 -142
c0 -25 0 -47 2 -60c1 -8 1 -17 1 -28c0 -40 -4 -100 -4 -141c0 -12 0 -22 1 -30c3 -44 6 -75 6 -87c0 -7 -2 -21 -35 -21h-8c-35 2 -50 12 -50 35c0 4 0 9 1 14c9 39 16 102 16 175c0 72 8 160 8 216c0 14 1 27 2 38c0 4 1 8 1 12c0 6 -1 12 -2 16c-1 18 -10 31 -30 37
c-11 2 -21 3 -32 3c-9 0 -18 0 -25 -1c-19 -1 -34 -4 -45 -4c-22 0 -47 4 -49 33v5c0 29 12 39 24 39h4c22 -4 89 -7 142 -7c14 0 26 0 37 1c32 2 85 5 95 5h8c20 1 38 2 50 2c6 0 11 -1 15 -1h15c5 0 9 -1 11 -2c3 -2 7 -5 7 -21z" />
    <glyph glyph-name="Tcommaaccent" unicode="&#x162;" horiz-adv-x="476" 
d="M220 -234c-47 0 -73 10 -88 17s-20 11 -20 20c0 4 2 9 5 17c6 12 10 16 14 16c5 0 9 -4 14 -5l4 -1c16 -7 44 -18 74 -19h6c31 0 74 13 79 35c0 3 1 5 1 7c0 21 -19 38 -46 43h-12c-22 0 -29 -9 -61 -12c-2 -1 -5 -1 -6 -1c-11 0 -15 5 -15 13c0 10 8 25 15 35
c5 10 12 32 22 50c4 7 2 15 -7 20s-13 14 -13 26c0 4 0 9 1 14c9 39 16 102 16 175c0 72 8 160 8 216c0 14 1 27 2 38c0 4 1 8 1 12c0 6 -1 12 -2 16c-1 18 -10 31 -30 37c-11 2 -21 3 -32 3c-9 0 -18 0 -25 -1c-19 -1 -34 -4 -45 -4c-22 0 -47 4 -49 33v5c0 29 12 39 24 39
h4c22 -4 89 -7 142 -7c14 0 26 0 37 1c32 2 85 5 95 5h8c20 1 38 2 50 2c6 0 11 -1 15 -1h15c5 0 9 -1 11 -2c3 -2 7 -5 7 -21v-7c-4 -45 -10 -47 -33 -47c-29 0 -45 4 -70 6c-9 1 -19 2 -28 2h-10c-16 -4 -23 -16 -23 -40c0 -29 -2 -91 -2 -142c0 -25 0 -47 2 -60
c1 -8 1 -17 1 -28c0 -40 -4 -100 -4 -141c0 -12 0 -22 1 -30c3 -44 6 -75 6 -87c0 -5 -1 -12 -9 -17c-7 -2 -13 -8 -20 -17c-6 -9 -11 -19 -14 -24c-2 -4 -3 -8 -3 -11c0 -11 8 -19 21 -19c5 0 9 1 13 2c5 2 12 3 17 3c30 0 66 -19 73 -44c2 -8 3 -15 3 -23
c0 -27 -14 -51 -36 -67c-20 -15 -59 -30 -104 -30z" />
    <glyph glyph-name="uni021A" unicode="&#x21a;" horiz-adv-x="476" 
d="M298 -106c-26 -33 -31 -50 -45 -71c-15 -21 -30 -44 -34 -54c-2 -6 -5 -11 -24 -11c-2 0 -6 1 -9 1s-23 1 -25 2s-3 3 -3 5c0 3 1 7 3 13c2 13 8 27 13 42c6 14 11 29 11 44c1 13 3 23 7 29c2 3 5 6 6 9c3 3 4 6 5 8c3 10 37 14 52 14c21 0 48 -4 48 -18
c0 -4 -1 -8 -5 -13zM439 587v-7c-4 -45 -10 -47 -33 -47c-29 0 -45 4 -70 6c-9 1 -19 2 -28 2h-10c-16 -4 -23 -16 -23 -40c0 -29 -2 -91 -2 -142c0 -25 0 -47 2 -60c1 -8 1 -17 1 -28c0 -40 -4 -100 -4 -141c0 -12 0 -22 1 -30c3 -44 6 -75 6 -87c0 -7 -2 -21 -35 -21h-8
c-35 2 -50 12 -50 35c0 4 0 9 1 14c9 39 16 102 16 175c0 72 8 160 8 216c0 14 1 27 2 38c0 4 1 8 1 12c0 6 -1 12 -2 16c-1 18 -10 31 -30 37c-11 2 -21 3 -32 3c-9 0 -18 0 -25 -1c-19 -1 -34 -4 -45 -4c-22 0 -47 4 -49 33v5c0 29 12 39 24 39h4c22 -4 89 -7 142 -7
c14 0 26 0 37 1c32 2 85 5 95 5h8c20 1 38 2 50 2c6 0 11 -1 15 -1h15c5 0 9 -1 11 -2c3 -2 7 -5 7 -21z" />
    <glyph glyph-name="Tbar" unicode="&#x166;" horiz-adv-x="476" 
d="M416 279c0 -4 -1 -9 -2 -13c0 -4 -1 -7 -3 -10c-1 -4 -5 -8 -14 -9c-7 -1 -69 -2 -109 -3c-9 0 -12 -3 -12 -14c-1 -34 -4 -72 -4 -100c0 -12 0 -22 1 -30c3 -44 6 -75 6 -87c0 -7 -2 -21 -35 -21h-8c-35 2 -50 12 -50 35c0 4 0 9 1 14c9 39 16 102 16 175v12
c0 7 -5 14 -12 14c-55 0 -125 1 -131 3c-16 4 -21 8 -21 21c0 4 1 9 2 15c4 30 10 37 25 37c10 0 74 -1 125 -2c11 0 15 7 15 15l5 101c1 17 2 29 2 38c0 4 1 8 1 12c0 6 -1 12 -2 16c-1 18 -10 31 -30 37c-11 2 -21 3 -32 3c-9 0 -18 0 -25 -1c-19 -1 -34 -4 -45 -4
c-22 0 -47 4 -49 33v5c0 29 12 39 24 39h4c22 -4 89 -7 142 -7c14 0 26 0 37 1l103 5c20 1 38 2 50 2c6 0 11 -1 15 -1h15c5 0 9 -1 11 -2c3 -2 7 -5 7 -21v-7c-4 -45 -10 -47 -33 -47c-29 0 -45 4 -70 6c-9 1 -19 2 -28 2h-10c-16 -4 -23 -16 -23 -40c0 -29 -2 -91 -2 -142
v-33c0 -12 9 -15 14 -15c44 -1 118 -3 124 -3c0 0 5 -6 5 -20v-9z" />
    <glyph glyph-name="U" unicode="U" horiz-adv-x="617" 
d="M552 559v-20c0 -28 -14 -192 -14 -250v-60c0 -13 0 -26 -1 -38c-2 -34 -8 -67 -25 -95c-33 -58 -82 -119 -191 -119c-5 0 -10 1 -15 1c-120 6 -226 86 -230 195v74c0 44 0 91 1 135v14c0 14 2 58 2 80v21c0 15 0 27 -1 33c-1 7 -2 17 -3 28c-1 5 -2 11 -2 16s1 10 2 15
c2 17 11 29 36 29h5c10 -1 19 -1 25 -2c7 -1 10 -3 13 -5c4 -5 7 -13 7 -37v-8c-1 -59 -13 -172 -13 -239c0 -66 2 -145 12 -183c11 -42 53 -67 86 -77c31 -10 53 -14 72 -14c18 0 80 6 108 43c27 35 41 55 45 147c1 45 3 90 3 130c0 39 -2 74 -3 99c-4 49 -10 88 -10 109v7
c0 8 0 17 5 23c1 4 6 8 20 8c3 0 7 0 12 -1l31 -5c7 -2 12 -4 15 -7c6 -6 8 -19 8 -47z" />
    <glyph glyph-name="Udieresis" unicode="&#xdc;" horiz-adv-x="617" 
d="M552 559v-20c0 -28 -14 -192 -14 -250v-60c0 -13 0 -26 -1 -38c-2 -34 -8 -67 -25 -95c-33 -58 -82 -119 -191 -119c-5 0 -10 1 -15 1c-120 6 -226 86 -230 195v74c0 44 0 91 1 135v14c0 14 2 58 2 80v21c0 15 0 27 -1 33c-1 7 -2 17 -3 28c-1 5 -2 11 -2 16s1 10 2 15
c2 17 11 29 36 29h5c10 -1 19 -1 25 -2c7 -1 10 -3 13 -5c4 -5 7 -13 7 -37v-8c-1 -59 -13 -172 -13 -239c0 -66 2 -145 12 -183c11 -42 53 -67 86 -77c31 -10 53 -14 72 -14c18 0 80 6 108 43c27 35 41 55 45 147c1 45 3 90 3 130c0 39 -2 74 -3 99c-4 49 -10 88 -10 109v7
c0 8 0 17 5 23c1 4 6 8 20 8c3 0 7 0 12 -1l31 -5c7 -2 12 -4 15 -7c6 -6 8 -19 8 -47zM454 728c0 -31 -19 -62 -49 -62c-33 0 -58 19 -58 52v4c2 36 30 52 54 52c23 0 53 -19 53 -46zM281 721c-1 -23 -25 -58 -51 -60c-28 3 -64 27 -65 59c2 37 25 57 55 57h3
c26 -2 57 -27 58 -56z" />
    <glyph glyph-name="Uacute" unicode="&#xda;" horiz-adv-x="617" 
d="M552 559v-20c0 -28 -14 -192 -14 -250v-60c0 -13 0 -26 -1 -38c-2 -34 -8 -67 -25 -95c-33 -58 -82 -119 -191 -119c-5 0 -10 1 -15 1c-120 6 -226 86 -230 195v74c0 44 0 91 1 135v14c0 14 2 58 2 80v21c0 15 0 27 -1 33c-1 7 -2 17 -3 28c-1 5 -2 11 -2 16s1 10 2 15
c2 17 11 29 36 29h5c10 -1 19 -1 25 -2c7 -1 10 -3 13 -5c4 -5 7 -13 7 -37v-8c-1 -59 -13 -172 -13 -239c0 -66 2 -145 12 -183c11 -42 53 -67 86 -77c31 -10 53 -14 72 -14c18 0 80 6 108 43c27 35 41 55 45 147c1 45 3 90 3 130c0 39 -2 74 -3 99c-4 49 -10 88 -10 109v7
c0 8 0 17 5 23c1 4 6 8 20 8c3 0 7 0 12 -1l31 -5c7 -2 12 -4 15 -7c6 -6 8 -19 8 -47zM498 842c-33 -32 -62 -49 -88 -79c-12 -15 -33 -30 -49 -46c-21 -22 -32 -36 -49 -56c-7 -9 -12 -16 -28 -16h-5c-9 1 -23 12 -23 23c0 3 1 6 4 10c41 39 105 127 120 155
c12 24 20 40 60 40h13c34 -3 56 -5 56 -15c0 -5 -4 -10 -11 -16z" />
    <glyph glyph-name="Ucircumflex" unicode="&#xdb;" horiz-adv-x="617" 
d="M552 559v-20c0 -28 -14 -192 -14 -250v-60c0 -13 0 -26 -1 -38c-2 -34 -8 -67 -25 -95c-33 -58 -82 -119 -191 -119c-5 0 -10 1 -15 1c-120 6 -226 86 -230 195v74c0 44 0 91 1 135v14c0 14 2 58 2 80v21c0 15 0 27 -1 33c-1 7 -2 17 -3 28c-1 5 -2 11 -2 16s1 10 2 15
c2 17 11 29 36 29h5c10 -1 19 -1 25 -2c7 -1 10 -3 13 -5c4 -5 7 -13 7 -37v-8c-1 -59 -13 -172 -13 -239c0 -66 2 -145 12 -183c11 -42 53 -67 86 -77c31 -10 53 -14 72 -14c18 0 80 6 108 43c27 35 41 55 45 147c1 45 3 90 3 130c0 39 -2 74 -3 99c-4 49 -10 88 -10 109v7
c0 8 0 17 5 23c1 4 6 8 20 8c3 0 7 0 12 -1l31 -5c7 -2 12 -4 15 -7c6 -6 8 -19 8 -47zM502 673c3 -4 4 -7 4 -11c0 -10 -12 -22 -25 -22c-19 0 -36 17 -44 28c-15 19 -25 29 -47 50c-15 16 -27 34 -41 46c-22 21 -32 32 -42 32s-19 -13 -42 -38c-12 -15 -33 -30 -49 -46
c-21 -22 -32 -35 -49 -56c-7 -9 -12 -16 -28 -16h-5c-9 1 -23 12 -23 23c0 3 1 6 4 10c41 40 105 128 120 155c13 24 20 40 60 40h27c38 0 47 -15 59 -37l2 -3c15 -27 81 -110 119 -155z" />
    <glyph glyph-name="Ugrave" unicode="&#xd9;" horiz-adv-x="617" 
d="M552 559v-20c0 -28 -14 -192 -14 -250v-60c0 -13 0 -26 -1 -38c-2 -34 -8 -67 -25 -95c-33 -58 -82 -119 -191 -119c-5 0 -10 1 -15 1c-120 6 -226 86 -230 195v74c0 44 0 91 1 135v14c0 14 2 58 2 80v21c0 15 0 27 -1 33c-1 7 -2 17 -3 28c-1 5 -2 11 -2 16s1 10 2 15
c2 17 11 29 36 29h5c10 -1 19 -1 25 -2c7 -1 10 -3 13 -5c4 -5 7 -13 7 -37v-8c-1 -59 -13 -172 -13 -239c0 -66 2 -145 12 -183c11 -42 53 -67 86 -77c31 -10 53 -14 72 -14c18 0 80 6 108 43c27 35 41 55 45 147c1 45 3 90 3 130c0 39 -2 74 -3 99c-4 49 -10 88 -10 109v7
c0 8 0 17 5 23c1 4 6 8 20 8c3 0 7 0 12 -1l31 -5c7 -2 12 -4 15 -7c6 -6 8 -19 8 -47zM356 639c-20 0 -36 17 -45 28c-15 19 -25 29 -46 51c-16 15 -29 33 -42 45c-29 28 -51 42 -84 73c-8 7 -11 12 -11 16c0 10 21 15 56 15h12c40 0 48 -16 60 -39
c15 -28 82 -111 120 -156c3 -4 4 -7 4 -10c0 -10 -12 -23 -24 -23z" />
    <glyph glyph-name="Ubreve" unicode="&#x16c;" horiz-adv-x="617" 
d="M552 559v-20c0 -28 -14 -192 -14 -250v-60c0 -13 0 -26 -1 -38c-2 -34 -8 -67 -25 -95c-33 -58 -82 -119 -191 -119c-5 0 -10 1 -15 1c-120 6 -226 86 -230 195v74c0 44 0 91 1 135v14c0 14 2 58 2 80v21c0 15 0 27 -1 33c-1 7 -2 17 -3 28c-1 5 -2 11 -2 16s1 10 2 15
c2 17 11 29 36 29h5c10 -1 19 -1 25 -2c7 -1 10 -3 13 -5c4 -5 7 -13 7 -37v-8c-1 -59 -13 -172 -13 -239c0 -66 2 -145 12 -183c11 -42 53 -67 86 -77c31 -10 53 -14 72 -14c18 0 80 6 108 43c27 35 41 55 45 147c1 45 3 90 3 130c0 39 -2 74 -3 99c-4 49 -10 88 -10 109v7
c0 8 0 17 5 23c1 4 6 8 20 8c3 0 7 0 12 -1l31 -5c7 -2 12 -4 15 -7c6 -6 8 -19 8 -47zM469 810c0 -33 -7 -61 -26 -80c-41 -42 -88 -62 -119 -62c-32 0 -85 5 -116 30c-31 24 -53 62 -53 102c0 22 12 31 25 31c12 0 27 -8 31 -23c6 -24 9 -41 21 -58c20 -27 38 -32 63 -32
c6 0 12 1 18 1c3 0 5 1 8 1c27 2 48 3 69 30c21 28 23 18 23 49c0 25 14 35 27 35c14 0 28 -10 29 -24z" />
    <glyph glyph-name="Uhungarumlaut" unicode="&#x170;" horiz-adv-x="617" 
d="M552 559v-20c0 -28 -14 -192 -14 -250v-60c0 -13 0 -26 -1 -38c-2 -34 -8 -67 -25 -95c-33 -58 -82 -119 -191 -119c-5 0 -10 1 -15 1c-120 6 -226 86 -230 195v74c0 44 0 91 1 135v14c0 14 2 58 2 80v21c0 15 0 27 -1 33c-1 7 -2 17 -3 28c-1 5 -2 11 -2 16s1 10 2 15
c2 17 11 29 36 29h5c10 -1 19 -1 25 -2c7 -1 10 -3 13 -5c4 -5 7 -13 7 -37v-8c-1 -59 -13 -172 -13 -239c0 -66 2 -145 12 -183c11 -42 53 -67 86 -77c31 -10 53 -14 72 -14c18 0 80 6 108 43c27 35 41 55 45 147c1 45 3 90 3 130c0 39 -2 74 -3 99c-4 49 -10 88 -10 109v7
c0 8 0 17 5 23c1 4 6 8 20 8c3 0 7 0 12 -1l31 -5c7 -2 12 -4 15 -7c6 -6 8 -19 8 -47zM510 842c-20 -32 -36 -49 -50 -79c-7 -15 -19 -30 -28 -46c-12 -22 -18 -36 -26 -54c-4 -10 -8 -18 -17 -18h-4c-5 1 -15 13 -15 23c0 4 0 7 2 10c23 39 58 127 65 155
c7 24 11 40 35 40h8c21 -3 35 -5 35 -16c0 -4 -2 -9 -5 -15zM365 842c-19 -32 -35 -49 -50 -79c-7 -15 -19 -30 -27 -46c-13 -22 -18 -36 -27 -54c-5 -10 -7 -18 -17 -18h-4c-5 1 -15 13 -15 23c0 4 1 7 3 10c22 39 57 127 64 155c7 24 11 40 36 40h7c22 -3 35 -5 35 -16
c0 -4 -2 -9 -5 -15z" />
    <glyph glyph-name="Umacron" unicode="&#x16a;" horiz-adv-x="617" 
d="M552 559v-20c0 -28 -14 -192 -14 -250v-60c0 -13 0 -26 -1 -38c-2 -34 -8 -67 -25 -95c-33 -58 -82 -119 -191 -119c-5 0 -10 1 -15 1c-120 6 -226 86 -230 195v74c0 44 0 91 1 135v14c0 14 2 58 2 80v21c0 15 0 27 -1 33c-1 7 -2 17 -3 28c-1 5 -2 11 -2 16s1 10 2 15
c2 17 11 29 36 29h5c10 -1 19 -1 25 -2c7 -1 10 -3 13 -5c4 -5 7 -13 7 -37v-8c-1 -59 -13 -172 -13 -239c0 -66 2 -145 12 -183c11 -42 53 -67 86 -77c31 -10 53 -14 72 -14c18 0 80 6 108 43c27 35 41 55 45 147c1 45 3 90 3 130c0 39 -2 74 -3 99c-4 49 -10 88 -10 109v7
c0 8 0 17 5 23c1 4 6 8 20 8c3 0 7 0 12 -1l31 -5c7 -2 12 -4 15 -7c6 -6 8 -19 8 -47zM496 723c0 -4 -1 -9 -2 -13c0 -3 -1 -7 -2 -9c-2 -4 -5 -8 -14 -9c-10 -2 -125 -4 -143 -4c-6 0 -32 -1 -64 -1c-54 0 -125 1 -131 2c-16 4 -21 9 -21 21c0 4 1 9 2 16
c4 30 11 37 25 37c17 0 182 -3 192 -5c20 -3 145 -5 153 -5c1 0 6 -6 6 -20c0 -4 -1 -6 -1 -10z" />
    <glyph glyph-name="Uring" unicode="&#x16e;" horiz-adv-x="617" 
d="M552 559v-20c0 -28 -14 -192 -14 -250v-60c0 -13 0 -26 -1 -38c-2 -34 -8 -67 -25 -95c-33 -58 -82 -119 -191 -119c-5 0 -10 1 -15 1c-120 6 -226 86 -230 195v74c0 44 0 91 1 135v14c0 14 2 58 2 80v21c0 15 0 27 -1 33c-1 7 -2 17 -3 28c-1 5 -2 11 -2 16s1 10 2 15
c2 17 11 29 36 29h5c10 -1 19 -1 25 -2c7 -1 10 -3 13 -5c4 -5 7 -13 7 -37v-8c-1 -59 -13 -172 -13 -239c0 -66 2 -145 12 -183c11 -42 53 -67 86 -77c31 -10 53 -14 72 -14c18 0 80 6 108 43c27 35 41 55 45 147c1 45 3 90 3 130c0 39 -2 74 -3 99c-4 49 -10 88 -10 109v7
c0 8 0 17 5 23c1 4 6 8 20 8c3 0 7 0 12 -1l31 -5c7 -2 12 -4 15 -7c6 -6 8 -19 8 -47zM450 740c-2 -48 -8 -61 -37 -92c-29 -32 -45 -37 -86 -39h-4c-40 0 -86 14 -107 32c-21 19 -47 62 -47 104c0 44 15 74 35 94s47 46 107 46h6c38 -1 70 -17 90 -39
c27 -29 42 -64 43 -106zM398 748c0 11 -2 20 -6 28l-15 24c-12 22 -34 30 -63 30c-19 0 -37 -2 -61 -20c-23 -17 -26 -40 -26 -63c0 -24 5 -39 21 -59c17 -19 31 -25 59 -29c3 0 5 -1 8 -1c17 0 34 8 48 18c5 3 9 6 12 8c15 11 23 42 23 64z" />
    <glyph glyph-name="Utilde" unicode="&#x168;" horiz-adv-x="617" 
d="M552 559v-20c0 -28 -14 -192 -14 -250v-60c0 -13 0 -26 -1 -38c-2 -34 -8 -67 -25 -95c-33 -58 -82 -119 -191 -119c-5 0 -10 1 -15 1c-120 6 -226 86 -230 195v74c0 44 0 91 1 135v14c0 14 2 58 2 80v21c0 15 0 27 -1 33c-1 7 -2 17 -3 28c-1 5 -2 11 -2 16s1 10 2 15
c2 17 11 29 36 29h5c10 -1 19 -1 25 -2c7 -1 10 -3 13 -5c4 -5 7 -13 7 -37v-8c-1 -59 -13 -172 -13 -239c0 -66 2 -145 12 -183c11 -42 53 -67 86 -77c31 -10 53 -14 72 -14c18 0 80 6 108 43c27 35 41 55 45 147c1 45 3 90 3 130c0 39 -2 74 -3 99c-4 49 -10 88 -10 109v7
c0 8 0 17 5 23c1 4 6 8 20 8c3 0 7 0 12 -1l31 -5c7 -2 12 -4 15 -7c6 -6 8 -19 8 -47zM491 771c3 -5 5 -10 5 -17c0 -17 -13 -41 -43 -68c-16 -16 -48 -23 -73 -23c-4 0 -8 0 -12 1c-23 4 -78 37 -100 51c-11 8 -27 13 -42 13c-13 0 -25 -4 -33 -14
c-18 -20 -30 -36 -45 -36c-4 0 -8 2 -12 5c-6 3 -8 8 -8 15c0 17 13 42 25 57c19 24 45 37 82 37c28 0 51 -9 88 -35c21 -16 48 -25 71 -25c18 0 34 5 44 16c19 20 30 32 39 32c5 0 9 -2 14 -9z" />
    <glyph glyph-name="Uogonek" unicode="&#x172;" horiz-adv-x="617" 
d="M286 -109c0 12 3 25 5 35c4 14 12 26 24 40c1 2 2 4 2 5c0 4 -3 7 -11 7c-120 0 -226 86 -230 195v74c0 44 0 91 1 135v9c1 35 2 63 2 85v21c0 15 0 27 -1 33c-1 7 -2 17 -3 28c-1 5 -2 11 -2 16s1 10 2 15c2 17 11 29 36 29h5c10 -1 19 -1 25 -2c7 -1 10 -3 13 -5
c4 -5 7 -13 7 -37v-8c-1 -59 -13 -172 -13 -239c0 -66 2 -145 12 -183c11 -42 53 -67 86 -77c31 -10 53 -14 72 -14c18 0 80 6 108 43c27 35 41 55 45 147c1 45 3 90 3 130c0 39 -2 74 -3 99c-4 49 -10 88 -10 109v7c0 8 0 17 5 23c1 4 6 8 20 8c3 0 7 0 12 -1l31 -5
c7 -2 12 -4 15 -7c6 -6 8 -19 8 -47v-20c0 -22 -14 -192 -14 -250v-60c0 -13 0 -26 -1 -38c-2 -34 -8 -67 -25 -95c-21 -37 -48 -75 -92 -97c-29 -17 -54 -36 -69 -63c-9 -15 -14 -30 -14 -41c0 -19 21 -40 46 -40c23 0 40 -1 49 -5c6 -3 8 -8 8 -15c0 -9 -2 -14 -9 -18
c-9 -6 -27 -8 -53 -8c-40 0 -73 26 -83 43c-7 10 -9 25 -9 39z" />
    <glyph glyph-name="V" unicode="V" horiz-adv-x="574" 
d="M545 569c-18 -41 -66 -131 -94 -202c-27 -70 -62 -160 -80 -201c-9 -20 -19 -44 -28 -67c-10 -23 -18 -47 -23 -67c-11 -42 -19 -61 -33 -61s-35 20 -51 83c-7 32 -23 73 -40 113c-15 40 -32 79 -42 103c-9 24 -23 61 -36 95c-12 34 -26 66 -35 83c-17 33 -38 84 -52 110
c-5 8 -8 18 -8 25c0 14 9 25 33 25h7c9 0 19 -1 28 -6c8 -5 17 -17 26 -48c18 -63 49 -144 64 -179c16 -35 38 -87 50 -135l1 -6c5 -23 10 -43 16 -59s16 -34 32 -34c14 0 24 15 32 34c8 16 14 38 20 56c3 9 7 17 12 27l17 33c12 23 25 51 32 85c13 64 40 137 53 170l3 9
c5 14 12 28 20 41c7 10 17 16 27 16h6c31 -5 47 -10 47 -26c0 -4 -1 -10 -4 -17z" />
    <glyph glyph-name="W" unicode="W" horiz-adv-x="902" 
d="M863 546c-26 -55 -52 -116 -66 -168c-13 -51 -38 -119 -46 -152c-4 -16 -12 -40 -21 -64l-25 -62c-7 -15 -9 -29 -12 -44c-2 -13 -3 -27 -7 -44c-5 -33 -22 -50 -29 -50c-6 0 -31 19 -40 64c-5 24 -14 44 -22 65c-9 20 -16 40 -21 62c-10 48 -49 154 -65 183l-23 63
c-3 5 -5 10 -7 12c0 1 -1 3 -1 6v12c-1 8 -3 22 -20 22c-22 0 -39 -41 -52 -84c-14 -43 -40 -107 -60 -158c-19 -50 -38 -101 -51 -130c-8 -15 -12 -28 -14 -41c-3 -12 -5 -25 -10 -40c-9 -27 -19 -32 -30 -32c-5 0 -22 13 -28 61c-3 25 -11 57 -19 85l-23 71
c-10 32 -35 123 -49 159c-13 35 -31 90 -45 119c-6 15 -14 37 -21 58c-6 20 -13 40 -18 49c-3 5 -7 13 -7 19c0 9 5 15 26 15h6c34 -2 52 -7 59 -57c8 -55 35 -139 44 -167c7 -27 19 -85 33 -120c7 -17 13 -45 20 -68c8 -29 20 -49 28 -49c9 0 17 10 23 30c1 7 4 15 7 25
l13 32c24 48 46 98 59 140c7 20 18 48 28 75s19 53 21 68c2 14 8 29 13 44l11 26c3 8 5 15 5 21c2 11 5 28 21 28c13 -2 29 -17 43 -70c14 -54 38 -114 51 -148c14 -33 30 -104 44 -135c13 -31 21 -61 29 -80c4 -10 6 -21 12 -31s16 -17 31 -17c17 2 25 14 28 27
c5 10 6 25 9 38c6 25 17 86 33 126c16 41 33 106 41 141c8 36 22 87 24 105c2 12 4 29 30 29c6 0 13 -1 20 -3c26 -6 36 -10 36 -21c0 -10 -6 -24 -16 -45z" />
    <glyph glyph-name="Wcircumflex" unicode="&#x174;" horiz-adv-x="902" 
d="M863 546c-26 -55 -52 -116 -66 -168c-13 -51 -38 -119 -46 -152c-4 -16 -12 -40 -21 -64l-25 -62c-7 -15 -9 -29 -12 -44c-2 -13 -3 -27 -7 -44c-5 -33 -22 -50 -29 -50c-6 0 -31 19 -40 64c-5 24 -14 44 -22 65c-9 20 -16 40 -21 62c-10 48 -49 154 -65 183l-23 63
c-3 5 -5 10 -7 12c0 1 -1 3 -1 6v12c-1 8 -3 22 -20 22c-22 0 -39 -41 -52 -84c-14 -43 -40 -107 -60 -158c-19 -50 -38 -101 -51 -130c-8 -15 -12 -28 -14 -41c-3 -12 -5 -25 -10 -40c-9 -27 -19 -32 -30 -32c-5 0 -22 13 -28 61c-3 25 -11 57 -19 85l-23 71
c-10 32 -35 123 -49 159c-13 35 -31 90 -45 119c-6 15 -14 37 -21 58c-6 20 -13 40 -18 49c-3 5 -7 13 -7 19c0 9 5 15 26 15h6c34 -2 52 -7 59 -57c8 -55 35 -139 44 -167c7 -27 19 -85 33 -120c7 -17 13 -45 20 -68c8 -29 20 -49 28 -49c9 0 17 10 23 30c1 7 4 15 7 25
l13 32c24 48 46 98 59 140c7 20 18 48 28 75s19 53 21 68c2 14 8 29 13 44l11 26c3 8 5 15 5 21c2 11 5 28 21 28c13 -2 29 -17 43 -70c14 -54 38 -114 51 -148c14 -33 30 -104 44 -135c13 -31 21 -61 29 -80c4 -10 6 -21 12 -31s16 -17 31 -17c17 2 25 14 28 27
c5 10 6 25 9 38c6 25 17 86 33 126c16 41 33 106 41 141c8 36 22 87 24 105c2 12 4 29 30 29c6 0 13 -1 20 -3c26 -6 36 -10 36 -21c0 -10 -6 -24 -16 -45zM643 673c3 -4 4 -7 4 -11c0 -10 -12 -22 -25 -22c-19 0 -36 17 -44 28c-15 19 -25 29 -47 50c-15 16 -27 34 -41 46
c-22 21 -32 32 -42 32s-19 -13 -42 -38c-12 -15 -33 -30 -49 -46c-21 -22 -32 -35 -49 -56c-7 -9 -12 -16 -28 -16h-5c-9 1 -23 12 -23 23c0 3 1 6 4 10c41 40 105 128 120 155c13 24 20 40 60 40h27c38 0 47 -15 59 -37l2 -3c15 -27 81 -110 119 -155z" />
    <glyph glyph-name="Wacute" unicode="&#x1e82;" horiz-adv-x="902" 
d="M863 546c-26 -55 -52 -116 -66 -168c-13 -51 -38 -119 -46 -152c-4 -16 -12 -40 -21 -64l-25 -62c-7 -15 -9 -29 -12 -44c-2 -13 -3 -27 -7 -44c-5 -33 -22 -50 -29 -50c-6 0 -31 19 -40 64c-5 24 -14 44 -22 65c-9 20 -16 40 -21 62c-10 48 -49 154 -65 183l-23 63
c-3 5 -5 10 -7 12c0 1 -1 3 -1 6v12c-1 8 -3 22 -20 22c-22 0 -39 -41 -52 -84c-14 -43 -40 -107 -60 -158c-19 -50 -38 -101 -51 -130c-8 -15 -12 -28 -14 -41c-3 -12 -5 -25 -10 -40c-9 -27 -19 -32 -30 -32c-5 0 -22 13 -28 61c-3 25 -11 57 -19 85l-23 71
c-10 32 -35 123 -49 159c-13 35 -31 90 -45 119c-6 15 -14 37 -21 58c-6 20 -13 40 -18 49c-3 5 -7 13 -7 19c0 9 5 15 26 15h6c34 -2 52 -7 59 -57c8 -55 35 -139 44 -167c7 -27 19 -85 33 -120c7 -17 13 -45 20 -68c8 -29 20 -49 28 -49c9 0 17 10 23 30c1 7 4 15 7 25
l13 32c24 48 46 98 59 140c7 20 18 48 28 75s19 53 21 68c2 14 8 29 13 44l11 26c3 8 5 15 5 21c2 11 5 28 21 28c13 -2 29 -17 43 -70c14 -54 38 -114 51 -148c14 -33 30 -104 44 -135c13 -31 21 -61 29 -80c4 -10 6 -21 12 -31s16 -17 31 -17c17 2 25 14 28 27
c5 10 6 25 9 38c6 25 17 86 33 126c16 41 33 106 41 141c8 36 22 87 24 105c2 12 4 29 30 29c6 0 13 -1 20 -3c26 -6 36 -10 36 -21c0 -10 -6 -24 -16 -45zM624 842c-33 -32 -62 -49 -88 -79c-12 -15 -33 -30 -49 -46c-21 -22 -32 -36 -49 -56c-7 -9 -12 -16 -28 -16h-5
c-9 1 -23 12 -23 23c0 3 1 6 4 10c41 39 105 127 120 155c12 24 20 40 60 40h13c34 -3 56 -5 56 -15c0 -5 -4 -10 -11 -16z" />
    <glyph glyph-name="Wgrave" unicode="&#x1e80;" horiz-adv-x="902" 
d="M863 546c-26 -55 -52 -116 -66 -168c-13 -51 -38 -119 -46 -152c-4 -16 -12 -40 -21 -64l-25 -62c-7 -15 -9 -29 -12 -44c-2 -13 -3 -27 -7 -44c-5 -33 -22 -50 -29 -50c-6 0 -31 19 -40 64c-5 24 -14 44 -22 65c-9 20 -16 40 -21 62c-10 48 -49 154 -65 183l-23 63
c-3 5 -5 10 -7 12c0 1 -1 3 -1 6v12c-1 8 -3 22 -20 22c-22 0 -39 -41 -52 -84c-14 -43 -40 -107 -60 -158c-19 -50 -38 -101 -51 -130c-8 -15 -12 -28 -14 -41c-3 -12 -5 -25 -10 -40c-9 -27 -19 -32 -30 -32c-5 0 -22 13 -28 61c-3 25 -11 57 -19 85l-23 71
c-10 32 -35 123 -49 159c-13 35 -31 90 -45 119c-6 15 -14 37 -21 58c-6 20 -13 40 -18 49c-3 5 -7 13 -7 19c0 9 5 15 26 15h6c34 -2 52 -7 59 -57c8 -55 35 -139 44 -167c7 -27 19 -85 33 -120c7 -17 13 -45 20 -68c8 -29 20 -49 28 -49c9 0 17 10 23 30c1 7 4 15 7 25
l13 32c24 48 46 98 59 140c7 20 18 48 28 75s19 53 21 68c2 14 8 29 13 44l11 26c3 8 5 15 5 21c2 11 5 28 21 28c13 -2 29 -17 43 -70c14 -54 38 -114 51 -148c14 -33 30 -104 44 -135c13 -31 21 -61 29 -80c4 -10 6 -21 12 -31s16 -17 31 -17c17 2 25 14 28 27
c5 10 6 25 9 38c6 25 17 86 33 126c16 41 33 106 41 141c8 36 22 87 24 105c2 12 4 29 30 29c6 0 13 -1 20 -3c26 -6 36 -10 36 -21c0 -10 -6 -24 -16 -45zM506 639c-20 0 -36 17 -45 28c-15 19 -25 29 -46 51c-16 15 -29 33 -42 45c-29 28 -51 42 -84 73
c-8 7 -11 12 -11 16c0 10 21 15 56 15h12c40 0 48 -16 60 -39c15 -28 82 -111 120 -156c3 -4 4 -7 4 -10c0 -10 -12 -23 -24 -23z" />
    <glyph glyph-name="Wdieresis" unicode="&#x1e84;" horiz-adv-x="902" 
d="M863 546c-26 -55 -52 -116 -66 -168c-13 -51 -38 -119 -46 -152c-4 -16 -12 -40 -21 -64l-25 -62c-7 -15 -9 -29 -12 -44c-2 -13 -3 -27 -7 -44c-5 -33 -22 -50 -29 -50c-6 0 -31 19 -40 64c-5 24 -14 44 -22 65c-9 20 -16 40 -21 62c-10 48 -49 154 -65 183l-23 63
c-3 5 -5 10 -7 12c0 1 -1 3 -1 6v12c-1 8 -3 22 -20 22c-22 0 -39 -41 -52 -84c-14 -43 -40 -107 -60 -158c-19 -50 -38 -101 -51 -130c-8 -15 -12 -28 -14 -41c-3 -12 -5 -25 -10 -40c-9 -27 -19 -32 -30 -32c-5 0 -22 13 -28 61c-3 25 -11 57 -19 85l-23 71
c-10 32 -35 123 -49 159c-13 35 -31 90 -45 119c-6 15 -14 37 -21 58c-6 20 -13 40 -18 49c-3 5 -7 13 -7 19c0 9 5 15 26 15h6c34 -2 52 -7 59 -57c8 -55 35 -139 44 -167c7 -27 19 -85 33 -120c7 -17 13 -45 20 -68c8 -29 20 -49 28 -49c9 0 17 10 23 30c1 7 4 15 7 25
l13 32c24 48 46 98 59 140c7 20 18 48 28 75s19 53 21 68c2 14 8 29 13 44l11 26c3 8 5 15 5 21c2 11 5 28 21 28c13 -2 29 -17 43 -70c14 -54 38 -114 51 -148c14 -33 30 -104 44 -135c13 -31 21 -61 29 -80c4 -10 6 -21 12 -31s16 -17 31 -17c17 2 25 14 28 27
c5 10 6 25 9 38c6 25 17 86 33 126c16 41 33 106 41 141c8 36 22 87 24 105c2 12 4 29 30 29c6 0 13 -1 20 -3c26 -6 36 -10 36 -21c0 -10 -6 -24 -16 -45zM597 728c0 -31 -19 -62 -49 -62c-33 0 -58 19 -58 52v4c2 36 30 52 54 52c23 0 53 -19 53 -46zM424 721
c-1 -23 -25 -58 -51 -60c-28 3 -64 27 -65 59c2 37 25 57 55 57h3c26 -2 57 -27 58 -56z" />
    <glyph glyph-name="X" unicode="X" horiz-adv-x="527" 
d="M498 600c1 -1 1 -2 1 -4c0 -6 -5 -19 -29 -46c-57 -67 -71 -94 -86 -116c-8 -11 -18 -25 -28 -38c-10 -14 -20 -25 -29 -33c-16 -11 -25 -32 -25 -52c0 -14 4 -28 14 -40c19 -25 65 -87 85 -115c20 -27 75 -101 92 -125c7 -9 13 -20 13 -29s-7 -16 -26 -16h-4
c-13 0 -23 0 -32 2c-8 1 -14 3 -19 6c-10 6 -19 19 -35 52c-31 65 -80 145 -90 160c-7 11 -11 23 -20 31c-5 4 -9 6 -14 6c-10 0 -19 -7 -27 -21c-23 -39 -49 -80 -68 -116c-10 -17 -21 -35 -30 -50c-10 -15 -17 -30 -20 -40c-5 -16 -11 -32 -57 -32c-34 0 -48 9 -48 21
c0 5 3 11 8 16c23 30 55 51 73 85c9 16 21 35 34 51l34 44c5 7 11 13 16 19c20 21 44 46 44 80v6c-4 37 -32 61 -54 86c-6 9 -12 15 -15 23c-16 34 -65 103 -86 120c-11 8 -40 36 -40 55c0 11 10 20 40 20c10 0 18 1 25 1c6 0 11 -1 16 -3c7 -3 15 -11 28 -37
c25 -50 42 -74 60 -110c17 -35 40 -84 68 -84c14 0 23 7 29 19c4 5 6 11 10 19l12 26c19 40 41 84 58 115c5 8 8 16 12 24c4 7 8 14 13 19c6 8 16 14 34 14c4 0 8 0 13 -1c13 -2 26 -3 35 -6c10 -2 13 -5 15 -6z" />
    <glyph glyph-name="Y" unicode="Y" horiz-adv-x="539" 
d="M511 588c1 -1 2 -2 2 -5c-1 -5 -3 -16 -17 -34c-40 -53 -70 -94 -81 -116c-6 -10 -14 -21 -26 -35c-9 -12 -20 -25 -28 -39c-10 -14 -23 -27 -33 -42c-11 -16 -19 -34 -20 -60c0 -8 -1 -18 -1 -29c0 -53 4 -133 9 -169c1 -14 3 -27 3 -37c0 -24 -8 -38 -34 -38h-4
c-37 1 -50 7 -50 34c0 7 0 15 2 25c8 53 13 173 13 204c0 33 -15 54 -34 78l-2 4c-19 25 -51 82 -73 111c-10 14 -23 35 -36 54c-12 18 -25 37 -35 47c-8 8 -17 15 -25 25c-7 8 -11 15 -11 23c0 13 14 21 41 23h9c29 0 46 -11 57 -32c7 -14 10 -25 14 -37
c5 -12 10 -23 20 -37c9 -12 20 -29 30 -44s18 -28 22 -36c4 -10 8 -25 15 -37c8 -13 18 -25 33 -25c16 0 25 9 33 20c7 10 12 22 22 37c17 27 36 60 58 93c22 34 28 55 32 71c2 7 12 20 35 20c6 0 14 -1 21 -3c10 -2 19 -4 27 -6c7 -3 11 -5 12 -8z" />
    <glyph glyph-name="Ydieresis" unicode="&#x178;" horiz-adv-x="539" 
d="M511 588c1 -1 2 -2 2 -5c-1 -5 -3 -16 -17 -34c-40 -53 -70 -94 -81 -116c-6 -10 -14 -21 -26 -35c-9 -12 -20 -25 -28 -39c-10 -14 -23 -27 -33 -42c-11 -16 -19 -34 -20 -60c0 -8 -1 -18 -1 -29c0 -53 4 -133 9 -169c1 -14 3 -27 3 -37c0 -24 -8 -38 -34 -38h-4
c-37 1 -50 7 -50 34c0 7 0 15 2 25c8 53 13 173 13 204c0 33 -15 54 -34 78l-2 4c-19 25 -51 82 -73 111c-10 14 -23 35 -36 54c-12 18 -25 37 -35 47c-8 8 -17 15 -25 25c-7 8 -11 15 -11 23c0 13 14 21 41 23h9c29 0 46 -11 57 -32c7 -14 10 -25 14 -37
c5 -12 10 -23 20 -37c9 -12 20 -29 30 -44s18 -28 22 -36c4 -10 8 -25 15 -37c8 -13 18 -25 33 -25c16 0 25 9 33 20c7 10 12 22 22 37c17 27 36 60 58 93c22 34 28 55 32 71c2 7 12 20 35 20c6 0 14 -1 21 -3c10 -2 19 -4 27 -6c7 -3 11 -5 12 -8zM422 728
c0 -31 -19 -62 -49 -62c-33 0 -58 19 -58 52v4c2 36 30 52 54 52c23 0 53 -19 53 -46zM249 721c-1 -23 -25 -58 -51 -60c-28 3 -64 27 -65 59c2 37 25 57 55 57h3c26 -2 57 -27 58 -56z" />
    <glyph glyph-name="Yacute" unicode="&#xdd;" horiz-adv-x="539" 
d="M511 588c1 -1 2 -2 2 -5c-1 -5 -3 -16 -17 -34c-40 -53 -70 -94 -81 -116c-6 -10 -14 -21 -26 -35c-9 -12 -20 -25 -28 -39c-10 -14 -23 -27 -33 -42c-11 -16 -19 -34 -20 -60c0 -8 -1 -18 -1 -29c0 -53 4 -133 9 -169c1 -14 3 -27 3 -37c0 -24 -8 -38 -34 -38h-4
c-37 1 -50 7 -50 34c0 7 0 15 2 25c8 53 13 173 13 204c0 33 -15 54 -34 78l-2 4c-19 25 -51 82 -73 111c-10 14 -23 35 -36 54c-12 18 -25 37 -35 47c-8 8 -17 15 -25 25c-7 8 -11 15 -11 23c0 13 14 21 41 23h9c29 0 46 -11 57 -32c7 -14 10 -25 14 -37
c5 -12 10 -23 20 -37c9 -12 20 -29 30 -44s18 -28 22 -36c4 -10 8 -25 15 -37c8 -13 18 -25 33 -25c16 0 25 9 33 20c7 10 12 22 22 37c17 27 36 60 58 93c22 34 28 55 32 71c2 7 12 20 35 20c6 0 14 -1 21 -3c10 -2 19 -4 27 -6c7 -3 11 -5 12 -8zM446 842
c-33 -32 -62 -49 -88 -79c-12 -15 -33 -30 -49 -46c-21 -22 -32 -36 -49 -56c-7 -9 -12 -16 -28 -16h-5c-9 1 -23 12 -23 23c0 3 1 6 4 10c41 39 105 127 120 155c12 24 20 40 60 40h13c34 -3 56 -5 56 -15c0 -5 -4 -10 -11 -16z" />
    <glyph glyph-name="Ycircumflex" unicode="&#x176;" horiz-adv-x="539" 
d="M511 588c1 -1 2 -2 2 -5c-1 -5 -3 -16 -17 -34c-40 -53 -70 -94 -81 -116c-6 -10 -14 -21 -26 -35c-9 -12 -20 -25 -28 -39c-10 -14 -23 -27 -33 -42c-11 -16 -19 -34 -20 -60c0 -8 -1 -18 -1 -29c0 -53 4 -133 9 -169c1 -14 3 -27 3 -37c0 -24 -8 -38 -34 -38h-4
c-37 1 -50 7 -50 34c0 7 0 15 2 25c8 53 13 173 13 204c0 33 -15 54 -34 78l-2 4c-19 25 -51 82 -73 111c-10 14 -23 35 -36 54c-12 18 -25 37 -35 47c-8 8 -17 15 -25 25c-7 8 -11 15 -11 23c0 13 14 21 41 23h9c29 0 46 -11 57 -32c7 -14 10 -25 14 -37
c5 -12 10 -23 20 -37c9 -12 20 -29 30 -44s18 -28 22 -36c4 -10 8 -25 15 -37c8 -13 18 -25 33 -25c16 0 25 9 33 20c7 10 12 22 22 37c17 27 36 60 58 93c22 34 28 55 32 71c2 7 12 20 35 20c6 0 14 -1 21 -3c10 -2 19 -4 27 -6c7 -3 11 -5 12 -8zM468 673c3 -4 4 -7 4 -11
c0 -10 -12 -22 -25 -22c-19 0 -36 17 -44 28c-15 19 -25 29 -47 50c-15 16 -27 34 -41 46c-22 21 -32 32 -42 32s-19 -13 -42 -38c-12 -15 -33 -30 -49 -46c-21 -22 -32 -35 -49 -56c-7 -9 -12 -16 -28 -16h-5c-9 1 -23 12 -23 23c0 3 1 6 4 10c41 40 105 128 120 155
c13 24 20 40 60 40h27c38 0 47 -15 59 -37l2 -3c15 -27 81 -110 119 -155z" />
    <glyph glyph-name="Ygrave" unicode="&#x1ef2;" horiz-adv-x="539" 
d="M511 588c1 -1 2 -2 2 -5c-1 -5 -3 -16 -17 -34c-40 -53 -70 -94 -81 -116c-6 -10 -14 -21 -26 -35c-9 -12 -20 -25 -28 -39c-10 -14 -23 -27 -33 -42c-11 -16 -19 -34 -20 -60c0 -8 -1 -18 -1 -29c0 -53 4 -133 9 -169c1 -14 3 -27 3 -37c0 -24 -8 -38 -34 -38h-4
c-37 1 -50 7 -50 34c0 7 0 15 2 25c8 53 13 173 13 204c0 33 -15 54 -34 78l-2 4c-19 25 -51 82 -73 111c-10 14 -23 35 -36 54c-12 18 -25 37 -35 47c-8 8 -17 15 -25 25c-7 8 -11 15 -11 23c0 13 14 21 41 23h9c29 0 46 -11 57 -32c7 -14 10 -25 14 -37
c5 -12 10 -23 20 -37c9 -12 20 -29 30 -44s18 -28 22 -36c4 -10 8 -25 15 -37c8 -13 18 -25 33 -25c16 0 25 9 33 20c7 10 12 22 22 37c17 27 36 60 58 93c22 34 28 55 32 71c2 7 12 20 35 20c6 0 14 -1 21 -3c10 -2 19 -4 27 -6c7 -3 11 -5 12 -8zM316 639
c-20 0 -36 17 -45 28c-15 19 -25 29 -46 51c-16 15 -29 33 -42 45c-29 28 -51 42 -84 73c-8 7 -11 12 -11 16c0 10 21 15 56 15h12c40 0 48 -16 60 -39c15 -28 82 -111 120 -156c3 -4 4 -7 4 -10c0 -10 -12 -23 -24 -23z" />
    <glyph glyph-name="Z" unicode="Z" horiz-adv-x="516" 
d="M480 39v-4c0 -3 -1 -6 -1 -9c0 -5 1 -10 1 -14c0 -16 -2 -22 -18 -22h-6c-42 1 -132 6 -171 6s-167 -3 -189 -5c-10 0 -27 -2 -41 -2h-4c-11 1 -21 2 -24 8c-1 3 -1 5 -1 8c0 15 10 36 36 64c17 17 31 39 42 58c12 19 20 38 26 47c2 4 6 10 12 17l19 21
c14 16 28 34 37 50l33 61c11 19 24 39 35 56c13 17 24 34 34 49s19 28 28 40c10 12 18 21 24 28c5 6 9 14 9 22v3c-2 15 -9 19 -23 19c-7 0 -15 -1 -25 -2c-17 -2 -35 -2 -52 -2s-34 0 -51 -1c-18 -3 -39 -4 -58 -5c-19 -2 -36 -4 -45 -5c-3 -1 -7 -2 -11 -2
c-15 0 -33 8 -33 38c0 39 5 45 17 45h7c35 -3 151 -8 196 -8s158 -4 179 -4c10 0 21 -1 21 -9c0 -3 -1 -6 -4 -11c-19 -30 -86 -116 -108 -149l-61 -92c-26 -38 -52 -77 -62 -96c-19 -36 -58 -95 -73 -114c-13 -16 -23 -35 -23 -48c0 -4 1 -9 4 -11c4 -6 17 -9 30 -10
s27 -1 39 -1c21 0 99 2 125 2c25 0 87 1 106 1h6c5 0 10 0 13 -2c2 -2 5 -6 5 -15z" />
    <glyph glyph-name="Zcaron" unicode="&#x17d;" horiz-adv-x="516" 
d="M451 845c-40 -40 -105 -128 -120 -157c-12 -23 -20 -39 -60 -39c-4 0 -8 1 -14 1c-5 0 -9 -1 -12 -1c-41 0 -49 16 -61 39c-15 29 -81 111 -119 157c-4 3 -4 7 -4 10c0 11 11 23 24 23c19 0 36 -17 45 -29c15 -18 25 -29 46 -51c16 -15 28 -32 42 -45
c22 -21 32 -32 41 -32s17 8 31 25l1 2l10 11c13 14 34 30 50 46c22 23 30 38 48 56c7 10 13 17 31 17h3c9 -1 23 -13 23 -24c0 -3 -1 -6 -5 -9zM480 39v-4c0 -3 -1 -6 -1 -9c0 -5 1 -10 1 -14c0 -16 -2 -22 -18 -22h-6c-42 1 -132 6 -171 6s-167 -3 -189 -5
c-10 0 -27 -2 -41 -2h-4c-11 1 -21 2 -24 8c-1 3 -1 5 -1 8c0 15 10 36 36 64c17 17 31 39 42 58c12 19 20 38 26 47c2 4 6 10 12 17l19 21c14 16 28 34 37 50l33 61c11 19 24 39 35 56c13 17 24 34 34 49s19 28 28 40c10 12 18 21 24 28c5 6 9 14 9 22v3
c-2 15 -9 19 -23 19c-7 0 -15 -1 -25 -2c-17 -2 -35 -2 -52 -2s-34 0 -51 -1c-18 -3 -39 -4 -58 -5c-19 -2 -36 -4 -45 -5c-3 -1 -7 -2 -11 -2c-15 0 -33 8 -33 38c0 39 5 45 17 45h7c35 -3 151 -8 196 -8s158 -4 179 -4c10 0 21 -1 21 -9c0 -3 -1 -6 -4 -11
c-19 -30 -86 -116 -108 -149l-61 -92c-26 -38 -52 -77 -62 -96c-19 -36 -58 -95 -73 -114c-13 -16 -23 -35 -23 -48c0 -4 1 -9 4 -11c4 -6 17 -9 30 -10s27 -1 39 -1c21 0 99 2 125 2c25 0 87 1 106 1h6c5 0 10 0 13 -2c2 -2 5 -6 5 -15z" />
    <glyph glyph-name="Zacute" unicode="&#x179;" horiz-adv-x="516" 
d="M480 39v-4c0 -3 -1 -6 -1 -9c0 -5 1 -10 1 -14c0 -16 -2 -22 -18 -22h-6c-42 1 -132 6 -171 6s-167 -3 -189 -5c-10 0 -27 -2 -41 -2h-4c-11 1 -21 2 -24 8c-1 3 -1 5 -1 8c0 15 10 36 36 64c17 17 31 39 42 58c12 19 20 38 26 47c2 4 6 10 12 17l19 21
c14 16 28 34 37 50l33 61c11 19 24 39 35 56c13 17 24 34 34 49s19 28 28 40c10 12 18 21 24 28c5 6 9 14 9 22v3c-2 15 -9 19 -23 19c-7 0 -15 -1 -25 -2c-17 -2 -35 -2 -52 -2s-34 0 -51 -1c-18 -3 -39 -4 -58 -5c-19 -2 -36 -4 -45 -5c-3 -1 -7 -2 -11 -2
c-15 0 -33 8 -33 38c0 39 5 45 17 45h7c35 -3 151 -8 196 -8s158 -4 179 -4c10 0 21 -1 21 -9c0 -3 -1 -6 -4 -11c-19 -30 -86 -116 -108 -149l-61 -92c-26 -38 -52 -77 -62 -96c-19 -36 -58 -95 -73 -114c-13 -16 -23 -35 -23 -48c0 -4 1 -9 4 -11c4 -6 17 -9 30 -10
s27 -1 39 -1c21 0 99 2 125 2c25 0 87 1 106 1h6c5 0 10 0 13 -2c2 -2 5 -6 5 -15zM453 842c-33 -32 -62 -49 -88 -79c-12 -15 -33 -30 -49 -46c-21 -22 -32 -36 -49 -56c-7 -9 -12 -16 -28 -16h-5c-9 1 -23 12 -23 23c0 3 1 6 4 10c41 39 105 127 120 155
c12 24 20 40 60 40h13c34 -3 56 -5 56 -15c0 -5 -4 -10 -11 -16z" />
    <glyph glyph-name="Zdotaccent" unicode="&#x17b;" horiz-adv-x="516" 
d="M480 39v-4c0 -3 -1 -6 -1 -9c0 -5 1 -10 1 -14c0 -16 -2 -22 -18 -22h-6c-42 1 -132 6 -171 6s-167 -3 -189 -5c-10 0 -27 -2 -41 -2h-4c-11 1 -21 2 -24 8c-1 3 -1 5 -1 8c0 15 10 36 36 64c17 17 31 39 42 58c12 19 20 38 26 47c2 4 6 10 12 17l19 21
c14 16 28 34 37 50l33 61c11 19 24 39 35 56c13 17 24 34 34 49s19 28 28 40c10 12 18 21 24 28c5 6 9 14 9 22v3c-2 15 -9 19 -23 19c-7 0 -15 -1 -25 -2c-17 -2 -35 -2 -52 -2s-34 0 -51 -1c-18 -3 -39 -4 -58 -5c-19 -2 -36 -4 -45 -5c-3 -1 -7 -2 -11 -2
c-15 0 -33 8 -33 38c0 39 5 45 17 45h7c35 -3 151 -8 196 -8s158 -4 179 -4c10 0 21 -1 21 -9c0 -3 -1 -6 -4 -11c-19 -30 -86 -116 -108 -149l-61 -92c-26 -38 -52 -77 -62 -96c-19 -36 -58 -95 -73 -114c-13 -16 -23 -35 -23 -48c0 -4 1 -9 4 -11c4 -6 17 -9 30 -10
s27 -1 39 -1c21 0 99 2 125 2c25 0 87 1 106 1h6c5 0 10 0 13 -2c2 -2 5 -6 5 -15zM326 731c-1 -42 -37 -73 -60 -73c-30 0 -66 35 -67 66c2 33 23 60 76 60c29 0 51 -21 51 -53z" />
    <glyph glyph-name="bracketleft" unicode="[" horiz-adv-x="320" 
d="M284 -137c0 -16 -23 -13 -67 -15c-49 -2 -88 -7 -102 -8c-2 0 -4 -1 -7 -1c-12 0 -27 5 -27 37v4c3 51 10 180 10 223c0 29 1 133 1 209c0 39 0 71 -1 84v37v89c0 27 0 49 -1 60l-4 21c-2 5 -3 8 -3 11c0 1 1 2 1 2c1 6 7 7 23 8h14c35 0 112 -3 137 -4
c21 -2 23 -1 23 -9c0 -7 0 -15 -16 -15l-54 3c-14 1 -25 1 -35 1h-11c-26 -3 -44 -10 -44 -58c0 -36 3 -163 3 -233v-33c0 -14 -4 -259 -7 -290c-1 -15 -2 -38 -2 -59c1 -22 5 -42 14 -50c10 -7 24 -10 39 -10c4 0 8 -1 13 -1c11 0 24 1 35 2c16 1 35 3 49 3
c11 0 19 -1 19 -8z" />
    <glyph glyph-name="backslash" unicode="\" horiz-adv-x="344" 
d="M324 -68c-3 -2 -9 -3 -15 -3s-12 2 -13 5c-5 9 -25 62 -36 89l-103 267c-22 59 -92 231 -128 304c-13 27 -18 41 -18 49c0 3 0 5 1 7c4 8 23 12 24 12c3 1 5 1 8 1c13 0 19 -8 23 -18c9 -19 30 -87 39 -114c4 -14 19 -61 41 -116l61 -151c28 -69 84 -200 115 -263
c11 -23 15 -37 15 -47c0 -13 -7 -17 -14 -22z" />
    <glyph glyph-name="bracketright" unicode="]" horiz-adv-x="320" 
d="M256 -140v-4c0 -12 -4 -17 -15 -18c-37 -2 -102 -2 -137 -8c-7 -1 -14 -2 -21 -2c-25 0 -50 8 -50 29c0 19 15 24 36 24c7 0 15 0 23 -1c19 -2 41 -6 59 -9c6 -1 12 -2 18 -2c13 0 22 2 26 7c5 8 6 30 6 62c0 18 0 40 -1 66c-3 44 -4 113 -4 175c0 38 0 73 1 96
c3 58 4 251 4 271c0 7 2 15 2 22v5c-3 13 -17 17 -35 17c-34 0 -68 -10 -103 -10c-10 0 -32 11 -34 24v6c0 11 5 16 20 18h20c19 0 45 0 71 -1c18 -1 36 -1 51 -1s27 0 33 2c3 1 5 1 9 1c11 0 21 -6 21 -21v-7c-7 -36 -9 -245 -9 -318c0 -37 -1 -122 -2 -200v-75
c0 -47 0 -84 2 -96c2 -8 4 -17 6 -27c2 -9 3 -18 3 -25z" />
    <glyph glyph-name="asciicircum" unicode="^" horiz-adv-x="491" 
d="M438 410c3 -4 4 -8 4 -11c0 -11 -11 -23 -24 -23c-19 0 -36 17 -45 29c-14 18 -25 29 -47 51c-15 15 -27 32 -41 45c-22 21 -32 32 -41 32s-17 -8 -31 -25l-2 -2l-10 -11c-12 -14 -33 -30 -49 -46c-21 -22 -32 -36 -47 -54l-3 -4c-7 -9 -12 -15 -29 -15h-3
c-9 1 -23 12 -23 24c0 3 1 6 4 10c42 39 105 127 120 156c13 24 20 39 63 39h22c42 0 50 -15 63 -39c15 -29 81 -111 119 -156z" />
    <glyph glyph-name="underscore" unicode="_" horiz-adv-x="620" 
d="M590 -94v-4c-2 -13 -4 -26 -33 -26c-4 0 -8 0 -13 1c-49 5 -143 6 -195 6h-116c-42 0 -75 -1 -96 -2c-27 -3 -54 -8 -84 -8c-9 1 -18 4 -20 23c-1 5 -2 10 -2 15s1 9 4 11c2 4 10 6 28 6h13c55 -1 144 -3 200 -3c14 0 25 0 35 1c44 0 181 2 202 2h68c5 0 9 -12 9 -22z
" />
    <glyph glyph-name="a" unicode="a" horiz-adv-x="518" 
d="M441 16v-11c-2 -4 -5 -8 -20 -8h-5c-28 2 -38 3 -38 12c0 1 1 2 1 3c1 3 1 6 1 9c0 12 -9 20 -19 20c-7 0 -14 -3 -20 -9c-5 -3 -10 -8 -15 -14c-5 -5 -12 -11 -20 -16c-17 -11 -41 -20 -77 -20c-74 0 -118 30 -144 63c-25 31 -48 94 -48 133v8c4 41 12 91 34 123
c31 43 95 79 151 79c38 0 79 -12 90 -26c8 -8 15 -17 24 -25s18 -13 25 -13c2 0 3 0 5 1c12 4 18 18 18 34c0 3 -1 7 -1 12c0 7 6 8 18 8h10c17 0 30 -1 30 -27v-5c-1 -14 -1 -29 -1 -45c0 -32 1 -67 1 -100v-170v-16zM383 186c1 7 2 14 2 20c0 10 -2 19 -5 27
c-3 6 -9 13 -10 20l-15 26c-13 22 -30 33 -48 39c-6 3 -15 4 -21 6c-1 0 -1 1 -5 1l-23 5c-6 1 -12 1 -18 1c-36 0 -79 -18 -93 -29c-19 -14 -34 -75 -36 -111v-9c0 -35 9 -66 22 -90c16 -26 54 -46 99 -49c8 0 14 -1 20 -1c31 0 52 5 79 26c35 26 49 76 52 118z" />
    <glyph glyph-name="aacute" unicode="&#xe1;" horiz-adv-x="518" 
d="M441 16v-11c-2 -4 -5 -8 -20 -8h-5c-28 2 -38 3 -38 12c0 1 1 2 1 3c1 3 1 6 1 9c0 12 -9 20 -19 20c-7 0 -14 -3 -20 -9c-5 -3 -10 -8 -15 -14c-5 -5 -12 -11 -20 -16c-17 -11 -41 -20 -77 -20c-74 0 -118 30 -144 63c-25 31 -48 94 -48 133v8c4 41 12 91 34 123
c31 43 95 79 151 79c38 0 79 -12 90 -26c8 -8 15 -17 24 -25s18 -13 25 -13c2 0 3 0 5 1c12 4 18 18 18 34c0 3 -1 7 -1 12c0 7 6 8 18 8h10c17 0 30 -1 30 -27v-5c-1 -14 -1 -29 -1 -45c0 -32 1 -67 1 -100v-170v-16zM383 186c1 7 2 14 2 20c0 10 -2 19 -5 27
c-3 6 -9 13 -10 20l-15 26c-13 22 -30 33 -48 39c-6 3 -15 4 -21 6c-1 0 -1 1 -5 1l-23 5c-6 1 -12 1 -18 1c-36 0 -79 -18 -93 -29c-19 -14 -34 -75 -36 -111v-9c0 -35 9 -66 22 -90c16 -26 54 -46 99 -49c8 0 14 -1 20 -1c31 0 52 5 79 26c35 26 49 76 52 118zM443 640
c-33 -32 -62 -49 -88 -79c-12 -15 -33 -30 -49 -46c-21 -22 -32 -36 -49 -56c-7 -9 -12 -16 -28 -16h-5c-9 1 -23 12 -23 23c0 3 1 6 4 10c41 39 105 127 120 155c12 24 20 40 60 40h13c34 -3 56 -5 56 -15c0 -5 -4 -10 -11 -16z" />
    <glyph glyph-name="agrave" unicode="&#xe0;" horiz-adv-x="518" 
d="M441 16v-11c-2 -4 -5 -8 -20 -8h-5c-28 2 -38 3 -38 12c0 1 1 2 1 3c1 3 1 6 1 9c0 12 -9 20 -19 20c-7 0 -14 -3 -20 -9c-5 -3 -10 -8 -15 -14c-5 -5 -12 -11 -20 -16c-17 -11 -41 -20 -77 -20c-74 0 -118 30 -144 63c-25 31 -48 94 -48 133v8c4 41 12 91 34 123
c31 43 95 79 151 79c38 0 79 -12 90 -26c8 -8 15 -17 24 -25s18 -13 25 -13c2 0 3 0 5 1c12 4 18 18 18 34c0 3 -1 7 -1 12c0 7 6 8 18 8h10c17 0 30 -1 30 -27v-5c-1 -14 -1 -29 -1 -45c0 -32 1 -67 1 -100v-170v-16zM383 186c1 7 2 14 2 20c0 10 -2 19 -5 27
c-3 6 -9 13 -10 20l-15 26c-13 22 -30 33 -48 39c-6 3 -15 4 -21 6c-1 0 -1 1 -5 1l-23 5c-6 1 -12 1 -18 1c-36 0 -79 -18 -93 -29c-19 -14 -34 -75 -36 -111v-9c0 -35 9 -66 22 -90c16 -26 54 -46 99 -49c8 0 14 -1 20 -1c31 0 52 5 79 26c35 26 49 76 52 118zM287 437
c-20 0 -36 17 -45 28c-15 19 -25 29 -46 51c-16 15 -29 33 -42 45c-29 28 -51 42 -84 73c-8 7 -11 12 -11 16c0 10 21 15 56 15h12c40 0 48 -16 60 -39c15 -28 82 -111 120 -156c3 -4 4 -7 4 -10c0 -10 -12 -23 -24 -23z" />
    <glyph glyph-name="acircumflex" unicode="&#xe2;" horiz-adv-x="518" 
d="M441 16v-11c-2 -4 -5 -8 -20 -8h-5c-28 2 -38 3 -38 12c0 1 1 2 1 3c1 3 1 6 1 9c0 12 -9 20 -19 20c-7 0 -14 -3 -20 -9c-5 -3 -10 -8 -15 -14c-5 -5 -12 -11 -20 -16c-17 -11 -41 -20 -77 -20c-74 0 -118 30 -144 63c-25 31 -48 94 -48 133v8c4 41 12 91 34 123
c31 43 95 79 151 79c38 0 79 -12 90 -26c8 -8 15 -17 24 -25s18 -13 25 -13c2 0 3 0 5 1c12 4 18 18 18 34c0 3 -1 7 -1 12c0 7 6 8 18 8h10c17 0 30 -1 30 -27v-5c-1 -14 -1 -29 -1 -45c0 -32 1 -67 1 -100v-170v-16zM383 186c1 7 2 14 2 20c0 10 -2 19 -5 27
c-3 6 -9 13 -10 20l-15 26c-13 22 -30 33 -48 39c-6 3 -15 4 -21 6c-1 0 -1 1 -5 1l-23 5c-6 1 -12 1 -18 1c-36 0 -79 -18 -93 -29c-19 -14 -34 -75 -36 -111v-9c0 -35 9 -66 22 -90c16 -26 54 -46 99 -49c8 0 14 -1 20 -1c31 0 52 5 79 26c35 26 49 76 52 118zM445 471
c3 -4 4 -7 4 -11c0 -10 -12 -22 -25 -22c-19 0 -36 17 -44 28c-15 19 -25 29 -47 50c-15 16 -27 34 -41 46c-22 21 -32 32 -42 32s-19 -13 -42 -38c-12 -15 -33 -30 -49 -46c-21 -22 -32 -35 -49 -56c-7 -9 -12 -16 -28 -16h-5c-9 1 -23 12 -23 23c0 3 1 6 4 10
c41 40 105 128 120 155c13 24 20 40 60 40h27c38 0 47 -15 59 -37l2 -3c15 -27 81 -110 119 -155z" />
    <glyph glyph-name="adieresis" unicode="&#xe4;" horiz-adv-x="518" 
d="M441 16v-11c-2 -4 -5 -8 -20 -8h-5c-28 2 -38 3 -38 12c0 1 1 2 1 3c1 3 1 6 1 9c0 12 -9 20 -19 20c-7 0 -14 -3 -20 -9c-5 -3 -10 -8 -15 -14c-5 -5 -12 -11 -20 -16c-17 -11 -41 -20 -77 -20c-74 0 -118 30 -144 63c-25 31 -48 94 -48 133v8c4 41 12 91 34 123
c31 43 95 79 151 79c38 0 79 -12 90 -26c8 -8 15 -17 24 -25s18 -13 25 -13c2 0 3 0 5 1c12 4 18 18 18 34c0 3 -1 7 -1 12c0 7 6 8 18 8h10c17 0 30 -1 30 -27v-5c-1 -14 -1 -29 -1 -45c0 -32 1 -67 1 -100v-170v-16zM383 186c1 7 2 14 2 20c0 10 -2 19 -5 27
c-3 6 -9 13 -10 20l-15 26c-13 22 -30 33 -48 39c-6 3 -15 4 -21 6c-1 0 -1 1 -5 1l-23 5c-6 1 -12 1 -18 1c-36 0 -79 -18 -93 -29c-19 -14 -34 -75 -36 -111v-9c0 -35 9 -66 22 -90c16 -26 54 -46 99 -49c8 0 14 -1 20 -1c31 0 52 5 79 26c35 26 49 76 52 118zM399 526
c0 -31 -19 -62 -49 -62c-33 0 -58 19 -58 52v4c2 36 30 52 54 52c23 0 53 -19 53 -46zM226 519c-1 -23 -25 -58 -51 -60c-28 3 -64 27 -65 59c2 37 25 57 55 57h3c26 -2 57 -27 58 -56z" />
    <glyph glyph-name="atilde" unicode="&#xe3;" horiz-adv-x="518" 
d="M441 16v-11c-2 -4 -5 -8 -20 -8h-5c-28 2 -38 3 -38 12c0 1 1 2 1 3c1 3 1 6 1 9c0 12 -9 20 -19 20c-7 0 -14 -3 -20 -9c-5 -3 -10 -8 -15 -14c-5 -5 -12 -11 -20 -16c-17 -11 -41 -20 -77 -20c-74 0 -118 30 -144 63c-25 31 -48 94 -48 133v8c4 41 12 91 34 123
c31 43 95 79 151 79c38 0 79 -12 90 -26c8 -8 15 -17 24 -25s18 -13 25 -13c2 0 3 0 5 1c12 4 18 18 18 34c0 3 -1 7 -1 12c0 7 6 8 18 8h10c17 0 30 -1 30 -27v-5c-1 -14 -1 -29 -1 -45c0 -32 1 -67 1 -100v-170v-16zM383 186c1 7 2 14 2 20c0 10 -2 19 -5 27
c-3 6 -9 13 -10 20l-15 26c-13 22 -30 33 -48 39c-6 3 -15 4 -21 6c-1 0 -1 1 -5 1l-23 5c-6 1 -12 1 -18 1c-36 0 -79 -18 -93 -29c-19 -14 -34 -75 -36 -111v-9c0 -35 9 -66 22 -90c16 -26 54 -46 99 -49c8 0 14 -1 20 -1c31 0 52 5 79 26c35 26 49 76 52 118zM430 569
c3 -5 5 -10 5 -17c0 -17 -13 -41 -43 -68c-16 -16 -48 -23 -73 -23c-4 0 -8 0 -12 1c-23 4 -78 37 -100 51c-11 8 -27 13 -42 13c-13 0 -25 -4 -33 -14c-18 -20 -30 -36 -45 -36c-4 0 -8 2 -12 5c-6 3 -8 8 -8 15c0 17 13 42 25 57c19 24 45 37 82 37c28 0 51 -9 88 -35
c21 -16 48 -25 71 -25c18 0 34 5 44 16c19 20 30 32 39 32c5 0 9 -2 14 -9z" />
    <glyph glyph-name="aring" unicode="&#xe5;" horiz-adv-x="518" 
d="M441 16v-11c-2 -4 -5 -8 -20 -8h-5c-28 2 -38 3 -38 12c0 1 1 2 1 3c1 3 1 6 1 9c0 12 -9 20 -19 20c-7 0 -14 -3 -20 -9c-5 -3 -10 -8 -15 -14c-5 -5 -12 -11 -20 -16c-17 -11 -41 -20 -77 -20c-74 0 -118 30 -144 63c-25 31 -48 94 -48 133v8c4 41 12 91 34 123
c31 43 95 79 151 79c38 0 79 -12 90 -26c8 -8 15 -17 24 -25s18 -13 25 -13c2 0 3 0 5 1c12 4 18 18 18 34c0 3 -1 7 -1 12c0 7 6 8 18 8h10c17 0 30 -1 30 -27v-5c-1 -14 -1 -29 -1 -45c0 -32 1 -67 1 -100v-170v-16zM383 186c1 7 2 14 2 20c0 10 -2 19 -5 27
c-3 6 -9 13 -10 20l-15 26c-13 22 -30 33 -48 39c-6 3 -15 4 -21 6c-1 0 -1 1 -5 1l-23 5c-6 1 -12 1 -18 1c-36 0 -79 -18 -93 -29c-19 -14 -34 -75 -36 -111v-9c0 -35 9 -66 22 -90c16 -26 54 -46 99 -49c8 0 14 -1 20 -1c31 0 52 5 79 26c35 26 49 76 52 118zM389 578
c-2 -48 -8 -61 -37 -92c-29 -32 -45 -37 -86 -39h-4c-40 0 -86 14 -107 32c-21 19 -47 62 -47 104c0 44 15 74 35 94s47 46 107 46h6c38 -1 70 -17 90 -39c27 -29 42 -64 43 -106zM337 586c0 11 -2 20 -6 28l-15 24c-12 22 -34 30 -63 30c-19 0 -37 -2 -61 -20
c-23 -17 -26 -40 -26 -63c0 -24 5 -39 21 -59c17 -19 31 -25 59 -29c3 0 5 -1 8 -1c17 0 34 8 48 18c5 3 9 6 12 8c15 11 23 42 23 64z" />
    <glyph glyph-name="abreve" unicode="&#x103;" horiz-adv-x="518" 
d="M441 16v-11c-2 -4 -5 -8 -20 -8h-5c-28 2 -38 3 -38 12c0 1 1 2 1 3c1 3 1 6 1 9c0 12 -9 20 -19 20c-7 0 -14 -3 -20 -9c-5 -3 -10 -8 -15 -14c-5 -5 -12 -11 -20 -16c-17 -11 -41 -20 -77 -20c-74 0 -118 30 -144 63c-25 31 -48 94 -48 133v8c4 41 12 91 34 123
c31 43 95 79 151 79c38 0 79 -12 90 -26c8 -8 15 -17 24 -25s18 -13 25 -13c2 0 3 0 5 1c12 4 18 18 18 34c0 3 -1 7 -1 12c0 7 6 8 18 8h10c17 0 30 -1 30 -27v-5c-1 -14 -1 -29 -1 -45c0 -32 1 -67 1 -100v-170v-16zM383 186c1 7 2 14 2 20c0 10 -2 19 -5 27
c-3 6 -9 13 -10 20l-15 26c-13 22 -30 33 -48 39c-6 3 -15 4 -21 6c-1 0 -1 1 -5 1l-23 5c-6 1 -12 1 -18 1c-36 0 -79 -18 -93 -29c-19 -14 -34 -75 -36 -111v-9c0 -35 9 -66 22 -90c16 -26 54 -46 99 -49c8 0 14 -1 20 -1c31 0 52 5 79 26c35 26 49 76 52 118zM408 608
c0 -33 -7 -61 -26 -80c-41 -42 -88 -62 -119 -62c-32 0 -85 5 -116 30c-31 24 -53 62 -53 102c0 22 12 31 25 31c12 0 27 -8 31 -23c6 -24 9 -41 21 -58c20 -27 38 -32 63 -32c6 0 12 1 18 1c3 0 5 1 8 1c27 2 48 3 69 30c21 28 23 18 23 49c0 25 14 35 27 35
c14 0 28 -10 29 -24z" />
    <glyph glyph-name="amacron" unicode="&#x101;" horiz-adv-x="518" 
d="M441 16v-11c-2 -4 -5 -8 -20 -8h-5c-28 2 -38 3 -38 12c0 1 1 2 1 3c1 3 1 6 1 9c0 12 -9 20 -19 20c-7 0 -14 -3 -20 -9c-5 -3 -10 -8 -15 -14c-5 -5 -12 -11 -20 -16c-17 -11 -41 -20 -77 -20c-74 0 -118 30 -144 63c-25 31 -48 94 -48 133v8c4 41 12 91 34 123
c31 43 95 79 151 79c38 0 79 -12 90 -26c8 -8 15 -17 24 -25s18 -13 25 -13c2 0 3 0 5 1c12 4 18 18 18 34c0 3 -1 7 -1 12c0 7 6 8 18 8h10c17 0 30 -1 30 -27v-5c-1 -14 -1 -29 -1 -45c0 -32 1 -67 1 -100v-170v-16zM383 186c1 7 2 14 2 20c0 10 -2 19 -5 27
c-3 6 -9 13 -10 20l-15 26c-13 22 -30 33 -48 39c-6 3 -15 4 -21 6c-1 0 -1 1 -5 1l-23 5c-6 1 -12 1 -18 1c-36 0 -79 -18 -93 -29c-19 -14 -34 -75 -36 -111v-9c0 -35 9 -66 22 -90c16 -26 54 -46 99 -49c8 0 14 -1 20 -1c31 0 52 5 79 26c35 26 49 76 52 118zM438 521
c0 -4 -1 -9 -2 -13c0 -3 -1 -7 -2 -9c-2 -4 -5 -8 -14 -9c-10 -2 -125 -4 -143 -4c-6 0 -32 -1 -64 -1c-54 0 -125 1 -131 2c-16 4 -21 9 -21 21c0 4 1 9 2 16c4 30 11 37 25 37c17 0 182 -3 192 -5c20 -3 145 -5 153 -5c1 0 6 -6 6 -20c0 -4 -1 -6 -1 -10z" />
    <glyph glyph-name="aogonek" unicode="&#x105;" horiz-adv-x="518" 
d="M383 186c1 7 2 14 2 20c0 10 -2 19 -5 27c-2 5 -10 15 -10 20l-15 26c-13 22 -30 33 -48 39c-6 3 -15 4 -21 6c-1 0 -1 1 -5 1l-23 5c-6 1 -12 1 -18 1c-36 0 -79 -18 -93 -29c-19 -14 -34 -75 -36 -111v-9c0 -35 9 -66 22 -90c16 -26 54 -46 99 -49c8 0 14 -1 20 -1
c31 0 52 5 79 26c35 26 49 76 52 118zM281 -125c0 12 2 25 5 35c8 33 48 72 82 94c6 3 12 7 12 17c0 12 -9 20 -19 20c-7 0 -14 -3 -20 -9c-5 -3 -10 -8 -15 -14c-5 -5 -12 -11 -20 -16c-17 -11 -41 -20 -77 -20c-74 0 -118 30 -144 63c-25 31 -48 94 -48 133v8
c4 41 12 91 34 123c22 31 92 80 151 80c38 0 79 -13 90 -27c8 -8 15 -17 24 -25s18 -13 25 -13c2 0 3 0 5 1c12 4 18 18 18 34c0 3 -1 7 -1 12c0 7 6 8 18 8h10c17 0 30 -1 30 -27v-5c-1 -14 -1 -29 -1 -45c0 -32 1 -67 1 -100v-170v-16v-11l-2 -3c-2 -3 -5 -6 -9 -10
c-34 -19 -67 -40 -84 -71c-10 -16 -15 -31 -15 -42c0 -19 21 -40 46 -40c23 0 40 -1 49 -5c6 -3 8 -8 8 -15c0 -9 -2 -14 -9 -18c-9 -6 -27 -8 -53 -8c-40 0 -73 26 -83 43c-6 10 -8 25 -8 39z" />
    <glyph glyph-name="ae" unicode="&#xe6;" horiz-adv-x="806" 
d="M761 197c0 -2 -2 -6 -18 -6c-11 -1 -31 -1 -54 -1c-46 0 -103 1 -123 1c-16 0 -45 1 -70 1c-27 -1 -50 -7 -55 -17v-25c5 -24 18 -53 31 -64c4 -4 9 -8 14 -12c26 -20 54 -30 87 -31h8c50 0 90 20 98 38c3 10 8 20 16 28c3 3 7 6 12 6c4 0 9 -2 14 -6
c14 -12 20 -21 20 -29c0 -9 -6 -17 -16 -24c-14 -10 -26 -20 -37 -30c-12 -10 -21 -18 -29 -22c-16 -9 -42 -17 -74 -17c-31 0 -89 4 -111 39c-7 10 -15 16 -23 16c-5 0 -9 -3 -10 -10v-3v-13v-11c-2 -4 -5 -8 -20 -8h-5c-28 2 -38 3 -38 12c0 1 1 2 1 3c1 3 1 6 1 9
c0 12 -9 20 -19 20c-7 0 -14 -3 -20 -9c-5 -3 -10 -8 -15 -14c-5 -5 -12 -11 -20 -16c-17 -11 -41 -20 -77 -20c-74 0 -118 30 -144 63c-25 31 -48 94 -48 133v8c4 41 12 91 34 123c31 43 95 79 151 79c38 0 79 -12 90 -26c8 -8 15 -17 24 -25s18 -13 25 -13c2 0 3 0 5 1
c12 4 18 18 18 34c0 3 -1 7 -1 12c0 7 6 8 18 8h7c19 0 33 -3 33 -31v-5c0 -11 2 -17 8 -17c4 0 10 5 17 14c18 22 60 52 99 52h6c42 -2 92 -19 117 -47c27 -31 61 -84 68 -116l5 -21c0 -3 1 -6 1 -7c0 -2 -1 -3 -1 -4zM691 263c-7 13 -22 26 -32 36c-23 22 -38 36 -85 38
h-4c-53 0 -97 -30 -113 -52c-4 -6 -6 -12 -6 -17c0 -19 25 -32 35 -33c10 -3 64 -4 81 -4c18 0 61 1 100 1c18 0 27 7 27 18c0 4 -1 8 -3 13zM383 186c1 7 2 14 2 20c0 10 -2 19 -5 27c-3 6 -9 13 -10 20l-15 26c-13 22 -30 33 -48 39c-6 3 -15 4 -21 6c-1 0 -1 1 -5 1
l-23 5c-6 1 -12 1 -18 1c-36 0 -79 -18 -93 -29c-19 -14 -34 -75 -36 -111v-9c0 -35 9 -66 22 -90c16 -26 54 -46 99 -49c8 0 14 -1 20 -1c31 0 52 5 79 26c35 26 49 76 52 118z" />
    <glyph glyph-name="aeacute" unicode="&#x1fd;" horiz-adv-x="806" 
d="M761 197c0 -2 -2 -6 -18 -6c-11 -1 -31 -1 -54 -1c-46 0 -103 1 -123 1c-16 0 -45 1 -70 1c-27 -1 -50 -7 -55 -17v-25c5 -24 18 -53 31 -64c4 -4 9 -8 14 -12c26 -20 54 -30 87 -31h8c50 0 90 20 98 38c3 10 8 20 16 28c3 3 7 6 12 6c4 0 9 -2 14 -6
c14 -12 20 -21 20 -29c0 -9 -6 -17 -16 -24c-14 -10 -26 -20 -37 -30c-12 -10 -21 -18 -29 -22c-16 -9 -42 -17 -74 -17c-31 0 -89 4 -111 39c-7 10 -15 16 -23 16c-5 0 -9 -3 -10 -10v-3v-13v-11c-2 -4 -5 -8 -20 -8h-5c-28 2 -38 3 -38 12c0 1 1 2 1 3c1 3 1 6 1 9
c0 12 -9 20 -19 20c-7 0 -14 -3 -20 -9c-5 -3 -10 -8 -15 -14c-5 -5 -12 -11 -20 -16c-17 -11 -41 -20 -77 -20c-74 0 -118 30 -144 63c-25 31 -48 94 -48 133v8c4 41 12 91 34 123c31 43 95 79 151 79c38 0 79 -12 90 -26c8 -8 15 -17 24 -25s18 -13 25 -13c2 0 3 0 5 1
c12 4 18 18 18 34c0 3 -1 7 -1 12c0 7 6 8 18 8h7c19 0 33 -3 33 -31v-5c0 -11 2 -17 8 -17c4 0 10 5 17 14c18 22 60 52 99 52h6c42 -2 92 -19 117 -47c27 -31 61 -84 68 -116l5 -21c0 -3 1 -6 1 -7c0 -2 -1 -3 -1 -4zM691 263c-7 13 -22 26 -32 36c-23 22 -38 36 -85 38
h-4c-53 0 -97 -30 -113 -52c-4 -6 -6 -12 -6 -17c0 -19 25 -32 35 -33c10 -3 64 -4 81 -4c18 0 61 1 100 1c18 0 27 7 27 18c0 4 -1 8 -3 13zM383 186c1 7 2 14 2 20c0 10 -2 19 -5 27c-3 6 -9 13 -10 20l-15 26c-13 22 -30 33 -48 39c-6 3 -15 4 -21 6c-1 0 -1 1 -5 1
l-23 5c-6 1 -12 1 -18 1c-36 0 -79 -18 -93 -29c-19 -14 -34 -75 -36 -111v-9c0 -35 9 -66 22 -90c16 -26 54 -46 99 -49c8 0 14 -1 20 -1c31 0 52 5 79 26c35 26 49 76 52 118zM583 640c-33 -32 -62 -49 -88 -79c-12 -15 -33 -30 -49 -46c-21 -22 -32 -36 -49 -56
c-7 -9 -12 -16 -28 -16h-5c-9 1 -23 12 -23 23c0 3 1 6 4 10c41 39 105 127 120 155c12 24 20 40 60 40h13c34 -3 56 -5 56 -15c0 -5 -4 -10 -11 -16z" />
    <glyph glyph-name="a.alt" horiz-adv-x="408" 
d="M150 386c14 2 30 5 46 5c27 0 55 -6 84 -25c11 -9 23 -18 34 -29c22 -21 25 -82 25 -142c0 -29 -1 -55 -1 -78c0 -16 3 -62 3 -89c0 -20 -12 -30 -33 -30c-16 0 -24 19 -35 19c-2 0 -2 0 -4 -1c-30 -13 -63 -25 -91 -26h-8c-29 0 -57 5 -85 32c-23 23 -44 57 -46 90
c0 5 -1 9 -1 14c0 26 5 52 23 76c25 33 67 57 103 57h8c64 -8 85 -28 92 -28c8 3 18 33 18 41c0 22 -31 56 -59 61c-9 2 -18 3 -26 3c-28 0 -55 -15 -84 -15c-12 1 -21 4 -21 15c0 5 2 12 5 21c11 29 25 25 53 29zM97 119c1 -8 8 -25 10 -31c16 -36 30 -37 71 -42h18
c9 0 20 0 25 1c28 6 70 58 70 90v5c-1 11 -15 27 -22 35c-18 20 -48 34 -76 34c-48 0 -97 -35 -97 -82c0 -3 0 -7 1 -10z" />
    <glyph glyph-name="aacute.alt" horiz-adv-x="408" 
d="M150 386c14 2 30 5 46 5c27 0 55 -6 84 -25c11 -9 23 -18 34 -29c22 -21 25 -82 25 -142c0 -29 -1 -55 -1 -78c0 -16 3 -62 3 -89c0 -20 -12 -30 -33 -30c-16 0 -24 19 -35 19c-2 0 -2 0 -4 -1c-30 -13 -63 -25 -91 -26h-8c-29 0 -57 5 -85 32c-23 23 -44 57 -46 90
c0 5 -1 9 -1 14c0 26 5 52 23 76c25 33 67 57 103 57h8c64 -8 85 -28 92 -28c8 3 18 33 18 41c0 22 -31 56 -59 61c-9 2 -18 3 -26 3c-28 0 -55 -15 -84 -15c-12 1 -21 4 -21 15c0 5 2 12 5 21c11 29 25 25 53 29zM97 119c1 -8 8 -25 10 -31c16 -36 30 -37 71 -42h18
c9 0 20 0 25 1c28 6 70 58 70 90v5c-1 11 -15 27 -22 35c-18 20 -48 34 -76 34c-48 0 -97 -35 -97 -82c0 -3 0 -7 1 -10zM388 640c-33 -32 -62 -49 -88 -79c-12 -15 -33 -30 -49 -46c-21 -22 -32 -36 -49 -56c-7 -9 -12 -16 -28 -16h-5c-9 1 -23 12 -23 23c0 3 1 6 4 10
c41 39 105 127 120 155c12 24 20 40 60 40h13c34 -3 56 -5 56 -15c0 -5 -4 -10 -11 -16z" />
    <glyph glyph-name="agrave.alt" horiz-adv-x="408" 
d="M150 386c14 2 30 5 46 5c27 0 55 -6 84 -25c11 -9 23 -18 34 -29c22 -21 25 -82 25 -142c0 -29 -1 -55 -1 -78c0 -16 3 -62 3 -89c0 -20 -12 -30 -33 -30c-16 0 -24 19 -35 19c-2 0 -2 0 -4 -1c-30 -13 -63 -25 -91 -26h-8c-29 0 -57 5 -85 32c-23 23 -44 57 -46 90
c0 5 -1 9 -1 14c0 26 5 52 23 76c25 33 67 57 103 57h8c64 -8 85 -28 92 -28c8 3 18 33 18 41c0 22 -31 56 -59 61c-9 2 -18 3 -26 3c-28 0 -55 -15 -84 -15c-12 1 -21 4 -21 15c0 5 2 12 5 21c11 29 25 25 53 29zM97 119c1 -8 8 -25 10 -31c16 -36 30 -37 71 -42h18
c9 0 20 0 25 1c28 6 70 58 70 90v5c-1 11 -15 27 -22 35c-18 20 -48 34 -76 34c-48 0 -97 -35 -97 -82c0 -3 0 -7 1 -10zM237 437c-20 0 -36 17 -45 28c-15 19 -25 29 -46 51c-16 15 -29 33 -42 45c-29 28 -51 42 -84 73c-8 7 -11 12 -11 16c0 10 21 15 56 15h12
c40 0 48 -16 60 -39c15 -28 82 -111 120 -156c3 -4 4 -7 4 -10c0 -10 -12 -23 -24 -23z" />
    <glyph glyph-name="acircumflex.alt" horiz-adv-x="408" 
d="M150 386c14 2 30 5 46 5c27 0 55 -6 84 -25c11 -9 23 -18 34 -29c22 -21 25 -82 25 -142c0 -29 -1 -55 -1 -78c0 -16 3 -62 3 -89c0 -20 -12 -30 -33 -30c-16 0 -24 19 -35 19c-2 0 -2 0 -4 -1c-30 -13 -63 -25 -91 -26h-8c-29 0 -57 5 -85 32c-23 23 -44 57 -46 90
c0 5 -1 9 -1 14c0 26 5 52 23 76c25 33 67 57 103 57h8c64 -8 85 -28 92 -28c8 3 18 33 18 41c0 22 -31 56 -59 61c-9 2 -18 3 -26 3c-28 0 -55 -15 -84 -15c-12 1 -21 4 -21 15c0 5 2 12 5 21c11 29 25 25 53 29zM97 119c1 -8 8 -25 10 -31c16 -36 30 -37 71 -42h18
c9 0 20 0 25 1c28 6 70 58 70 90v5c-1 11 -15 27 -22 35c-18 20 -48 34 -76 34c-48 0 -97 -35 -97 -82c0 -3 0 -7 1 -10zM403 471c3 -4 4 -7 4 -11c0 -10 -12 -22 -25 -22c-19 0 -36 17 -44 28c-15 19 -25 29 -47 50c-15 16 -27 34 -41 46c-22 21 -32 32 -42 32
s-19 -13 -42 -38c-12 -15 -33 -30 -49 -46c-21 -22 -32 -35 -49 -56c-7 -9 -12 -16 -28 -16h-5c-9 1 -23 12 -23 23c0 3 1 6 4 10c41 40 105 128 120 155c13 24 20 40 60 40h27c38 0 47 -15 59 -37l2 -3c15 -27 81 -110 119 -155z" />
    <glyph glyph-name="adieresis.alt" horiz-adv-x="408" 
d="M150 386c14 2 30 5 46 5c27 0 55 -6 84 -25c11 -9 23 -18 34 -29c22 -21 25 -82 25 -142c0 -29 -1 -55 -1 -78c0 -16 3 -62 3 -89c0 -20 -12 -30 -33 -30c-16 0 -24 19 -35 19c-2 0 -2 0 -4 -1c-30 -13 -63 -25 -91 -26h-8c-29 0 -57 5 -85 32c-23 23 -44 57 -46 90
c0 5 -1 9 -1 14c0 26 5 52 23 76c25 33 67 57 103 57h8c64 -8 85 -28 92 -28c8 3 18 33 18 41c0 22 -31 56 -59 61c-9 2 -18 3 -26 3c-28 0 -55 -15 -84 -15c-12 1 -21 4 -21 15c0 5 2 12 5 21c11 29 25 25 53 29zM97 119c1 -8 8 -25 10 -31c16 -36 30 -37 71 -42h18
c9 0 20 0 25 1c28 6 70 58 70 90v5c-1 11 -15 27 -22 35c-18 20 -48 34 -76 34c-48 0 -97 -35 -97 -82c0 -3 0 -7 1 -10zM343 526c0 -31 -19 -62 -49 -62c-33 0 -58 19 -58 52v4c2 36 30 52 54 52c23 0 53 -19 53 -46zM170 519c-1 -23 -25 -58 -51 -60c-28 3 -64 27 -65 59
c2 37 25 57 55 57h3c26 -2 57 -27 58 -56z" />
    <glyph glyph-name="atilde.alt" horiz-adv-x="408" 
d="M150 386c14 2 30 5 46 5c27 0 55 -6 84 -25c11 -9 23 -18 34 -29c22 -21 25 -82 25 -142c0 -29 -1 -55 -1 -78c0 -16 3 -62 3 -89c0 -20 -12 -30 -33 -30c-16 0 -24 19 -35 19c-2 0 -2 0 -4 -1c-30 -13 -63 -25 -91 -26h-8c-29 0 -57 5 -85 32c-23 23 -44 57 -46 90
c0 5 -1 9 -1 14c0 26 5 52 23 76c25 33 67 57 103 57h8c64 -8 85 -28 92 -28c8 3 18 33 18 41c0 22 -31 56 -59 61c-9 2 -18 3 -26 3c-28 0 -55 -15 -84 -15c-12 1 -21 4 -21 15c0 5 2 12 5 21c11 29 25 25 53 29zM97 119c1 -8 8 -25 10 -31c16 -36 30 -37 71 -42h18
c9 0 20 0 25 1c28 6 70 58 70 90v5c-1 11 -15 27 -22 35c-18 20 -48 34 -76 34c-48 0 -97 -35 -97 -82c0 -3 0 -7 1 -10zM377 569c3 -5 5 -10 5 -17c0 -17 -13 -41 -43 -68c-16 -16 -48 -23 -73 -23c-4 0 -8 0 -12 1c-23 4 -78 37 -100 51c-11 8 -27 13 -42 13
c-13 0 -25 -4 -33 -14c-18 -20 -30 -36 -45 -36c-4 0 -8 2 -12 5c-6 3 -8 8 -8 15c0 17 13 42 25 57c19 24 45 37 82 37c28 0 51 -9 88 -35c21 -16 48 -25 71 -25c18 0 34 5 44 16c19 20 30 32 39 32c5 0 9 -2 14 -9z" />
    <glyph glyph-name="aring.alt" horiz-adv-x="408" 
d="M150 386c14 2 30 5 46 5c27 0 55 -6 84 -25c11 -9 23 -18 34 -29c22 -21 25 -82 25 -142c0 -29 -1 -55 -1 -78c0 -16 3 -62 3 -89c0 -20 -12 -30 -33 -30c-16 0 -24 19 -35 19c-2 0 -2 0 -4 -1c-30 -13 -63 -25 -91 -26h-8c-29 0 -57 5 -85 32c-23 23 -44 57 -46 90
c0 5 -1 9 -1 14c0 26 5 52 23 76c25 33 67 57 103 57h8c64 -8 85 -28 92 -28c8 3 18 33 18 41c0 22 -31 56 -59 61c-9 2 -18 3 -26 3c-28 0 -55 -15 -84 -15c-12 1 -21 4 -21 15c0 5 2 12 5 21c11 29 25 25 53 29zM97 119c1 -8 8 -25 10 -31c16 -36 30 -37 71 -42h18
c9 0 20 0 25 1c28 6 70 58 70 90v5c-1 11 -15 27 -22 35c-18 20 -48 34 -76 34c-48 0 -97 -35 -97 -82c0 -3 0 -7 1 -10zM336 578c-2 -48 -8 -61 -37 -92c-29 -32 -45 -37 -86 -39h-4c-40 0 -86 14 -107 32c-21 19 -47 62 -47 104c0 44 15 74 35 94s47 46 107 46h6
c38 -1 70 -17 90 -39c27 -29 42 -64 43 -106zM284 586c0 11 -2 20 -6 28l-15 24c-12 22 -34 30 -63 30c-19 0 -37 -2 -61 -20c-23 -17 -26 -40 -26 -63c0 -24 5 -39 21 -59c17 -19 31 -25 59 -29c3 0 5 -1 8 -1c17 0 34 8 48 18c5 3 9 6 12 8c15 11 23 42 23 64z" />
    <glyph glyph-name="abreve.alt" horiz-adv-x="408" 
d="M150 386c14 2 30 5 46 5c27 0 55 -6 84 -25c11 -9 23 -18 34 -29c22 -21 25 -82 25 -142c0 -29 -1 -55 -1 -78c0 -16 3 -62 3 -89c0 -20 -12 -30 -33 -30c-16 0 -24 19 -35 19c-2 0 -2 0 -4 -1c-30 -13 -63 -25 -91 -26h-8c-29 0 -57 5 -85 32c-23 23 -44 57 -46 90
c0 5 -1 9 -1 14c0 26 5 52 23 76c25 33 67 57 103 57h8c64 -8 85 -28 92 -28c8 3 18 33 18 41c0 22 -31 56 -59 61c-9 2 -18 3 -26 3c-28 0 -55 -15 -84 -15c-12 1 -21 4 -21 15c0 5 2 12 5 21c11 29 25 25 53 29zM97 119c1 -8 8 -25 10 -31c16 -36 30 -37 71 -42h18
c9 0 20 0 25 1c28 6 70 58 70 90v5c-1 11 -15 27 -22 35c-18 20 -48 34 -76 34c-48 0 -97 -35 -97 -82c0 -3 0 -7 1 -10zM359 608c0 -33 -7 -61 -26 -80c-41 -42 -88 -62 -119 -62c-32 0 -85 5 -116 30c-31 24 -53 62 -53 102c0 22 12 31 25 31c12 0 27 -8 31 -23
c6 -24 9 -41 21 -58c20 -27 38 -32 63 -32c6 0 12 1 18 1c3 0 5 1 8 1c27 2 48 3 69 30c21 28 23 18 23 49c0 25 14 35 27 35c14 0 28 -10 29 -24z" />
    <glyph glyph-name="amacron.alt" horiz-adv-x="408" 
d="M150 386c14 2 30 5 46 5c27 0 55 -6 84 -25c11 -9 23 -18 34 -29c22 -21 25 -82 25 -142c0 -29 -1 -55 -1 -78c0 -16 3 -62 3 -89c0 -20 -12 -30 -33 -30c-16 0 -24 19 -35 19c-2 0 -2 0 -4 -1c-30 -13 -63 -25 -91 -26h-8c-29 0 -57 5 -85 32c-23 23 -44 57 -46 90
c0 5 -1 9 -1 14c0 26 5 52 23 76c25 33 67 57 103 57h8c64 -8 85 -28 92 -28c8 3 18 33 18 41c0 22 -31 56 -59 61c-9 2 -18 3 -26 3c-28 0 -55 -15 -84 -15c-12 1 -21 4 -21 15c0 5 2 12 5 21c11 29 25 25 53 29zM97 119c1 -8 8 -25 10 -31c16 -36 30 -37 71 -42h18
c9 0 20 0 25 1c28 6 70 58 70 90v5c-1 11 -15 27 -22 35c-18 20 -48 34 -76 34c-48 0 -97 -35 -97 -82c0 -3 0 -7 1 -10zM392 521c0 -4 -1 -9 -2 -13c0 -3 -1 -7 -2 -9c-2 -4 -5 -8 -14 -9c-10 -2 -125 -4 -143 -4c-6 0 -32 -1 -64 -1c-54 0 -125 1 -131 2
c-16 4 -21 9 -21 21c0 4 1 9 2 16c4 30 11 37 25 37c17 0 182 -3 192 -5c20 -3 145 -5 153 -5c1 0 6 -6 6 -20c0 -4 -1 -6 -1 -10z" />
    <glyph glyph-name="aogonek.alt" horiz-adv-x="408" 
d="M97 119c1 -8 8 -25 10 -31c16 -36 30 -37 71 -42h18c9 0 20 0 25 1c28 6 70 58 70 90v5c-1 11 -15 27 -22 35c-17 19 -49 34 -76 34c-48 0 -97 -35 -97 -82c0 -3 0 -7 1 -10zM181 -117c0 13 3 25 5 35c9 33 44 67 85 95c3 2 4 3 4 5c0 3 -4 6 -5 6c-12 0 -59 -33 -92 -34
h-8c-29 0 -57 5 -85 32c-23 23 -44 57 -46 90c0 5 -1 9 -1 14c0 26 5 52 23 76c25 33 67 57 103 57h8c63 -8 85 -28 92 -28c7 3 18 32 18 41c0 22 -31 56 -59 61c-9 2 -18 3 -26 3c-36 0 -61 -15 -84 -15c-12 1 -21 4 -21 15c0 5 2 12 5 21c11 29 25 25 53 29
c14 2 30 5 46 5c27 0 55 -6 84 -25c11 -9 23 -18 34 -29c22 -21 25 -82 25 -142c0 -29 -1 -55 -1 -78c0 -16 3 -62 3 -89v-12c0 -6 -4 -11 -10 -15c-34 -20 -67 -40 -85 -72c-9 -16 -14 -31 -14 -42c0 -19 21 -40 46 -40c23 0 40 -1 49 -5c6 -3 8 -8 8 -15
c0 -9 -2 -14 -9 -18c-9 -6 -27 -8 -53 -8c-40 0 -73 26 -83 43c-7 10 -9 25 -9 39z" />
    <glyph glyph-name="ae.alt" horiz-adv-x="702" 
d="M664 197c0 -2 -2 -6 -18 -6c-11 -1 -31 -1 -55 -1c-45 0 -102 1 -123 1c-15 0 -43 1 -68 1c-30 -1 -54 -8 -57 -20c-1 -2 -1 -5 -1 -7c0 -25 17 -65 33 -79l15 -12c25 -20 53 -30 86 -31h8c50 0 90 20 97 38c5 10 10 20 17 28c3 3 7 6 12 6c3 0 8 -2 13 -6
c14 -12 20 -21 20 -30c0 -8 -6 -16 -16 -23c-12 -10 -25 -20 -36 -30s-21 -18 -29 -22c-16 -9 -42 -17 -74 -17c-34 0 -100 3 -134 37c-2 2 -4 2 -6 2c-4 0 -7 -3 -7 -8c0 -15 -19 -20 -33 -20c-16 0 -24 19 -35 19c-2 0 -2 0 -4 -1c-30 -13 -63 -25 -91 -26h-8
c-29 0 -57 5 -85 32c-23 23 -44 57 -46 90c0 5 -1 9 -1 14c0 26 5 52 23 76c25 33 67 57 103 57h8c64 -8 85 -28 92 -28c8 3 18 33 18 41c0 22 -31 56 -59 61c-9 2 -18 3 -26 3c-28 0 -55 -15 -84 -15c-12 1 -21 4 -21 15c0 5 2 12 5 21c11 29 25 25 53 29c14 2 30 5 46 5
c27 0 55 -6 84 -25c11 -9 17 -10 26 -22c5 -6 10 -8 16 -8c7 0 14 2 20 7c36 26 74 49 120 49h12c42 -2 92 -19 117 -47c27 -31 61 -84 69 -116l4 -21c0 -3 1 -6 1 -7c0 -2 -1 -3 -1 -4zM97 119c1 -8 8 -25 10 -31c16 -36 30 -37 71 -42h18c9 0 20 0 25 1c28 6 70 58 70 90
v5c-1 11 -15 27 -22 35c-18 20 -48 34 -76 34c-48 0 -97 -35 -97 -82c0 -3 0 -7 1 -10zM593 263c-7 13 -21 26 -31 36c-22 22 -38 36 -86 38h-4c-51 0 -96 -30 -111 -52c-5 -6 -7 -12 -7 -18c0 -18 24 -31 35 -32c11 -3 64 -4 82 -4c17 0 60 1 99 1c18 0 26 7 26 18
c0 4 0 8 -3 13z" />
    <glyph glyph-name="aeacute.alt" horiz-adv-x="702" 
d="M664 197c0 -2 -2 -6 -18 -6c-11 -1 -31 -1 -55 -1c-45 0 -102 1 -123 1c-15 0 -43 1 -68 1c-30 -1 -54 -8 -57 -20c-1 -2 -1 -5 -1 -7c0 -25 17 -65 33 -79l15 -12c25 -20 53 -30 86 -31h8c50 0 90 20 97 38c5 10 10 20 17 28c3 3 7 6 12 6c3 0 8 -2 13 -6
c14 -12 20 -21 20 -30c0 -8 -6 -16 -16 -23c-12 -10 -25 -20 -36 -30s-21 -18 -29 -22c-16 -9 -42 -17 -74 -17c-34 0 -100 3 -134 37c-2 2 -4 2 -6 2c-4 0 -7 -3 -7 -8c0 -15 -19 -20 -33 -20c-16 0 -24 19 -35 19c-2 0 -2 0 -4 -1c-30 -13 -63 -25 -91 -26h-8
c-29 0 -57 5 -85 32c-23 23 -44 57 -46 90c0 5 -1 9 -1 14c0 26 5 52 23 76c25 33 67 57 103 57h8c64 -8 85 -28 92 -28c8 3 18 33 18 41c0 22 -31 56 -59 61c-9 2 -18 3 -26 3c-28 0 -55 -15 -84 -15c-12 1 -21 4 -21 15c0 5 2 12 5 21c11 29 25 25 53 29c14 2 30 5 46 5
c27 0 55 -6 84 -25c11 -9 17 -10 26 -22c5 -6 10 -8 16 -8c7 0 14 2 20 7c36 26 74 49 120 49h12c42 -2 92 -19 117 -47c27 -31 61 -84 69 -116l4 -21c0 -3 1 -6 1 -7c0 -2 -1 -3 -1 -4zM97 119c1 -8 8 -25 10 -31c16 -36 30 -37 71 -42h18c9 0 20 0 25 1c28 6 70 58 70 90
v5c-1 11 -15 27 -22 35c-18 20 -48 34 -76 34c-48 0 -97 -35 -97 -82c0 -3 0 -7 1 -10zM593 263c-7 13 -21 26 -31 36c-22 22 -38 36 -86 38h-4c-51 0 -96 -30 -111 -52c-5 -6 -7 -12 -7 -18c0 -18 24 -31 35 -32c11 -3 64 -4 82 -4c17 0 60 1 99 1c18 0 26 7 26 18
c0 4 0 8 -3 13zM495 640c-33 -32 -62 -49 -88 -79c-12 -15 -33 -30 -49 -46c-21 -22 -32 -36 -49 -56c-7 -9 -12 -16 -28 -16h-5c-9 1 -23 12 -23 23c0 3 1 6 4 10c41 39 105 127 120 155c12 24 20 40 60 40h13c34 -3 56 -5 56 -15c0 -5 -4 -10 -11 -16z" />
    <glyph glyph-name="b" unicode="b" horiz-adv-x="518" 
d="M470 213v-4c-1 -20 -1 -48 -6 -75c-4 -28 -12 -53 -28 -71c-31 -37 -85 -73 -138 -75h-12c-46 0 -65 9 -81 25l-15 17c-5 6 -10 11 -15 16c-6 4 -12 7 -17 7c-7 0 -13 -6 -14 -22c-2 -33 -6 -37 -31 -37c-24 0 -37 4 -37 24c0 5 0 10 2 17c5 22 6 74 6 124s-2 100 -2 122
c0 43 -2 233 -7 280l-4 35c-1 5 -1 10 -1 14c0 6 1 11 1 16c3 18 15 25 34 25h20c6 0 11 0 15 -1c5 -2 10 -5 10 -18v-3l-4 -90c-1 -35 -3 -68 -6 -83s-4 -35 -4 -53v-7c1 -15 2 -29 2 -37c0 -14 7 -33 20 -33c7 0 15 5 26 18c19 23 57 47 97 47h4c44 -1 105 -17 134 -55
c30 -39 51 -85 51 -123zM418 193c0 35 -2 48 -35 93c-27 39 -52 49 -85 49c-5 0 -12 -1 -17 -1c-30 -2 -61 -6 -95 -31c-30 -23 -53 -48 -53 -102c0 -5 0 -10 1 -15c2 -31 9 -52 20 -69c9 -16 22 -27 36 -40c27 -25 66 -29 101 -33c3 -1 6 -1 9 -1c26 0 46 13 64 33l21 21
c31 34 33 62 33 96z" />
    <glyph glyph-name="c" unicode="c" horiz-adv-x="393" 
d="M363 22c-1 -4 -3 -9 -22 -16c-18 -6 -34 -13 -51 -17c-15 -3 -30 -6 -48 -6h-8c-43 3 -90 15 -133 58c-44 44 -57 96 -59 138v6c0 42 18 117 50 147c36 32 85 63 139 63h4c54 -3 80 -4 96 -14c4 -4 9 -6 14 -9c4 -2 7 -5 11 -8c3 -3 6 -8 6 -18c0 -3 0 -6 -1 -10
c0 -10 -2 -18 -3 -25c-2 -6 -2 -10 -4 -13c-1 -1 -2 -2 -3 -2s-5 3 -10 6c-26 18 -51 29 -89 29h-7c-40 -2 -58 -5 -94 -34c-35 -28 -47 -66 -47 -106c0 -37 7 -84 44 -110c34 -24 48 -30 94 -35h13c41 0 71 15 89 28c3 2 6 3 7 3c5 0 8 -6 9 -21l2 -20c1 -6 1 -10 1 -14z
" />
    <glyph glyph-name="cacute" unicode="&#x107;" horiz-adv-x="393" 
d="M363 22c-1 -4 -3 -9 -22 -16c-18 -6 -34 -13 -51 -17c-15 -3 -30 -6 -48 -6h-8c-43 3 -90 15 -133 58c-44 44 -57 96 -59 138v6c0 42 18 117 50 147c36 32 85 63 139 63h4c54 -3 80 -4 96 -14c4 -4 9 -6 14 -9c4 -2 7 -5 11 -8c3 -3 6 -8 6 -18c0 -3 0 -6 -1 -10
c0 -10 -2 -18 -3 -25c-2 -6 -2 -10 -4 -13c-1 -1 -2 -2 -3 -2s-5 3 -10 6c-26 18 -51 29 -89 29h-7c-40 -2 -58 -5 -94 -34c-35 -28 -47 -66 -47 -106c0 -37 7 -84 44 -110c34 -24 48 -30 94 -35h13c41 0 71 15 89 28c3 2 6 3 7 3c5 0 8 -6 9 -21l2 -20c1 -6 1 -10 1 -14z
M418 640c-33 -32 -62 -49 -88 -79c-12 -15 -33 -30 -49 -46c-21 -22 -32 -36 -49 -56c-7 -9 -12 -16 -28 -16h-5c-9 1 -23 12 -23 23c0 3 1 6 4 10c41 39 105 127 120 155c12 24 20 40 60 40h13c34 -3 56 -5 56 -15c0 -5 -4 -10 -11 -16z" />
    <glyph glyph-name="ccaron" unicode="&#x10d;" horiz-adv-x="393" 
d="M419 643c-40 -40 -105 -128 -120 -157c-12 -23 -20 -39 -60 -39c-4 0 -8 1 -14 1c-5 0 -9 -1 -12 -1c-41 0 -49 16 -61 39c-15 29 -81 111 -119 157c-4 3 -4 7 -4 10c0 11 11 23 24 23c19 0 36 -17 45 -29c15 -18 25 -29 46 -51c16 -15 28 -32 42 -45
c22 -21 32 -32 41 -32s17 8 31 25l1 2l10 11c13 14 34 30 50 46c22 23 30 38 48 56c7 10 13 17 31 17h3c9 -1 23 -13 23 -24c0 -3 -1 -6 -5 -9zM363 22c-1 -4 -3 -9 -22 -16c-18 -6 -34 -13 -51 -17c-15 -3 -30 -6 -48 -6h-8c-43 3 -90 15 -133 58c-44 44 -57 96 -59 138v6
c0 42 18 117 50 147c36 32 85 63 139 63h4c54 -3 80 -4 96 -14c4 -4 9 -6 14 -9c4 -2 7 -5 11 -8c3 -3 6 -8 6 -18c0 -3 0 -6 -1 -10c0 -10 -2 -18 -3 -25c-2 -6 -2 -10 -4 -13c-1 -1 -2 -2 -3 -2s-5 3 -10 6c-26 18 -51 29 -89 29h-7c-40 -2 -58 -5 -94 -34
c-35 -28 -47 -66 -47 -106c0 -37 7 -84 44 -110c34 -24 48 -30 94 -35h13c41 0 71 15 89 28c3 2 6 3 7 3c5 0 8 -6 9 -21l2 -20c1 -6 1 -10 1 -14z" />
    <glyph glyph-name="ccircumflex" unicode="&#x109;" horiz-adv-x="393" 
d="M363 22c-1 -4 -3 -9 -22 -16c-18 -6 -34 -13 -51 -17c-15 -3 -30 -6 -48 -6h-8c-43 3 -90 15 -133 58c-44 44 -57 96 -59 138v6c0 42 18 117 50 147c36 32 85 63 139 63h4c54 -3 80 -4 96 -14c4 -4 9 -6 14 -9c4 -2 7 -5 11 -8c3 -3 6 -8 6 -18c0 -3 0 -6 -1 -10
c0 -10 -2 -18 -3 -25c-2 -6 -2 -10 -4 -13c-1 -1 -2 -2 -3 -2s-5 3 -10 6c-26 18 -51 29 -89 29h-7c-40 -2 -58 -5 -94 -34c-35 -28 -47 -66 -47 -106c0 -37 7 -84 44 -110c34 -24 48 -30 94 -35h13c41 0 71 15 89 28c3 2 6 3 7 3c5 0 8 -6 9 -21l2 -20c1 -6 1 -10 1 -14z
M416 471c3 -4 4 -7 4 -11c0 -10 -12 -22 -25 -22c-19 0 -36 17 -44 28c-15 19 -25 29 -47 50c-15 16 -27 34 -41 46c-22 21 -32 32 -42 32s-19 -13 -42 -38c-12 -15 -33 -30 -49 -46c-21 -22 -32 -35 -49 -56c-7 -9 -12 -16 -28 -16h-5c-9 1 -23 12 -23 23c0 3 1 6 4 10
c41 40 105 128 120 155c13 24 20 40 60 40h27c38 0 47 -15 59 -37l2 -3c15 -27 81 -110 119 -155z" />
    <glyph glyph-name="cdotaccent" unicode="&#x10b;" horiz-adv-x="393" 
d="M363 22c-1 -4 -3 -9 -22 -16c-18 -6 -34 -13 -51 -17c-15 -3 -30 -6 -48 -6h-8c-43 3 -90 15 -133 58c-44 44 -57 96 -59 138v6c0 42 18 117 50 147c36 32 85 63 139 63h4c54 -3 80 -4 96 -14c4 -4 9 -6 14 -9c4 -2 7 -5 11 -8c3 -3 6 -8 6 -18c0 -3 0 -6 -1 -10
c0 -10 -2 -18 -3 -25c-2 -6 -2 -10 -4 -13c-1 -1 -2 -2 -3 -2s-5 3 -10 6c-26 18 -51 29 -89 29h-7c-40 -2 -58 -5 -94 -34c-35 -28 -47 -66 -47 -106c0 -37 7 -84 44 -110c34 -24 48 -30 94 -35h13c41 0 71 15 89 28c3 2 6 3 7 3c5 0 8 -6 9 -21l2 -20c1 -6 1 -10 1 -14z
M311 529c-1 -42 -37 -73 -60 -73c-30 0 -66 35 -67 66c2 33 23 60 76 60c29 0 51 -21 51 -53z" />
    <glyph glyph-name="ccedilla" unicode="&#xe7;" horiz-adv-x="393" 
d="M363 22c-1 -4 -3 -9 -22 -16c-18 -6 -34 -13 -51 -17c-15 -3 -30 -6 -48 -6c-9 0 -15 -21 -18 -28c-3 -4 -3 -8 -3 -11c0 -11 8 -19 21 -19c4 0 9 1 13 2c5 2 11 3 17 3c30 0 66 -19 73 -44c2 -8 3 -15 3 -23c0 -27 -14 -51 -37 -67c-19 -15 -58 -30 -103 -30
c-47 0 -75 10 -88 17c-14 8 -20 11 -20 20c0 4 1 9 5 17c6 12 10 16 14 16c5 0 9 -4 14 -5l3 -1c17 -7 45 -18 75 -19h6c24 0 79 9 79 42c0 21 -18 38 -45 43h-12c-23 0 -29 -9 -61 -12c-2 -1 -5 -1 -7 -1c-10 0 -15 5 -15 13c0 10 9 25 15 35c5 9 25 35 25 50
c0 4 -2 8 -7 9c-24 3 -58 20 -88 51c-44 44 -57 96 -59 138v6c0 42 18 117 50 147c36 32 85 63 139 63h4c54 -3 80 -4 96 -14c4 -4 9 -6 14 -9c4 -2 7 -5 11 -8c3 -3 6 -8 6 -18c0 -3 0 -6 -1 -10c0 -10 -2 -18 -3 -25c-2 -6 -2 -10 -4 -13c-1 -1 -2 -2 -3 -2s-5 3 -10 6
c-26 18 -51 29 -89 29h-7c-40 -2 -58 -5 -94 -34c-35 -28 -47 -66 -47 -106c0 -37 7 -84 44 -110c34 -24 48 -30 94 -35h13c41 0 71 15 89 28c3 2 6 3 7 3c5 0 8 -6 9 -21l2 -20c1 -6 1 -10 1 -14z" />
    <glyph glyph-name="d" unicode="d" horiz-adv-x="518" 
d="M443 626c-1 -9 -2 -20 -2 -33c0 -27 -4 -71 -5 -112v-9c0 -6 -4 -44 -4 -60c0 -11 1 -20 2 -26c1 -5 1 -11 1 -18c0 -12 -1 -24 -2 -38l-6 -65v-14c0 -50 6 -174 10 -202l4 -23v-10v-8c-1 -6 -3 -11 -15 -11h-5l-22 3c-6 1 -8 1 -10 2c-4 3 -4 7 -5 14
c-3 16 -9 29 -21 29c-7 0 -19 -6 -33 -23c-27 -31 -67 -40 -105 -40c-37 0 -85 19 -119 51s-64 86 -64 142c0 57 19 120 44 149c27 30 78 62 114 63c9 0 19 1 29 1c23 0 47 -2 67 -15c16 -10 29 -19 38 -24c6 -3 12 -5 18 -5c5 0 10 2 15 6c12 10 16 20 16 39
c0 8 -1 18 -2 31c-3 41 -4 115 -7 160l-3 31v12c0 5 0 9 1 13c2 8 6 15 25 15h7c2 0 4 -1 6 -1c18 -2 27 -2 31 -9c1 -2 2 -7 2 -15zM377 231c-12 34 -26 52 -42 70c-19 21 -55 29 -102 30h-12c-41 0 -61 -13 -85 -44c-23 -30 -33 -68 -33 -98v-7c2 -22 2 -23 2 -23
c1 -8 1 -15 5 -23c5 -17 17 -35 41 -55c25 -20 41 -29 55 -33c8 -2 15 -2 20 -2h18c3 -1 7 -1 12 -1c24 0 53 6 69 22c8 9 17 17 25 26c9 11 17 23 23 40c8 19 12 37 12 55c0 13 -3 28 -8 43z" />
    <glyph glyph-name="dcaron" unicode="&#x10f;" horiz-adv-x="593" 
d="M629 576c-18 -30 -41 -66 -55 -95c-7 -15 -17 -31 -26 -45l-13 -20c-4 -6 -6 -12 -8 -16c-5 -10 -17 -20 -31 -20c-8 1 -19 2 -19 14c0 4 2 10 6 18c22 40 57 129 65 156c7 23 18 39 42 39h6c19 -2 37 -5 37 -18c0 -3 -2 -8 -4 -13zM443 626c-1 -9 -2 -20 -2 -33
c0 -27 -4 -71 -5 -112v-9c0 -6 -4 -44 -4 -60c0 -11 1 -20 2 -26c1 -5 1 -11 1 -18c0 -12 -1 -24 -2 -38l-6 -65v-14c0 -50 6 -174 10 -202l4 -23v-10v-8c-1 -6 -3 -11 -15 -11h-5l-22 3c-6 1 -8 1 -10 2c-4 3 -4 7 -5 14c-3 16 -9 29 -21 29c-7 0 -19 -6 -33 -23
c-27 -31 -67 -40 -105 -40c-37 0 -85 19 -119 51s-64 86 -64 142c0 57 19 120 44 149c27 30 78 62 114 63c9 0 19 1 29 1c23 0 47 -2 67 -15c16 -10 29 -19 38 -24c6 -3 12 -5 18 -5c5 0 10 2 15 6c12 10 16 20 16 39c0 8 -1 18 -2 31c-3 41 -4 115 -7 160l-3 31v12
c0 5 0 9 1 13c2 8 6 15 25 15h7c2 0 4 -1 6 -1c18 -2 27 -2 31 -9c1 -2 2 -7 2 -15zM377 231c-12 34 -26 52 -42 70c-19 21 -55 29 -102 30h-12c-41 0 -61 -13 -85 -44c-23 -30 -33 -68 -33 -98v-7c2 -22 2 -23 2 -23c1 -8 1 -15 5 -23c5 -17 17 -35 41 -55
c25 -20 41 -29 55 -33c8 -2 15 -2 20 -2h18c3 -1 7 -1 12 -1c24 0 53 6 69 22c8 9 17 17 25 26c9 11 17 23 23 40c8 19 12 37 12 55c0 13 -3 28 -8 43z" />
    <glyph glyph-name="eth" unicode="&#xf0;" horiz-adv-x="518" 
d="M446 155v-9c0 -55 -39 -95 -65 -117l-2 -2c-13 -11 -23 -21 -40 -29c-18 -8 -43 -14 -88 -16h-9c-40 0 -83 14 -117 36s-76 88 -81 159c0 3 -1 6 -1 9c0 68 62 144 90 157c27 13 68 24 90 24c4 0 7 0 9 -1c5 -1 10 -2 15 -2c18 0 34 8 34 27c0 10 -8 25 -20 41l-3 4
c-10 13 -18 23 -31 38l-10 12c-16 0 -61 -40 -65 -40c-2 -1 -5 -1 -6 -1c-10 0 -15 5 -24 24c-8 16 -12 25 -12 32c0 3 1 5 5 8c8 4 55 24 55 36c0 11 -29 36 -35 46l-2 3c-7 10 -13 22 -13 33c0 10 5 19 21 27c7 3 14 5 20 5c10 0 19 -5 23 -8c12 -10 32 -70 50 -70
c16 0 53 43 70 43c1 0 8 -4 19 -22c2 -4 4 -8 7 -11l3 -10c1 -1 1 -4 1 -5c0 -3 -1 -5 -3 -7c-10 -10 -64 -36 -64 -48c0 -15 23 -33 36 -53l91 -136c26 -39 37 -67 44 -94c3 -13 5 -26 6 -39c2 -14 2 -28 2 -44zM386 174v14c0 28 -13 72 -49 101c-35 28 -54 31 -83 31
s-68 -14 -93 -38c-12 -11 -25 -20 -35 -33s-17 -28 -17 -51v-4c2 -43 5 -101 56 -123c36 -15 64 -20 85 -20h13c8 1 26 1 27 1c7 1 15 2 22 4c18 5 33 19 49 49c15 27 22 42 25 53v16z" />
    </font>
</defs>
</svg>
